<svg width="16" height="16" viewBox="0 0 16 16" fill="none" xmlns="http://www.w3.org/2000/svg">
<path d="M8.00008 4.00001V2.66667M8.00008 4.00001C7.64646 4.00001 7.30732 4.14048 7.05727 4.39053C6.80722 4.64058 6.66675 4.97972 6.66675 5.33334C6.66675 5.68696 6.80722 6.0261 7.05727 6.27615C7.30732 6.5262 7.64646 6.66667 8.00008 6.66667M8.00008 4.00001C8.3537 4.00001 8.69284 4.14048 8.94289 4.39053C9.19294 4.64058 9.33341 4.97972 9.33341 5.33334C9.33341 5.68696 9.19294 6.0261 8.94289 6.27615C8.69284 6.5262 8.3537 6.66667 8.00008 6.66667M8.00008 6.66667V13.3333M4.00008 12C4.3537 12 4.69284 11.8595 4.94289 11.6095C5.19294 11.3594 5.33341 11.0203 5.33341 10.6667C5.33341 10.313 5.19294 9.97391 4.94289 9.72386C4.69284 9.47381 4.3537 9.33334 4.00008 9.33334M4.00008 12C3.64646 12 3.30732 11.8595 3.05727 11.6095C2.80722 11.3594 2.66675 11.0203 2.66675 10.6667C2.66675 10.313 2.80722 9.97391 3.05727 9.72386C3.30732 9.47381 3.64646 9.33334 4.00008 9.33334M4.00008 12V13.3333M4.00008 9.33334V2.66667M12.0001 12C12.3537 12 12.6928 11.8595 12.9429 11.6095C13.1929 11.3594 13.3334 11.0203 13.3334 10.6667C13.3334 10.313 13.1929 9.97391 12.9429 9.72386C12.6928 9.47381 12.3537 9.33334 12.0001 9.33334M12.0001 12C11.6465 12 11.3073 11.8595 11.0573 11.6095C10.8072 11.3594 10.6667 11.0203 10.6667 10.6667C10.6667 10.313 10.8072 9.97391 11.0573 9.72386C11.3073 9.47381 11.6465 9.33334 12.0001 9.33334M12.0001 12V13.3333M12.0001 9.33334V2.66667" stroke="#09090B" stroke-width="1.5" stroke-linecap="round" stroke-linejoin="round"/>
</svg>
