<svg width="16" height="16" viewBox="0 0 16 16" fill="none" xmlns="http://www.w3.org/2000/svg">
<path d="M4.00003 3.19999C4.00003 2.98782 3.91574 2.78434 3.76571 2.63431C3.61568 2.48428 3.4122 2.39999 3.20003 2.39999C2.98785 2.39999 2.78437 2.48428 2.63434 2.63431C2.48431 2.78434 2.40003 2.98782 2.40003 3.19999V9.01439C2.15682 9.15483 1.95485 9.35681 1.81444 9.60003C1.67402 9.84325 1.6001 10.1191 1.6001 10.4C1.6001 10.6808 1.67402 10.9567 1.81444 11.2C1.95485 11.4432 2.15682 11.6452 2.40003 11.7856V12.8C2.40003 13.0122 2.48431 13.2157 2.63434 13.3657C2.78437 13.5157 2.98785 13.6 3.20003 13.6C3.4122 13.6 3.61568 13.5157 3.76571 13.3657C3.91574 13.2157 4.00003 13.0122 4.00003 12.8V11.7856C4.24324 11.6452 4.4452 11.4432 4.58562 11.2C4.72603 10.9567 4.79996 10.6808 4.79996 10.4C4.79996 10.1191 4.72603 9.84325 4.58562 9.60003C4.4452 9.35681 4.24324 9.15483 4.00003 9.01439V3.19999ZM8.80003 3.19999C8.80003 2.98782 8.71574 2.78434 8.56571 2.63431C8.41568 2.48428 8.2122 2.39999 8.00003 2.39999C7.78785 2.39999 7.58437 2.48428 7.43434 2.63431C7.28431 2.78434 7.20003 2.98782 7.20003 3.19999V4.21439C6.95682 4.35483 6.75485 4.55681 6.61444 4.80003C6.47402 5.04325 6.4001 5.31915 6.4001 5.59999C6.4001 5.88084 6.47402 6.15674 6.61444 6.39996C6.75485 6.64318 6.95682 6.84516 7.20003 6.98559V12.8C7.20003 13.0122 7.28431 13.2157 7.43434 13.3657C7.58437 13.5157 7.78785 13.6 8.00003 13.6C8.2122 13.6 8.41568 13.5157 8.56571 13.3657C8.71574 13.2157 8.80003 13.0122 8.80003 12.8V6.98559C9.04324 6.84516 9.2452 6.64318 9.38562 6.39996C9.52603 6.15674 9.59996 5.88084 9.59996 5.59999C9.59996 5.31915 9.52603 5.04325 9.38562 4.80003C9.2452 4.55681 9.04324 4.35483 8.80003 4.21439V3.19999ZM12.8 2.39999C13.0122 2.39999 13.2157 2.48428 13.3657 2.63431C13.5157 2.78434 13.6 2.98782 13.6 3.19999V9.01439C13.8432 9.15483 14.0452 9.35681 14.1856 9.60003C14.326 9.84325 14.4 10.1191 14.4 10.4C14.4 10.6808 14.326 10.9567 14.1856 11.2C14.0452 11.4432 13.8432 11.6452 13.6 11.7856V12.8C13.6 13.0122 13.5157 13.2157 13.3657 13.3657C13.2157 13.5157 13.0122 13.6 12.8 13.6C12.5879 13.6 12.3844 13.5157 12.2343 13.3657C12.0843 13.2157 12 13.0122 12 12.8V11.7856C11.7568 11.6452 11.5549 11.4432 11.4144 11.2C11.274 10.9567 11.2001 10.6808 11.2001 10.4C11.2001 10.1191 11.274 9.84325 11.4144 9.60003C11.5549 9.35681 11.7568 9.15483 12 9.01439V3.19999C12 2.98782 12.0843 2.78434 12.2343 2.63431C12.3844 2.48428 12.5879 2.39999 12.8 2.39999Z" fill="#09090B"/>
</svg>
