<svg width="78" height="79" viewBox="0 0 78 79" fill="none" xmlns="http://www.w3.org/2000/svg">
<path d="M61.8082 54.2217L61.8083 54.2217L61.7993 54.2116C61.4714 53.8426 61.3716 53.4568 61.4268 53.0464C61.4863 52.6038 61.7394 52.065 62.2513 51.4978L62.2524 51.4965C66.7983 46.4416 69.3315 39.8024 69.3315 32.5466C69.3315 25.2908 66.7983 18.6516 62.2524 13.5967L62.2513 13.5954C61.7394 13.0282 61.4863 12.4894 61.4268 12.0469C61.3716 11.6364 61.4714 11.2506 61.7993 10.8816L61.7994 10.8817L61.8082 10.8715C62.4099 10.1758 63.533 10.0672 64.4236 11.0516L64.4235 11.0516L64.43 11.0586C69.6738 16.745 72.6526 24.3359 72.6526 32.5466C72.6526 40.7573 69.6738 48.3483 64.43 54.0348L64.43 54.0347L64.4236 54.0417C63.5331 55.026 62.4099 54.9174 61.8082 54.2217ZM16.201 54.2116L16.201 54.2115L16.1921 54.2217C15.5948 54.9123 14.4664 55.0339 13.5364 54.0334C8.29472 48.3491 5.34741 40.7595 5.34741 32.5466C5.34741 24.3338 8.29469 16.7442 13.5363 11.06C14.4663 10.0593 15.5948 10.1809 16.1921 10.8715L16.1921 10.8715L16.201 10.8816C16.5235 11.2445 16.6203 11.6263 16.5621 12.0411C16.4992 12.4891 16.2429 13.0314 15.7436 13.6013C11.2002 18.6556 8.66854 25.293 8.66854 32.5466C8.66854 39.8002 11.2002 46.4376 15.7437 51.492C16.243 52.0619 16.4992 52.6042 16.5621 53.0521C16.6203 53.4669 16.5235 53.8487 16.201 54.2116ZM25.9945 44.9077L25.9944 44.9077L25.9869 44.9164C25.3249 45.6786 24.1171 45.7341 23.3592 44.7379L23.3508 44.7269L23.3421 44.7161C20.6415 41.3638 19.0583 37.1114 19.0583 32.5466C19.0583 27.9818 20.6414 23.7296 23.3421 20.3771L23.3508 20.3663L23.3592 20.3553C24.1171 19.3591 25.3249 19.4146 25.9869 20.1768L25.9868 20.1769L25.9945 20.1855C26.3015 20.5309 26.3801 20.8751 26.3136 21.2886C26.239 21.7532 25.9726 22.3203 25.5088 22.9808C23.4881 25.6693 22.3794 28.9453 22.3794 32.5466C22.3794 36.1184 23.4072 39.5098 25.522 42.1307C25.9754 42.7639 26.2391 43.3261 26.3135 43.7914C26.3808 44.213 26.2994 44.5647 25.9945 44.9077ZM54.6581 44.7161L54.658 44.7161L54.6493 44.7272C53.8597 45.7362 52.6685 45.6833 51.9721 44.9066C51.668 44.5639 51.5868 44.2125 51.6541 43.7914C51.7285 43.3261 51.9922 42.7639 52.4455 42.1307C54.5606 39.5098 55.5882 36.1184 55.5882 32.5466C55.5882 28.9453 54.4795 25.6693 52.4588 22.9808C51.995 22.3202 51.7286 21.7532 51.654 21.2886C51.5876 20.8755 51.666 20.5316 51.9722 20.1866C52.6685 19.4099 53.8597 19.357 54.6493 20.366L54.6493 20.3661L54.6581 20.3771C57.3558 23.7259 58.9093 27.9771 58.9093 32.5466C58.9093 37.1162 57.3557 41.3675 54.6581 44.7161ZM41.0681 36.9646L40.4974 37.2359V37.8677V67.1831C40.4974 67.8523 40.3118 68.2974 40.0788 68.5613C39.8586 68.8106 39.5165 68.9905 38.9839 68.9905C38.5248 68.9905 38.1812 68.8196 37.9415 68.5486C37.6934 68.268 37.5028 67.8152 37.5028 67.1831V37.8677V37.2315L36.9265 36.9619C35.2503 36.1779 34.1403 34.5046 34.1403 32.5466C34.1403 29.8199 36.286 27.6378 38.9839 27.6378C41.7178 27.6378 43.8599 29.8235 43.8599 32.5466C43.8599 34.4971 42.7238 36.1775 41.0681 36.9646Z" fill="black" stroke="white" stroke-width="2"/>
</svg>
