<svg width="16" height="16" viewBox="0 0 16 16" fill="none" xmlns="http://www.w3.org/2000/svg">
<path d="M6 7.33333L8 5.33333M8 5.33333L10 7.33333M8 5.33333V10.6667M8 2C8.78793 2 9.56815 2.15519 10.2961 2.45672C11.0241 2.75825 11.6855 3.20021 12.2426 3.75736C12.7998 4.31451 13.2417 4.97595 13.5433 5.7039C13.8448 6.43185 14 7.21207 14 8C14 8.78793 13.8448 9.56815 13.5433 10.2961C13.2417 11.0241 12.7998 11.6855 12.2426 12.2426C11.6855 12.7998 11.0241 13.2417 10.2961 13.5433C9.56815 13.8448 8.78793 14 8 14C6.4087 14 4.88258 13.3679 3.75736 12.2426C2.63214 11.1174 2 9.5913 2 8C2 6.4087 2.63214 4.88258 3.75736 3.75736C4.88258 2.63214 6.4087 2 8 2Z" stroke="#09090B" stroke-width="1.5" stroke-linecap="round" stroke-linejoin="round"/>
</svg>
