<svg width="16" height="16" viewBox="0 0 16 16" fill="none" xmlns="http://www.w3.org/2000/svg">
<path fill-rule="evenodd" clip-rule="evenodd" d="M8.0001 14.4C9.69748 14.4 11.3253 13.7257 12.5256 12.5255C13.7258 11.3253 14.4001 9.69739 14.4001 8.00001C14.4001 6.30262 13.7258 4.67476 12.5256 3.47452C11.3253 2.27429 9.69748 1.60001 8.0001 1.60001C6.30271 1.60001 4.67485 2.27429 3.47461 3.47452C2.27438 4.67476 1.6001 6.30262 1.6001 8.00001C1.6001 9.69739 2.27438 11.3253 3.47461 12.5255C4.67485 13.7257 6.30271 14.4 8.0001 14.4ZM10.9657 7.43441L8.5657 5.03441C8.41482 4.88868 8.21273 4.80804 8.00298 4.80987C7.79322 4.81169 7.59257 4.89582 7.44424 5.04415C7.29592 5.19248 7.21178 5.39313 7.20996 5.60289C7.20814 5.81264 7.28877 6.01472 7.4345 6.16561L8.4689 7.20001H5.6001C5.38792 7.20001 5.18444 7.28429 5.03441 7.43432C4.88438 7.58435 4.8001 7.78783 4.8001 8.00001C4.8001 8.21218 4.88438 8.41566 5.03441 8.56569C5.18444 8.71572 5.38792 8.80001 5.6001 8.80001H8.4689L7.4345 9.83441C7.35809 9.9082 7.29714 9.99648 7.25522 10.0941C7.21329 10.1917 7.19122 10.2967 7.1903 10.4029C7.18937 10.5091 7.20962 10.6145 7.24984 10.7128C7.29007 10.8111 7.34947 10.9004 7.42458 10.9755C7.4997 11.0506 7.58902 11.11 7.68733 11.1503C7.78565 11.1905 7.891 11.2107 7.99722 11.2098C8.10344 11.2089 8.20842 11.1868 8.30602 11.1449C8.40362 11.103 8.4919 11.042 8.5657 10.9656L10.9657 8.56561C11.1157 8.41558 11.1999 8.21214 11.1999 8.00001C11.1999 7.78787 11.1157 7.58443 10.9657 7.43441Z" fill="#09090B"/>
</svg>
