<svg width="16" height="16" viewBox="0 0 16 16" fill="none" xmlns="http://www.w3.org/2000/svg">
<path fill-rule="evenodd" clip-rule="evenodd" d="M11.3945 4.60561C10.7537 3.96516 9.94465 3.51915 9.06098 3.31915C8.17731 3.11915 7.25509 3.17333 6.40092 3.47543C5.54675 3.77753 4.79553 4.3152 4.23409 5.0263C3.67265 5.73739 3.32394 6.59286 3.22825 7.49381C3.13257 8.39476 3.29382 9.30439 3.69338 10.1175C4.09293 10.9307 4.71447 11.6142 5.48613 12.0889C6.25779 12.5637 7.14806 12.8104 8.05403 12.8005C8.95999 12.7905 9.84464 12.5244 10.6057 12.0328C10.6938 11.9724 10.7931 11.9303 10.8978 11.9088C11.0024 11.8874 11.1103 11.8872 11.2151 11.9082C11.3198 11.9291 11.4193 11.9708 11.5076 12.0309C11.596 12.0909 11.6715 12.168 11.7295 12.2577C11.7876 12.3473 11.8271 12.4477 11.8458 12.5529C11.8645 12.6581 11.8619 12.7659 11.8382 12.8701C11.8145 12.9742 11.7702 13.0726 11.7078 13.1594C11.6455 13.2461 11.5665 13.3195 11.4753 13.3752C10.2807 14.1477 8.86272 14.5001 7.44544 14.3768C6.02816 14.2535 4.69236 13.6616 3.64907 12.6944C2.60578 11.7272 1.91448 10.44 1.68438 9.03608C1.45428 7.63218 1.69849 6.19164 2.37844 4.94202C3.0584 3.6924 4.13532 2.70495 5.43909 2.13567C6.74285 1.56639 8.19913 1.44774 9.57786 1.79845C10.9566 2.14916 12.1792 2.94925 13.0524 4.07231C13.9257 5.19537 14.3999 6.57738 14.4001 8.00001C14.4003 8.44579 14.2762 8.8828 14.042 9.26206C13.8077 9.64132 13.4725 9.94784 13.0738 10.1473C12.6751 10.3467 12.2288 10.4311 11.7848 10.3911C11.3408 10.3511 10.9167 10.1883 10.5601 9.92081C10.1042 10.5287 9.44693 10.9545 8.70583 11.122C7.96473 11.2896 7.18819 11.188 6.51514 10.8354C5.8421 10.4828 5.31648 9.90224 5.03232 9.19757C4.74816 8.4929 4.72401 7.71011 4.96419 6.98926C5.20438 6.26842 5.69322 5.65655 6.34325 5.26315C6.99328 4.86974 7.76208 4.72047 8.5121 4.84204C9.26212 4.96361 9.94441 5.34808 10.4369 5.92667C10.9294 6.50526 11.1999 7.24021 11.2001 8.00001C11.2001 8.21219 11.2844 8.41567 11.4344 8.5657C11.5845 8.71573 11.7879 8.80001 12.0001 8.80001C12.2123 8.80001 12.4158 8.71573 12.5658 8.5657C12.7158 8.41567 12.8001 8.21219 12.8001 8.00001C12.8001 6.77041 12.3313 5.54401 11.3945 4.60561ZM9.60011 8.00001C9.60011 7.57567 9.43154 7.1687 9.13148 6.86864C8.83142 6.56859 8.42445 6.40001 8.00011 6.40001C7.57576 6.40001 7.16879 6.56859 6.86874 6.86864C6.56868 7.1687 6.40011 7.57567 6.40011 8.00001C6.40011 8.42436 6.56868 8.83133 6.86874 9.13139C7.16879 9.43144 7.57576 9.60001 8.00011 9.60001C8.42445 9.60001 8.83142 9.43144 9.13148 9.13139C9.43154 8.83133 9.60011 8.42436 9.60011 8.00001Z" fill="#09090B"/>
</svg>
