<svg width="16" height="16" viewBox="0 0 16 16" fill="none" xmlns="http://www.w3.org/2000/svg">
<path fill-rule="evenodd" clip-rule="evenodd" d="M2.3999 3.99999C2.3999 3.57565 2.56847 3.16868 2.86853 2.86862C3.16859 2.56856 3.57556 2.39999 3.9999 2.39999H11.9999C12.4242 2.39999 12.8312 2.56856 13.1313 2.86862C13.4313 3.16868 13.5999 3.57565 13.5999 3.99999V12C13.5999 12.4243 13.4313 12.8313 13.1313 13.1314C12.8312 13.4314 12.4242 13.6 11.9999 13.6H3.9999C3.57556 13.6 3.16859 13.4314 2.86853 13.1314C2.56847 12.8313 2.3999 12.4243 2.3999 12V3.99999ZM11.1999 4.79999H4.7999V11.2L7.9999 9.59999L11.1999 11.2V4.79999Z" fill="#09090B"/>
</svg>
