<svg width="16" height="16" viewBox="0 0 16 16" fill="none" xmlns="http://www.w3.org/2000/svg">
<path fill-rule="evenodd" clip-rule="evenodd" d="M4.8001 4.80001V4.00001C4.8001 3.36349 5.05295 2.75304 5.50304 2.30295C5.95313 1.85286 6.56358 1.60001 7.2001 1.60001H8.8001C9.43662 1.60001 10.0471 1.85286 10.4972 2.30295C10.9472 2.75304 11.2001 3.36349 11.2001 4.00001V4.80001H12.8001C13.2244 4.80001 13.6314 4.96858 13.9315 5.26864C14.2315 5.56869 14.4001 5.97566 14.4001 6.40001V9.25601C12.3518 10.015 10.1845 10.4024 8.0001 10.4C5.8157 10.4024 3.64839 10.015 1.6001 9.25601V6.40001C1.6001 5.97566 1.76867 5.56869 2.06873 5.26864C2.36878 4.96858 2.77575 4.80001 3.2001 4.80001H4.8001ZM6.4001 4.00001C6.4001 3.78783 6.48438 3.58435 6.63441 3.43432C6.78444 3.28429 6.98792 3.20001 7.2001 3.20001H8.8001C9.01227 3.20001 9.21575 3.28429 9.36578 3.43432C9.51581 3.58435 9.6001 3.78783 9.6001 4.00001V4.80001H6.4001V4.00001ZM7.2001 8.00001C7.2001 7.78783 7.28438 7.58435 7.43441 7.43432C7.58444 7.28429 7.78792 7.20001 8.0001 7.20001H8.0081C8.22027 7.20001 8.42375 7.28429 8.57378 7.43432C8.72381 7.58435 8.8081 7.78783 8.8081 8.00001C8.8081 8.21218 8.72381 8.41566 8.57378 8.56569C8.42375 8.71572 8.22027 8.80001 8.0081 8.80001H8.0001C7.78792 8.80001 7.58444 8.71572 7.43441 8.56569C7.28438 8.41566 7.2001 8.21218 7.2001 8.00001Z" fill="#09090B"/>
<path d="M1.6001 10.9536V12.8C1.6001 13.2244 1.76867 13.6313 2.06873 13.9314C2.36878 14.2314 2.77575 14.4 3.2001 14.4H12.8001C13.2244 14.4 13.6314 14.2314 13.9315 13.9314C14.2315 13.6313 14.4001 13.2244 14.4001 12.8V10.9536C12.338 11.6486 10.1762 12.0021 8.0001 12C5.7633 12 3.6105 11.632 1.6001 10.9536Z" fill="#09090B"/>
</svg>
