<svg width="16" height="16" viewBox="0 0 16 16" fill="none" xmlns="http://www.w3.org/2000/svg">
<path d="M1.6001 8.79999C1.6001 8.58782 1.68438 8.38434 1.83441 8.23431C1.98444 8.08428 2.18792 7.99999 2.4001 7.99999H4.0001C4.21227 7.99999 4.41575 8.08428 4.56578 8.23431C4.71581 8.38434 4.8001 8.58782 4.8001 8.79999V12.8C4.8001 13.0122 4.71581 13.2157 4.56578 13.3657C4.41575 13.5157 4.21227 13.6 4.0001 13.6H2.4001C2.18792 13.6 1.98444 13.5157 1.83441 13.3657C1.68438 13.2157 1.6001 13.0122 1.6001 12.8V8.79999ZM6.4001 5.59999C6.4001 5.38782 6.48438 5.18434 6.63441 5.03431C6.78444 4.88428 6.98792 4.79999 7.2001 4.79999H8.8001C9.01227 4.79999 9.21575 4.88428 9.36578 5.03431C9.51581 5.18434 9.6001 5.38782 9.6001 5.59999V12.8C9.6001 13.0122 9.51581 13.2157 9.36578 13.3657C9.21575 13.5157 9.01227 13.6 8.8001 13.6H7.2001C6.98792 13.6 6.78444 13.5157 6.63441 13.3657C6.48438 13.2157 6.4001 13.0122 6.4001 12.8V5.59999ZM11.2001 3.19999C11.2001 2.98782 11.2844 2.78434 11.4344 2.63431C11.5844 2.48428 11.7879 2.39999 12.0001 2.39999H13.6001C13.8123 2.39999 14.0158 2.48428 14.1658 2.63431C14.3158 2.78434 14.4001 2.98782 14.4001 3.19999V12.8C14.4001 13.0122 14.3158 13.2157 14.1658 13.3657C14.0158 13.5157 13.8123 13.6 13.6001 13.6H12.0001C11.7879 13.6 11.5844 13.5157 11.4344 13.3657C11.2844 13.2157 11.2001 13.0122 11.2001 12.8V3.19999Z" fill="#09090B"/>
</svg>
