<svg width="16" height="16" viewBox="0 0 16 16" fill="none" xmlns="http://www.w3.org/2000/svg">
<path fill-rule="evenodd" clip-rule="evenodd" d="M3.9999 2.39999C3.57556 2.39999 3.16859 2.56856 2.86853 2.86862C2.56847 3.16868 2.3999 3.57565 2.3999 3.99999V12C2.3999 12.4243 2.56847 12.8313 2.86853 13.1314C3.16859 13.4314 3.57556 13.6 3.9999 13.6H11.9999C12.4242 13.6 12.8312 13.4314 13.1313 13.1314C13.4313 12.8313 13.5999 12.4243 13.5999 12V3.99999C13.5999 3.57565 13.4313 3.16868 13.1313 2.86862C12.8312 2.56856 12.4242 2.39999 11.9999 2.39999H3.9999ZM11.1999 5.59999C11.1999 5.38782 11.1156 5.18434 10.9656 5.03431C10.8156 4.88428 10.6121 4.79999 10.3999 4.79999C10.1877 4.79999 9.98425 4.88428 9.83422 5.03431C9.68419 5.18434 9.5999 5.38782 9.5999 5.59999V10.4C9.5999 10.6122 9.68419 10.8156 9.83422 10.9657C9.98425 11.1157 10.1877 11.2 10.3999 11.2C10.6121 11.2 10.8156 11.1157 10.9656 10.9657C11.1156 10.8156 11.1999 10.6122 11.1999 10.4V5.59999ZM8.7999 7.19999C8.7999 6.98782 8.71562 6.78434 8.56559 6.63431C8.41556 6.48428 8.21208 6.39999 7.9999 6.39999C7.78773 6.39999 7.58425 6.48428 7.43422 6.63431C7.28419 6.78434 7.1999 6.98782 7.1999 7.19999V10.4C7.1999 10.6122 7.28419 10.8156 7.43422 10.9657C7.58425 11.1157 7.78773 11.2 7.9999 11.2C8.21208 11.2 8.41556 11.1157 8.56559 10.9657C8.71562 10.8156 8.7999 10.6122 8.7999 10.4V7.19999ZM6.3999 9.59999C6.3999 9.38782 6.31562 9.18434 6.16559 9.03431C6.01556 8.88428 5.81208 8.79999 5.5999 8.79999C5.38773 8.79999 5.18425 8.88428 5.03422 9.03431C4.88419 9.18434 4.7999 9.38782 4.7999 9.59999V10.4C4.7999 10.6122 4.88419 10.8156 5.03422 10.9657C5.18425 11.1157 5.38773 11.2 5.5999 11.2C5.81208 11.2 6.01556 11.1157 6.16559 10.9657C6.31562 10.8156 6.3999 10.6122 6.3999 10.4V9.59999Z" fill="#09090B"/>
</svg>
