<svg width="16" height="16" viewBox="0 0 16 16" fill="none" xmlns="http://www.w3.org/2000/svg">
<path d="M5.33333 6.66666H5.34M8 6.66666H8.00667M10.6667 6.66666H10.6733M6 10.6667H3.33333C2.97971 10.6667 2.64057 10.5262 2.39052 10.2761C2.14048 10.0261 2 9.68695 2 9.33333V4C2 3.64638 2.14048 3.30724 2.39052 3.05719C2.64057 2.80714 2.97971 2.66666 3.33333 2.66666H12.6667C13.0203 2.66666 13.3594 2.80714 13.6095 3.05719C13.8595 3.30724 14 3.64638 14 4V9.33333C14 9.68695 13.8595 10.0261 13.6095 10.2761C13.3594 10.5262 13.0203 10.6667 12.6667 10.6667H9.33333L6 14V10.6667Z" stroke="#09090B" stroke-width="1.5" stroke-linecap="round" stroke-linejoin="round"/>
</svg>
