<svg width="16" height="16" viewBox="0 0 16 16" fill="none" xmlns="http://www.w3.org/2000/svg">
<path d="M6.4001 1.60001C6.18792 1.60001 5.98444 1.68429 5.83441 1.83432C5.68438 1.98435 5.6001 2.18783 5.6001 2.40001C5.6001 2.61218 5.68438 2.81566 5.83441 2.96569C5.98444 3.11572 6.18792 3.20001 6.4001 3.20001H8.0001C8.21227 3.20001 8.41575 3.11572 8.56578 2.96569C8.71581 2.81566 8.8001 2.61218 8.8001 2.40001C8.8001 2.18783 8.71581 1.98435 8.56578 1.83432C8.41575 1.68429 8.21227 1.60001 8.0001 1.60001H6.4001Z" fill="#09090B"/>
<path d="M2.3999 3.99999C2.3999 3.57565 2.56847 3.16868 2.86853 2.86862C3.16859 2.56856 3.57556 2.39999 3.9999 2.39999C3.9999 3.03651 4.25276 3.64696 4.70285 4.09705C5.15293 4.54714 5.76338 4.79999 6.3999 4.79999H7.9999C8.63642 4.79999 9.24687 4.54714 9.69696 4.09705C10.147 3.64696 10.3999 3.03651 10.3999 2.39999C10.8242 2.39999 11.2312 2.56856 11.5313 2.86862C11.8313 3.16868 11.9999 3.57565 11.9999 3.99999V8.79999H8.3311L9.3655 7.76559C9.51123 7.61471 9.59186 7.41263 9.59004 7.20287C9.58822 6.99312 9.50408 6.79247 9.35576 6.64414C9.20743 6.49581 9.00678 6.41168 8.79702 6.40985C8.58727 6.40803 8.38518 6.48867 8.2343 6.63439L5.8343 9.03439C5.68433 9.18442 5.60007 9.38786 5.60007 9.59999C5.60007 9.81213 5.68433 10.0156 5.8343 10.1656L8.2343 12.5656C8.38518 12.7113 8.58727 12.792 8.79702 12.7901C9.00678 12.7883 9.20743 12.7042 9.35576 12.5558C9.50408 12.4075 9.58822 12.2069 9.59004 11.9971C9.59186 11.7874 9.51123 11.5853 9.3655 11.4344L8.3311 10.4H11.9999V12.8C11.9999 13.2243 11.8313 13.6313 11.5313 13.9314C11.2312 14.2314 10.8242 14.4 10.3999 14.4H3.9999C3.57556 14.4 3.16859 14.2314 2.86853 13.9314C2.56847 13.6313 2.3999 13.2243 2.3999 12.8V3.99999ZM11.9999 8.79999H13.5999C13.8121 8.79999 14.0156 8.88428 14.1656 9.03431C14.3156 9.18434 14.3999 9.38782 14.3999 9.59999C14.3999 9.81217 14.3156 10.0157 14.1656 10.1657C14.0156 10.3157 13.8121 10.4 13.5999 10.4H11.9999V8.79999Z" fill="#09090B"/>
</svg>
