<svg width="16" height="16" viewBox="0 0 16 16" fill="none" xmlns="http://www.w3.org/2000/svg">
<path d="M7.1999 1.60001C6.98773 1.60001 6.78425 1.68429 6.63422 1.83432C6.48419 1.98435 6.3999 2.18783 6.3999 2.40001C6.3999 2.61218 6.48419 2.81566 6.63422 2.96569C6.78425 3.11572 6.98773 3.20001 7.1999 3.20001H8.7999C9.01208 3.20001 9.21556 3.11572 9.36559 2.96569C9.51562 2.81566 9.5999 2.61218 9.5999 2.40001C9.5999 2.18783 9.51562 1.98435 9.36559 1.83432C9.21556 1.68429 9.01208 1.60001 8.7999 1.60001H7.1999Z" fill="#09090B"/>
<path fill-rule="evenodd" clip-rule="evenodd" d="M3.19995 3.99999C3.19995 3.57565 3.36852 3.16868 3.66858 2.86862C3.96864 2.56856 4.3756 2.39999 4.79995 2.39999C4.79995 3.03651 5.05281 3.64696 5.50289 4.09705C5.95298 4.54714 6.56343 4.79999 7.19995 4.79999H8.79995C9.43647 4.79999 10.0469 4.54714 10.497 4.09705C10.9471 3.64696 11.2 3.03651 11.2 2.39999C11.6243 2.39999 12.0313 2.56856 12.3313 2.86862C12.6314 3.16868 12.8 3.57565 12.8 3.99999V12.8C12.8 13.2243 12.6314 13.6313 12.3313 13.9314C12.0313 14.2314 11.6243 14.4 11.2 14.4H4.79995C4.3756 14.4 3.96864 14.2314 3.66858 13.9314C3.36852 13.6313 3.19995 13.2243 3.19995 12.8V3.99999ZM10.9656 8.56559C11.1113 8.41471 11.1919 8.21263 11.1901 8.00287C11.1883 7.79312 11.1041 7.59247 10.9558 7.44414C10.8075 7.29581 10.6068 7.21168 10.3971 7.20986C10.1873 7.20803 9.98523 7.28867 9.83435 7.43439L7.19995 10.0688L6.16555 9.03439C6.01467 8.88867 5.81259 8.80803 5.60283 8.80985C5.39307 8.81168 5.19242 8.89581 5.0441 9.04414C4.89577 9.19247 4.81163 9.39312 4.80981 9.60287C4.80799 9.81263 4.88862 10.0147 5.03435 10.1656L6.63435 11.7656C6.78437 11.9156 6.98782 11.9998 7.19995 11.9998C7.41208 11.9998 7.61553 11.9156 7.76555 11.7656L10.9656 8.56559Z" fill="#09090B"/>
</svg>
