<svg width="16" height="16" viewBox="0 0 16 16" fill="none" xmlns="http://www.w3.org/2000/svg">
<path d="M7.1999 1.60001C6.98773 1.60001 6.78425 1.68429 6.63422 1.83432C6.48419 1.98435 6.3999 2.18783 6.3999 2.40001C6.3999 2.61218 6.48419 2.81566 6.63422 2.96569C6.78425 3.11572 6.98773 3.20001 7.1999 3.20001H8.7999C9.01208 3.20001 9.21556 3.11572 9.36559 2.96569C9.51562 2.81566 9.5999 2.61218 9.5999 2.40001C9.5999 2.18783 9.51562 1.98435 9.36559 1.83432C9.21556 1.68429 9.01208 1.60001 8.7999 1.60001H7.1999Z" fill="#09090B"/>
<path fill-rule="evenodd" clip-rule="evenodd" d="M3.19995 3.99999C3.19995 3.57565 3.36852 3.16868 3.66858 2.86862C3.96864 2.56856 4.3756 2.39999 4.79995 2.39999C4.79995 3.03651 5.05281 3.64696 5.50289 4.09705C5.95298 4.54714 6.56343 4.79999 7.19995 4.79999H8.79995C9.43647 4.79999 10.0469 4.54714 10.497 4.09705C10.9471 3.64696 11.2 3.03651 11.2 2.39999C11.6243 2.39999 12.0313 2.56856 12.3313 2.86862C12.6314 3.16868 12.8 3.57565 12.8 3.99999V12.8C12.8 13.2243 12.6314 13.6313 12.3313 13.9314C12.0313 14.2314 11.6243 14.4 11.2 14.4H4.79995C4.3756 14.4 3.96864 14.2314 3.66858 13.9314C3.36852 13.6313 3.19995 13.2243 3.19995 12.8V3.99999ZM5.59995 7.19999C5.38778 7.19999 5.18429 7.28428 5.03427 7.43431C4.88424 7.58434 4.79995 7.78782 4.79995 7.99999C4.79995 8.21217 4.88424 8.41565 5.03427 8.56568C5.18429 8.71571 5.38778 8.79999 5.59995 8.79999H5.60795C5.82012 8.79999 6.02361 8.71571 6.17364 8.56568C6.32367 8.41565 6.40795 8.21217 6.40795 7.99999C6.40795 7.78782 6.32367 7.58434 6.17364 7.43431C6.02361 7.28428 5.82012 7.19999 5.60795 7.19999H5.59995ZM7.99995 7.19999C7.78778 7.19999 7.58429 7.28428 7.43427 7.43431C7.28424 7.58434 7.19995 7.78782 7.19995 7.99999C7.19995 8.21217 7.28424 8.41565 7.43427 8.56568C7.58429 8.71571 7.78778 8.79999 7.99995 8.79999H10.4C10.6121 8.79999 10.8156 8.71571 10.9656 8.56568C11.1157 8.41565 11.2 8.21217 11.2 7.99999C11.2 7.78782 11.1157 7.58434 10.9656 7.43431C10.8156 7.28428 10.6121 7.19999 10.4 7.19999H7.99995ZM5.59995 10.4C5.38778 10.4 5.18429 10.4843 5.03427 10.6343C4.88424 10.7843 4.79995 10.9878 4.79995 11.2C4.79995 11.4122 4.88424 11.6157 5.03427 11.7657C5.18429 11.9157 5.38778 12 5.59995 12H5.60795C5.82012 12 6.02361 11.9157 6.17364 11.7657C6.32367 11.6157 6.40795 11.4122 6.40795 11.2C6.40795 10.9878 6.32367 10.7843 6.17364 10.6343C6.02361 10.4843 5.82012 10.4 5.60795 10.4H5.59995ZM7.99995 10.4C7.78778 10.4 7.58429 10.4843 7.43427 10.6343C7.28424 10.7843 7.19995 10.9878 7.19995 11.2C7.19995 11.4122 7.28424 11.6157 7.43427 11.7657C7.58429 11.9157 7.78778 12 7.99995 12H10.4C10.6121 12 10.8156 11.9157 10.9656 11.7657C11.1157 11.6157 11.2 11.4122 11.2 11.2C11.2 10.9878 11.1157 10.7843 10.9656 10.6343C10.8156 10.4843 10.6121 10.4 10.4 10.4H7.99995Z" fill="#09090B"/>
</svg>
