<svg width="16" height="16" viewBox="0 0 16 16" fill="none" xmlns="http://www.w3.org/2000/svg">
<path d="M4.8001 10.4C3.9514 10.4 3.13747 10.0628 2.53736 9.46273C1.93724 8.86261 1.6001 8.04868 1.6001 7.19999C1.6001 6.35129 1.93724 5.53736 2.53736 4.93725C3.13747 4.33713 3.9514 3.99999 4.8001 3.99999C4.8001 3.15129 5.13724 2.33736 5.73736 1.73725C6.33747 1.13713 7.1514 0.799988 8.0001 0.799988C8.84879 0.799988 9.66272 1.13713 10.2628 1.73725C10.863 2.33736 11.2001 3.15129 11.2001 3.99999C12.0488 3.99999 12.8627 4.33713 13.4628 4.93725C14.063 5.53736 14.4001 6.35129 14.4001 7.19999C14.4001 8.04868 14.063 8.86261 13.4628 9.46273C12.8627 10.0628 12.0488 10.4 11.2001 10.4H8.8001V6.39999C8.8001 6.18781 8.71581 5.98433 8.56578 5.8343C8.41575 5.68427 8.21227 5.59999 8.0001 5.59999C7.78792 5.59999 7.58444 5.68427 7.43441 5.8343C7.28438 5.98433 7.2001 6.18781 7.2001 6.39999V10.4H4.8001ZM7.2001 10.4H8.8001V12.4688L9.8345 11.4344C9.98538 11.2887 10.1875 11.208 10.3972 11.2098C10.607 11.2117 10.8076 11.2958 10.956 11.4441C11.1043 11.5925 11.1884 11.7931 11.1902 12.0029C11.1921 12.2126 11.1114 12.4147 10.9657 12.5656L8.5657 14.9656C8.41568 15.1156 8.21223 15.1998 8.0001 15.1998C7.78797 15.1998 7.58452 15.1156 7.4345 14.9656L5.0345 12.5656C4.95809 12.4918 4.89714 12.4035 4.85522 12.3059C4.81329 12.2083 4.79122 12.1033 4.7903 11.9971C4.78937 11.8909 4.80962 11.7855 4.84984 11.6872C4.89006 11.5889 4.94947 11.4996 5.02458 11.4245C5.0997 11.3494 5.18902 11.29 5.28733 11.2497C5.38565 11.2095 5.491 11.1893 5.59722 11.1902C5.70344 11.1911 5.80842 11.2132 5.90602 11.2551C6.00362 11.297 6.0919 11.358 6.1657 11.4344L7.2001 12.4688V10.4Z" fill="#09090B"/>
</svg>
