<svg width="16" height="16" viewBox="0 0 16 16" fill="none" xmlns="http://www.w3.org/2000/svg">
<path fill-rule="evenodd" clip-rule="evenodd" d="M1.6001 8.00001C1.6001 8.8487 1.93724 9.66263 2.53736 10.2627C3.13747 10.8629 3.9514 11.2 4.8001 11.2H7.2001V13.6C7.2001 13.8122 7.28438 14.0157 7.43441 14.1657C7.58444 14.3157 7.78792 14.4 8.0001 14.4C8.21227 14.4 8.41575 14.3157 8.56578 14.1657C8.71581 14.0157 8.8001 13.8122 8.8001 13.6V11.2H11.2001C12.0488 11.2 12.8627 10.8629 13.4628 10.2627C14.063 9.66263 14.4001 8.8487 14.4001 8.00001C14.4001 7.15131 14.063 6.33738 13.4628 5.73726C12.8627 5.13715 12.0488 4.80001 11.2001 4.80001C11.2001 3.95131 10.863 3.13738 10.2628 2.53726C9.66272 1.93715 8.84879 1.60001 8.0001 1.60001C7.1514 1.60001 6.33747 1.93715 5.73736 2.53726C5.13724 3.13738 4.8001 3.95131 4.8001 4.80001C3.9514 4.80001 3.13747 5.13715 2.53736 5.73726C1.93724 6.33738 1.6001 7.15131 1.6001 8.00001ZM8.8001 11.2H7.2001V7.53121L6.1657 8.56561C6.01482 8.71133 5.81273 8.79197 5.60298 8.79015C5.39322 8.78832 5.19257 8.70419 5.04424 8.55586C4.89592 8.40753 4.81178 8.20688 4.80996 7.99713C4.80814 7.78737 4.88877 7.58529 5.0345 7.43441L7.4345 5.03441C7.58452 4.88443 7.78797 4.80018 8.0001 4.80018C8.21223 4.80018 8.41568 4.88443 8.5657 5.03441L10.9657 7.43441C11.1114 7.58529 11.1921 7.78737 11.1902 7.99713C11.1884 8.20688 11.1043 8.40753 10.956 8.55586C10.8076 8.70419 10.607 8.78832 10.3972 8.79015C10.1875 8.79197 9.98538 8.71133 9.8345 8.56561L8.8001 7.53121V11.2Z" fill="#09090B"/>
</svg>
