<svg width="16" height="16" viewBox="0 0 16 16" fill="none" xmlns="http://www.w3.org/2000/svg">
<path fill-rule="evenodd" clip-rule="evenodd" d="M9.85268 2.44081C9.95239 2.47399 10.0446 2.52649 10.124 2.59531C10.2034 2.66413 10.2685 2.74792 10.3155 2.8419C10.3626 2.93588 10.3906 3.0382 10.3981 3.14302C10.4056 3.24785 10.3923 3.35311 10.3591 3.45281L7.15908 13.0528C7.09203 13.2542 6.94774 13.4206 6.75796 13.5156C6.56817 13.6106 6.34843 13.6263 6.14708 13.5592C5.94573 13.4922 5.77925 13.3479 5.68429 13.1581C5.58932 12.9683 5.57363 12.7486 5.64068 12.5472L8.84068 2.94721C8.87386 2.8475 8.92635 2.7553 8.99517 2.67588C9.06399 2.59646 9.14779 2.53138 9.24177 2.48435C9.33574 2.43733 9.43807 2.40928 9.54289 2.4018C9.64771 2.39433 9.75298 2.40759 9.85268 2.44081ZM4.56548 5.03441C4.71545 5.18443 4.79971 5.38788 4.79971 5.60001C4.79971 5.81214 4.71545 6.01559 4.56548 6.16561L2.73108 8.00001L4.56548 9.83441C4.64189 9.90821 4.70283 9.99648 4.74476 10.0941C4.78669 10.1917 4.80876 10.2967 4.80968 10.4029C4.8106 10.5091 4.79036 10.6145 4.75014 10.7128C4.70991 10.8111 4.65051 10.9004 4.57539 10.9755C4.50028 11.0506 4.41096 11.11 4.31264 11.1503C4.21432 11.1905 4.10898 11.2107 4.00276 11.2098C3.89653 11.2089 3.79156 11.1868 3.69395 11.1449C3.59635 11.103 3.50808 11.042 3.43428 10.9656L1.03428 8.56561C0.884301 8.41559 0.800049 8.21214 0.800049 8.00001C0.800049 7.78788 0.884301 7.58443 1.03428 7.43441L3.43428 5.03441C3.5843 4.88443 3.78775 4.80018 3.99988 4.80018C4.21201 4.80018 4.41546 4.88443 4.56548 5.03441ZM11.4343 5.03441C11.5843 4.88443 11.7877 4.80018 11.9999 4.80018C12.212 4.80018 12.4155 4.88443 12.5655 5.03441L14.9655 7.43441C15.1155 7.58443 15.1997 7.78788 15.1997 8.00001C15.1997 8.21214 15.1155 8.41559 14.9655 8.56561L12.5655 10.9656C12.4917 11.042 12.4034 11.103 12.3058 11.1449C12.2082 11.1868 12.1032 11.2089 11.997 11.2098C11.8908 11.2107 11.7854 11.1905 11.6871 11.1503C11.5888 11.11 11.4995 11.0506 11.4244 10.9755C11.3492 10.9004 11.2898 10.8111 11.2496 10.7128C11.2094 10.6145 11.1892 10.5091 11.1901 10.4029C11.191 10.2967 11.2131 10.1917 11.255 10.0941C11.2969 9.99648 11.3579 9.90821 11.4343 9.83441L13.2687 8.00001L11.4343 6.16561C11.2843 6.01559 11.2 5.81214 11.2 5.60001C11.2 5.38788 11.2843 5.18443 11.4343 5.03441Z" fill="#09090B"/>
</svg>
