<svg width="16" height="16" viewBox="0 0 16 16" fill="none" xmlns="http://www.w3.org/2000/svg">
<path fill-rule="evenodd" clip-rule="evenodd" d="M9.1919 2.53601C8.8879 1.28801 7.1119 1.28801 6.8079 2.53601C6.76251 2.72354 6.67349 2.89771 6.54808 3.04433C6.42266 3.19096 6.2644 3.30591 6.08617 3.37982C5.90794 3.45373 5.71478 3.48452 5.52241 3.46968C5.33003 3.45484 5.14388 3.39478 4.9791 3.29441C3.8815 2.62561 2.6255 3.88161 3.2943 4.97921C3.7263 5.68801 3.3431 6.61281 2.5367 6.80881C1.2879 7.11201 1.2879 8.88881 2.5367 9.19121C2.72428 9.23665 2.89848 9.32575 3.04511 9.45126C3.19174 9.57677 3.30665 9.73514 3.38049 9.91346C3.45433 10.0918 3.48501 10.285 3.47003 10.4775C3.45506 10.6699 3.39484 10.8561 3.2943 11.0208C2.6255 12.1184 3.8815 13.3744 4.9791 12.7056C5.14385 12.6051 5.33002 12.5448 5.52244 12.5299C5.71487 12.5149 5.90812 12.5456 6.08644 12.6194C6.26477 12.6933 6.42313 12.8082 6.54864 12.9548C6.67415 13.1014 6.76325 13.2756 6.8087 13.4632C7.1119 14.712 8.8887 14.712 9.1911 13.4632C9.2367 13.2757 9.32589 13.1016 9.45142 12.9551C9.57696 12.8086 9.7353 12.6937 9.91357 12.6199C10.0918 12.5461 10.285 12.5154 10.4774 12.5303C10.6698 12.5452 10.8559 12.6052 11.0207 12.7056C12.1183 13.3744 13.3743 12.1184 12.7055 11.0208C12.6051 10.856 12.5451 10.6699 12.5302 10.4775C12.5153 10.2851 12.546 10.0919 12.6198 9.91368C12.6936 9.7354 12.8085 9.57707 12.955 9.45153C13.1015 9.326 13.2756 9.2368 13.4631 9.19121C14.7119 8.88801 14.7119 7.11121 13.4631 6.80881C13.2755 6.76336 13.1013 6.67426 12.9547 6.54875C12.8081 6.42324 12.6931 6.26487 12.6193 6.08655C12.5455 5.90822 12.5148 5.71498 12.5298 5.52255C12.5447 5.33013 12.605 5.14396 12.7055 4.97921C13.3743 3.88161 12.1183 2.62561 11.0207 3.29441C10.8559 3.39495 10.6698 3.45516 10.4773 3.47014C10.2849 3.48512 10.0917 3.45444 9.91335 3.3806C9.73503 3.30676 9.57666 3.19184 9.45115 3.04522C9.32565 2.89859 9.23654 2.72439 9.1911 2.53681L9.1919 2.53601ZM7.9999 10.4C8.63642 10.4 9.24687 10.1472 9.69695 9.69706C10.147 9.24698 10.3999 8.63653 10.3999 8.00001C10.3999 7.36349 10.147 6.75304 9.69695 6.30295C9.24687 5.85286 8.63642 5.60001 7.9999 5.60001C7.36338 5.60001 6.75293 5.85286 6.30284 6.30295C5.85275 6.75304 5.5999 7.36349 5.5999 8.00001C5.5999 8.63653 5.85275 9.24698 6.30284 9.69706C6.75293 10.1472 7.36338 10.4 7.9999 10.4Z" fill="#09090B"/>
</svg>
