<svg width="16" height="16" viewBox="0 0 16 16" fill="none" xmlns="http://www.w3.org/2000/svg">
<path d="M5.6001 2.39999C5.38792 2.39999 5.18444 2.48428 5.03441 2.63431C4.88438 2.78434 4.8001 2.98782 4.8001 3.19999C4.8001 3.41217 4.88438 3.61565 5.03441 3.76568C5.18444 3.91571 5.38792 3.99999 5.6001 3.99999H10.4001C10.6123 3.99999 10.8158 3.91571 10.9658 3.76568C11.1158 3.61565 11.2001 3.41217 11.2001 3.19999C11.2001 2.98782 11.1158 2.78434 10.9658 2.63431C10.8158 2.48428 10.6123 2.39999 10.4001 2.39999H5.6001ZM3.2001 5.59999C3.2001 5.38782 3.28438 5.18434 3.43441 5.03431C3.58444 4.88428 3.78792 4.79999 4.0001 4.79999H12.0001C12.2123 4.79999 12.4158 4.88428 12.5658 5.03431C12.7158 5.18434 12.8001 5.38782 12.8001 5.59999C12.8001 5.81217 12.7158 6.01565 12.5658 6.16568C12.4158 6.31571 12.2123 6.39999 12.0001 6.39999H4.0001C3.78792 6.39999 3.58444 6.31571 3.43441 6.16568C3.28438 6.01565 3.2001 5.81217 3.2001 5.59999ZM1.6001 8.79999C1.6001 8.37565 1.76867 7.96868 2.06873 7.66862C2.36878 7.36857 2.77575 7.19999 3.2001 7.19999H12.8001C13.2244 7.19999 13.6314 7.36857 13.9315 7.66862C14.2315 7.96868 14.4001 8.37565 14.4001 8.79999V12C14.4001 12.4243 14.2315 12.8313 13.9315 13.1314C13.6314 13.4314 13.2244 13.6 12.8001 13.6H3.2001C2.77575 13.6 2.36878 13.4314 2.06873 13.1314C1.76867 12.8313 1.6001 12.4243 1.6001 12V8.79999Z" fill="#09090B"/>
</svg>
