<svg width="16" height="16" viewBox="0 0 16 16" fill="none" xmlns="http://www.w3.org/2000/svg">
<path fill-rule="evenodd" clip-rule="evenodd" d="M8.0001 14.4C9.69748 14.4 11.3253 13.7257 12.5256 12.5255C13.7258 11.3253 14.4001 9.69739 14.4001 8.00001C14.4001 6.30262 13.7258 4.67476 12.5256 3.47452C11.3253 2.27429 9.69748 1.60001 8.0001 1.60001C6.30271 1.60001 4.67485 2.27429 3.47461 3.47452C2.27438 4.67476 1.6001 6.30262 1.6001 8.00001C1.6001 9.69739 2.27438 11.3253 3.47461 12.5255C4.67485 13.7257 6.30271 14.4 8.0001 14.4ZM6.2865 4.38801C6.17723 4.20607 6.00016 4.07499 5.79424 4.0236C5.58833 3.97222 5.37044 4.00474 5.1885 4.11401C5.00656 4.22328 4.87548 4.40034 4.82409 4.60626C4.77271 4.81217 4.80523 5.03007 4.9145 5.21201L6.1065 7.20001H5.6001C5.38792 7.20001 5.18444 7.28429 5.03441 7.43432C4.88438 7.58435 4.8001 7.78783 4.8001 8.00001C4.8001 8.21218 4.88438 8.41566 5.03441 8.56569C5.18444 8.71572 5.38792 8.80001 5.6001 8.80001H7.0673L7.2001 9.02161V9.60001H5.6001C5.38792 9.60001 5.18444 9.68429 5.03441 9.83432C4.88438 9.98435 4.8001 10.1878 4.8001 10.4C4.8001 10.6122 4.88438 10.8157 5.03441 10.9657C5.18444 11.1157 5.38792 11.2 5.6001 11.2H7.2001V12C7.2001 12.2122 7.28438 12.4157 7.43441 12.5657C7.58444 12.7157 7.78792 12.8 8.0001 12.8C8.21227 12.8 8.41575 12.7157 8.56578 12.5657C8.71581 12.4157 8.8001 12.2122 8.8001 12V11.2H10.4001C10.6123 11.2 10.8158 11.1157 10.9658 10.9657C11.1158 10.8157 11.2001 10.6122 11.2001 10.4C11.2001 10.1878 11.1158 9.98435 10.9658 9.83432C10.8158 9.68429 10.6123 9.60001 10.4001 9.60001H8.8001V9.02161L8.9329 8.80001H10.4001C10.6123 8.80001 10.8158 8.71572 10.9658 8.56569C11.1158 8.41566 11.2001 8.21218 11.2001 8.00001C11.2001 7.78783 11.1158 7.58435 10.9658 7.43432C10.8158 7.28429 10.6123 7.20001 10.4001 7.20001H9.8929L11.0865 5.21121C11.1957 5.02916 11.228 4.81121 11.1765 4.60529C11.125 4.39938 10.9937 4.22237 10.8117 4.11321C10.6297 4.00404 10.4117 3.97167 10.2058 4.0232C9.99987 4.07474 9.82286 4.20596 9.7137 4.38801L8.0273 7.20001H7.9729L6.2865 4.38801Z" fill="#09090B"/>
</svg>
