<svg width="16" height="16" viewBox="0 0 16 16" fill="none" xmlns="http://www.w3.org/2000/svg">
<path d="M6.7463 5.93439C6.8703 5.85199 7.0231 5.77759 7.1999 5.72079V7.07919C7.03968 7.02898 6.88707 6.95711 6.7463 6.86559C6.4559 6.67199 6.3999 6.49119 6.3999 6.39999C6.3999 6.30879 6.4559 6.12799 6.7463 5.93439ZM8.7999 10.2792V8.92079C8.9759 8.97759 9.1295 9.05199 9.2535 9.13439C9.5447 9.32879 9.5999 9.50879 9.5999 9.59999C9.5999 9.69119 9.5439 9.87199 9.2535 10.0656C9.11273 10.1571 8.96012 10.229 8.7999 10.2792Z" fill="#09090B"/>
<path fill-rule="evenodd" clip-rule="evenodd" d="M8.0001 14.4C9.69748 14.4 11.3253 13.7257 12.5256 12.5255C13.7258 11.3253 14.4001 9.69739 14.4001 8.00001C14.4001 6.30262 13.7258 4.67476 12.5256 3.47452C11.3253 2.27429 9.69748 1.60001 8.0001 1.60001C6.30271 1.60001 4.67485 2.27429 3.47461 3.47452C2.27438 4.67476 1.6001 6.30262 1.6001 8.00001C1.6001 9.69739 2.27438 11.3253 3.47461 12.5255C4.67485 13.7257 6.30271 14.4 8.0001 14.4ZM8.8001 4.00001C8.8001 3.78783 8.71581 3.58435 8.56578 3.43432C8.41575 3.28429 8.21227 3.20001 8.0001 3.20001C7.78792 3.20001 7.58444 3.28429 7.43441 3.43432C7.28438 3.58435 7.2001 3.78783 7.2001 4.00001V4.07361C6.72224 4.15867 6.2663 4.33876 5.8593 4.60321C5.2817 4.98721 4.8001 5.60721 4.8001 6.40001C4.8001 7.19201 5.2817 7.81201 5.8593 8.19681C6.2433 8.45281 6.7025 8.63281 7.2001 8.72641V10.2792C6.8873 10.1776 6.6561 10.0256 6.5257 9.87601C6.45802 9.79296 6.37435 9.72435 6.27965 9.67425C6.18496 9.62415 6.08116 9.59358 5.97443 9.58435C5.86769 9.57513 5.76019 9.58743 5.6583 9.62054C5.55641 9.65365 5.46221 9.70689 5.38129 9.77709C5.30037 9.8473 5.23437 9.93304 5.18721 10.0292C5.14005 10.1254 5.1127 10.2301 5.10677 10.3371C5.10084 10.4441 5.11645 10.5511 5.15268 10.6519C5.18892 10.7528 5.24503 10.8453 5.3177 10.924C5.7673 11.4432 6.4481 11.7848 7.2001 11.9264V12C7.2001 12.2122 7.28438 12.4157 7.43441 12.5657C7.58444 12.7157 7.78792 12.8 8.0001 12.8C8.21227 12.8 8.41575 12.7157 8.56578 12.5657C8.71581 12.4157 8.8001 12.2122 8.8001 12V11.9264C9.27796 11.8413 9.73389 11.6613 10.1409 11.3968C10.7185 11.0128 11.2001 10.3928 11.2001 9.60001C11.2001 8.80801 10.7185 8.18801 10.1409 7.80321C9.73389 7.53876 9.27796 7.35867 8.8001 7.27361V5.72081C9.1129 5.82241 9.3441 5.97441 9.4745 6.12401C9.54281 6.20506 9.62654 6.27172 9.72084 6.32013C9.81514 6.36854 9.91811 6.39773 10.0238 6.406C10.1295 6.41427 10.2357 6.40146 10.3364 6.36831C10.4371 6.33516 10.5302 6.28234 10.6103 6.2129C10.6904 6.14347 10.7558 6.05881 10.8029 5.96384C10.85 5.86888 10.8778 5.76551 10.8846 5.65973C10.8914 5.55395 10.8771 5.44788 10.8425 5.34767C10.808 5.24746 10.7538 5.15512 10.6833 5.07601C10.2329 4.55681 9.5529 4.21521 8.8001 4.07361V4.00001Z" fill="#09090B"/>
</svg>
