<svg width="16" height="16" viewBox="0 0 16 16" fill="none" xmlns="http://www.w3.org/2000/svg">
<path fill-rule="evenodd" clip-rule="evenodd" d="M8.0001 14.4C9.69748 14.4 11.3253 13.7257 12.5256 12.5255C13.7258 11.3253 14.4001 9.69739 14.4001 8.00001C14.4001 6.30262 13.7258 4.67476 12.5256 3.47452C11.3253 2.27429 9.69748 1.60001 8.0001 1.60001C6.30271 1.60001 4.67485 2.27429 3.47461 3.47452C2.27438 4.67476 1.6001 6.30262 1.6001 8.00001C1.6001 9.69739 2.27438 11.3253 3.47461 12.5255C4.67485 13.7257 6.30271 14.4 8.0001 14.4ZM8.8001 3.20001C8.16358 3.20001 7.55313 3.45286 7.10304 3.90295C6.65295 4.35304 6.4001 4.96349 6.4001 5.60001V7.20001H5.6001C5.38792 7.20001 5.18444 7.28429 5.03441 7.43432C4.88438 7.58435 4.8001 7.78783 4.8001 8.00001C4.8001 8.21218 4.88438 8.41566 5.03441 8.56569C5.18444 8.71572 5.38792 8.80001 5.6001 8.80001H6.4001V9.60001C6.4001 9.81218 6.31581 10.0157 6.16578 10.1657C6.01575 10.3157 5.81227 10.4 5.6001 10.4C5.38792 10.4 5.18444 10.4843 5.03441 10.6343C4.88438 10.7844 4.8001 10.9878 4.8001 11.2C4.8001 11.4122 4.88438 11.6157 5.03441 11.7657C5.18444 11.9157 5.38792 12 5.6001 12H10.4001C10.6123 12 10.8158 11.9157 10.9658 11.7657C11.1158 11.6157 11.2001 11.4122 11.2001 11.2C11.2001 10.9878 11.1158 10.7844 10.9658 10.6343C10.8158 10.4843 10.6123 10.4 10.4001 10.4H7.8641C7.9521 10.1496 8.0001 9.88001 8.0001 9.60001V8.80001H8.8001C9.01227 8.80001 9.21575 8.71572 9.36578 8.56569C9.51581 8.41566 9.6001 8.21218 9.6001 8.00001C9.6001 7.78783 9.51581 7.58435 9.36578 7.43432C9.21575 7.28429 9.01227 7.20001 8.8001 7.20001H8.0001V5.60001C8.0001 5.38783 8.08438 5.18435 8.23441 5.03432C8.38444 4.88429 8.58792 4.80001 8.8001 4.80001C9.01227 4.80001 9.21575 4.88429 9.36578 5.03432C9.51581 5.18435 9.6001 5.38783 9.6001 5.60001C9.6001 5.81218 9.68438 6.01566 9.83441 6.16569C9.98444 6.31572 10.1879 6.40001 10.4001 6.40001C10.6123 6.40001 10.8158 6.31572 10.9658 6.16569C11.1158 6.01566 11.2001 5.81218 11.2001 5.60001C11.2001 4.96349 10.9472 4.35304 10.4972 3.90295C10.0471 3.45286 9.43662 3.20001 8.8001 3.20001Z" fill="#09090B"/>
</svg>
