<svg width="16" height="16" viewBox="0 0 16 16" fill="none" xmlns="http://www.w3.org/2000/svg">
<path fill-rule="evenodd" clip-rule="evenodd" d="M8.0001 14.4C9.69748 14.4 11.3253 13.7257 12.5256 12.5255C13.7258 11.3253 14.4001 9.69739 14.4001 8.00001C14.4001 6.30262 13.7258 4.67476 12.5256 3.47452C11.3253 2.27429 9.69748 1.60001 8.0001 1.60001C6.30271 1.60001 4.67485 2.27429 3.47461 3.47452C2.27438 4.67476 1.6001 6.30262 1.6001 8.00001C1.6001 9.69739 2.27438 11.3253 3.47461 12.5255C4.67485 13.7257 6.30271 14.4 8.0001 14.4ZM6.9889 5.58321C7.3665 4.95441 7.7569 4.80001 8.0001 4.80001C8.2433 4.80001 8.6337 4.95441 9.0113 5.58321C9.12046 5.76514 9.29743 5.89627 9.50327 5.94773C9.70911 5.99919 9.92696 5.96677 10.1089 5.85761C10.2908 5.74844 10.422 5.57148 10.4734 5.36564C10.5249 5.1598 10.4925 4.94194 10.3833 4.76001C9.8233 3.82721 8.9857 3.20001 8.0001 3.20001C7.0145 3.20001 6.1769 3.82721 5.6169 4.76001C5.3889 5.14001 5.2113 5.56001 5.0809 6.00001H4.8001C4.58792 6.00001 4.38444 6.08429 4.23441 6.23432C4.08438 6.38435 4.0001 6.58783 4.0001 6.80001C4.0001 7.01218 4.08438 7.21566 4.23441 7.36569C4.38444 7.51572 4.58792 7.60001 4.8001 7.60001H4.8105C4.79624 7.86648 4.79624 8.13353 4.8105 8.40001H4.8001C4.58792 8.40001 4.38444 8.48429 4.23441 8.63432C4.08438 8.78435 4.0001 8.98783 4.0001 9.20001C4.0001 9.41218 4.08438 9.61566 4.23441 9.76569C4.38444 9.91572 4.58792 10 4.8001 10H5.0809C5.2113 10.44 5.3889 10.86 5.6169 11.24C6.1769 12.1728 7.0145 12.8 8.0001 12.8C8.9857 12.8 9.8233 12.1728 10.3833 11.24C10.4374 11.1499 10.4731 11.0501 10.4886 10.9462C10.5041 10.8422 10.4989 10.7363 10.4734 10.6344C10.4479 10.5325 10.4026 10.4365 10.3401 10.3521C10.2775 10.2677 10.199 10.1965 10.1089 10.1424C10.0188 10.0884 9.91896 10.0526 9.81505 10.0371C9.71113 10.0216 9.60519 10.0268 9.50327 10.0523C9.40135 10.0778 9.30544 10.1231 9.22103 10.1856C9.13662 10.2482 9.06535 10.3267 9.0113 10.4168C8.6337 11.0456 8.2433 11.2 8.0001 11.2C7.7569 11.2 7.3665 11.0456 6.9889 10.4168C6.90906 10.2829 6.83849 10.1436 6.7777 10H8.0001C8.21227 10 8.41575 9.91572 8.56578 9.76569C8.71581 9.61566 8.8001 9.41218 8.8001 9.20001C8.8001 8.98783 8.71581 8.78435 8.56578 8.63432C8.41575 8.48429 8.21227 8.40001 8.0001 8.40001H6.4137C6.39556 8.13365 6.39556 7.86636 6.4137 7.60001H8.0001C8.21227 7.60001 8.41575 7.51572 8.56578 7.36569C8.71581 7.21566 8.8001 7.01218 8.8001 6.80001C8.8001 6.58783 8.71581 6.38435 8.56578 6.23432C8.41575 6.08429 8.21227 6.00001 8.0001 6.00001H6.7777C6.8417 5.85201 6.9113 5.71201 6.9889 5.58321Z" fill="#09090B"/>
</svg>
