<svg width="16" height="16" viewBox="0 0 16 16" fill="none" xmlns="http://www.w3.org/2000/svg">
<path fill-rule="evenodd" clip-rule="evenodd" d="M8.0001 14.4C9.69748 14.4 11.3253 13.7257 12.5256 12.5255C13.7258 11.3253 14.4001 9.69739 14.4001 8.00001C14.4001 6.30262 13.7258 4.67476 12.5256 3.47452C11.3253 2.27429 9.69748 1.60001 8.0001 1.60001C6.30271 1.60001 4.67485 2.27429 3.47461 3.47452C2.27438 4.67476 1.6001 6.30262 1.6001 8.00001C1.6001 9.69739 2.27438 11.3253 3.47461 12.5255C4.67485 13.7257 6.30271 14.4 8.0001 14.4ZM5.6001 4.00001C5.38792 4.00001 5.18444 4.08429 5.03441 4.23432C4.88438 4.38435 4.8001 4.58783 4.8001 4.80001C4.8001 5.01218 4.88438 5.21566 5.03441 5.36569C5.18444 5.51572 5.38792 5.60001 5.6001 5.60001H6.4001C6.68095 5.60001 6.95685 5.67395 7.20007 5.81438C7.4433 5.9548 7.64527 6.15678 7.7857 6.40001H5.6001C5.38792 6.40001 5.18444 6.48429 5.03441 6.63432C4.88438 6.78435 4.8001 6.98783 4.8001 7.20001C4.8001 7.41218 4.88438 7.61566 5.03441 7.76569C5.18444 7.91572 5.38792 8.00001 5.6001 8.00001H7.7857C7.64527 8.24323 7.4433 8.44521 7.20007 8.58564C6.95685 8.72607 6.68095 8.8 6.4001 8.80001H5.6001C5.4419 8.80004 5.28726 8.84698 5.15573 8.93488C5.0242 9.02279 4.92169 9.14772 4.86116 9.29388C4.80062 9.44004 4.78478 9.60087 4.81563 9.75603C4.84648 9.91119 4.92265 10.0537 5.0345 10.1656L7.4345 12.5656C7.58538 12.7113 7.78746 12.792 7.99722 12.7901C8.20698 12.7883 8.40763 12.7042 8.55595 12.5559C8.70428 12.4075 8.78841 12.2069 8.79024 11.9971C8.79206 11.7874 8.71142 11.5853 8.5657 11.4344L7.3793 10.2472C7.89333 10.0815 8.35717 9.78862 8.72779 9.39577C9.0984 9.00291 9.36378 8.52281 9.4993 8.00001H10.4001C10.6123 8.00001 10.8158 7.91572 10.9658 7.76569C11.1158 7.61566 11.2001 7.41218 11.2001 7.20001C11.2001 6.98783 11.1158 6.78435 10.9658 6.63432C10.8158 6.48429 10.6123 6.40001 10.4001 6.40001H9.4993C9.42689 6.11965 9.31653 5.8505 9.1713 5.60001H10.4001C10.6123 5.60001 10.8158 5.51572 10.9658 5.36569C11.1158 5.21566 11.2001 5.01218 11.2001 4.80001C11.2001 4.58783 11.1158 4.38435 10.9658 4.23432C10.8158 4.08429 10.6123 4.00001 10.4001 4.00001H5.6001Z" fill="#09090B"/>
</svg>
