<svg width="16" height="16" viewBox="0 0 16 16" fill="none" xmlns="http://www.w3.org/2000/svg">
<path d="M5.99992 8.66667H9.99992M7.99992 6.66667V10.6667M11.3333 14H4.66659C4.31296 14 3.97382 13.8595 3.72378 13.6095C3.47373 13.3594 3.33325 13.0203 3.33325 12.6667V3.33333C3.33325 2.97971 3.47373 2.64057 3.72378 2.39052C3.97382 2.14048 4.31296 2 4.66659 2H8.39059C8.56738 2.00004 8.73692 2.0703 8.86192 2.19533L12.4713 5.80467C12.5963 5.92966 12.6665 6.0992 12.6666 6.276V12.6667C12.6666 13.0203 12.5261 13.3594 12.2761 13.6095C12.026 13.8595 11.6869 14 11.3333 14Z" stroke="#09090B" stroke-width="1.5" stroke-linecap="round" stroke-linejoin="round"/>
</svg>
