<svg width="16" height="16" viewBox="0 0 16 16" fill="none" xmlns="http://www.w3.org/2000/svg">
<path fill-rule="evenodd" clip-rule="evenodd" d="M4.79995 1.60001C4.3756 1.60001 3.96864 1.76858 3.66858 2.06864C3.36852 2.36869 3.19995 2.77566 3.19995 3.20001V12.8C3.19995 13.2244 3.36852 13.6313 3.66858 13.9314C3.96864 14.2314 4.3756 14.4 4.79995 14.4H11.2C11.6243 14.4 12.0313 14.2314 12.3313 13.9314C12.6314 13.6313 12.8 13.2244 12.8 12.8V5.93121C12.7999 5.50689 12.6312 5.09999 12.3312 4.80001L9.59995 2.06881C9.29996 1.76873 8.89306 1.6001 8.46875 1.60001H4.79995ZM8.79995 6.40001C8.79995 6.18783 8.71567 5.98435 8.56564 5.83432C8.41561 5.68429 8.21212 5.60001 7.99995 5.60001C7.78778 5.60001 7.58429 5.68429 7.43427 5.83432C7.28424 5.98435 7.19995 6.18783 7.19995 6.40001V9.26881L6.16555 8.23441C6.09175 8.158 6.00348 8.09705 5.90587 8.05512C5.80827 8.0132 5.7033 7.99113 5.59707 7.99021C5.49085 7.98928 5.3855 8.00952 5.28719 8.04975C5.18887 8.08997 5.09955 8.14938 5.02443 8.22449C4.94932 8.2996 4.88992 8.38893 4.84969 8.48724C4.80947 8.58556 4.78923 8.6909 4.79015 8.79713C4.79107 8.90335 4.81314 9.00833 4.85507 9.10593C4.897 9.20353 4.95794 9.29181 5.03435 9.36561L7.43435 11.7656C7.58437 11.9156 7.78782 11.9998 7.99995 11.9998C8.21208 11.9998 8.41553 11.9156 8.56555 11.7656L10.9656 9.36561C11.1113 9.21472 11.1919 9.01264 11.1901 8.80289C11.1883 8.59313 11.1041 8.39248 10.9558 8.24415C10.8075 8.09582 10.6068 8.01169 10.3971 8.00987C10.1873 8.00804 9.98523 8.08868 9.83435 8.23441L8.79995 9.26881V6.40001Z" fill="#09090B"/>
</svg>
