<svg width="16" height="16" viewBox="0 0 16 16" fill="none" xmlns="http://www.w3.org/2000/svg">
<path fill-rule="evenodd" clip-rule="evenodd" d="M4.79995 1.60001C4.3756 1.60001 3.96864 1.76858 3.66858 2.06864C3.36852 2.36869 3.19995 2.77566 3.19995 3.20001V12.8C3.19995 13.2244 3.36852 13.6313 3.66858 13.9314C3.96864 14.2314 4.3756 14.4 4.79995 14.4H11.2C11.6243 14.4 12.0313 14.2314 12.3313 13.9314C12.6314 13.6313 12.8 13.2244 12.8 12.8V5.93121C12.7999 5.50689 12.6312 5.09999 12.3312 4.80001L9.59995 2.06881C9.29996 1.76873 8.89306 1.6001 8.46875 1.60001H4.79995ZM6.39995 9.60001C6.39995 9.38783 6.31567 9.18435 6.16564 9.03432C6.01561 8.88429 5.81212 8.80001 5.59995 8.80001C5.38778 8.80001 5.18429 8.88429 5.03427 9.03432C4.88424 9.18435 4.79995 9.38783 4.79995 9.60001V12C4.79995 12.2122 4.88424 12.4157 5.03427 12.5657C5.18429 12.7157 5.38778 12.8 5.59995 12.8C5.81212 12.8 6.01561 12.7157 6.16564 12.5657C6.31567 12.4157 6.39995 12.2122 6.39995 12V9.60001ZM7.99995 7.20001C8.21212 7.20001 8.41561 7.28429 8.56564 7.43432C8.71567 7.58435 8.79995 7.78783 8.79995 8.00001V12C8.79995 12.2122 8.71567 12.4157 8.56564 12.5657C8.41561 12.7157 8.21212 12.8 7.99995 12.8C7.78778 12.8 7.58429 12.7157 7.43427 12.5657C7.28424 12.4157 7.19995 12.2122 7.19995 12V8.00001C7.19995 7.78783 7.28424 7.58435 7.43427 7.43432C7.58429 7.28429 7.78778 7.20001 7.99995 7.20001ZM11.2 6.40001C11.2 6.18783 11.1157 5.98435 10.9656 5.83432C10.8156 5.68429 10.6121 5.60001 10.4 5.60001C10.1878 5.60001 9.98429 5.68429 9.83427 5.83432C9.68424 5.98435 9.59995 6.18783 9.59995 6.40001V12C9.59995 12.2122 9.68424 12.4157 9.83427 12.5657C9.98429 12.7157 10.1878 12.8 10.4 12.8C10.6121 12.8 10.8156 12.7157 10.9656 12.5657C11.1157 12.4157 11.2 12.2122 11.2 12V6.40001Z" fill="#09090B"/>
</svg>
