<svg width="16" height="16" viewBox="0 0 16 16" fill="none" xmlns="http://www.w3.org/2000/svg">
<path d="M4.8001 7.99999C4.8001 8.42434 4.63153 8.83131 4.33147 9.13136C4.03141 9.43142 3.62444 9.59999 3.2001 9.59999C2.77575 9.59999 2.36878 9.43142 2.06873 9.13136C1.76867 8.83131 1.6001 8.42434 1.6001 7.99999C1.6001 7.57565 1.76867 7.16868 2.06873 6.86862C2.36878 6.56857 2.77575 6.39999 3.2001 6.39999C3.62444 6.39999 4.03141 6.56857 4.33147 6.86862C4.63153 7.16868 4.8001 7.57565 4.8001 7.99999ZM9.6001 7.99999C9.6001 8.42434 9.43153 8.83131 9.13147 9.13136C8.83141 9.43142 8.42444 9.59999 8.0001 9.59999C7.57575 9.59999 7.16879 9.43142 6.86873 9.13136C6.56867 8.83131 6.4001 8.42434 6.4001 7.99999C6.4001 7.57565 6.56867 7.16868 6.86873 6.86862C7.16879 6.56857 7.57575 6.39999 8.0001 6.39999C8.42444 6.39999 8.83141 6.56857 9.13147 6.86862C9.43153 7.16868 9.6001 7.57565 9.6001 7.99999ZM12.8001 9.59999C13.2244 9.59999 13.6314 9.43142 13.9315 9.13136C14.2315 8.83131 14.4001 8.42434 14.4001 7.99999C14.4001 7.57565 14.2315 7.16868 13.9315 6.86862C13.6314 6.56857 13.2244 6.39999 12.8001 6.39999C12.3758 6.39999 11.9688 6.56857 11.6687 6.86862C11.3687 7.16868 11.2001 7.57565 11.2001 7.99999C11.2001 8.42434 11.3687 8.83131 11.6687 9.13136C11.9688 9.43142 12.3758 9.59999 12.8001 9.59999Z" fill="#09090B"/>
</svg>
