<svg width="16" height="16" viewBox="0 0 16 16" fill="none" xmlns="http://www.w3.org/2000/svg">
<path fill-rule="evenodd" clip-rule="evenodd" d="M2.3999 13.6C2.3999 13.3878 2.48419 13.1843 2.63422 13.0343C2.78425 12.8843 2.98773 12.8 3.1999 12.8H12.7999C13.0121 12.8 13.2156 12.8843 13.3656 13.0343C13.5156 13.1843 13.5999 13.3878 13.5999 13.6C13.5999 13.8122 13.5156 14.0157 13.3656 14.1657C13.2156 14.3157 13.0121 14.4 12.7999 14.4H3.1999C2.98773 14.4 2.78425 14.3157 2.63422 14.1657C2.48419 14.0157 2.3999 13.8122 2.3999 13.6ZM5.0343 7.43441C5.18432 7.28443 5.38777 7.20018 5.5999 7.20018C5.81203 7.20018 6.01548 7.28443 6.1655 7.43441L7.1999 8.46881V2.40001C7.1999 2.18783 7.28419 1.98435 7.43422 1.83432C7.58425 1.68429 7.78773 1.60001 7.9999 1.60001C8.21208 1.60001 8.41556 1.68429 8.56559 1.83432C8.71562 1.98435 8.7999 2.18783 8.7999 2.40001V8.46881L9.8343 7.43441C9.9081 7.358 9.99638 7.29705 10.094 7.25512C10.1916 7.2132 10.2966 7.19113 10.4028 7.19021C10.509 7.18928 10.6143 7.20952 10.7127 7.24975C10.811 7.28997 10.9003 7.34938 10.9754 7.42449C11.0505 7.4996 11.1099 7.58893 11.1502 7.68724C11.1904 7.78556 11.2106 7.8909 11.2097 7.99713C11.2088 8.10335 11.1867 8.20833 11.1448 8.30593C11.1029 8.40353 11.0419 8.49181 10.9655 8.56561L8.5655 10.9656C8.41548 11.1156 8.21203 11.1998 7.9999 11.1998C7.78777 11.1998 7.58432 11.1156 7.4343 10.9656L5.0343 8.56561C4.88433 8.41558 4.80007 8.21214 4.80007 8.00001C4.80007 7.78787 4.88433 7.58443 5.0343 7.43441Z" fill="#09090B"/>
</svg>
