<svg width="16" height="16" viewBox="0 0 16 16" fill="none" xmlns="http://www.w3.org/2000/svg">
<path fill-rule="evenodd" clip-rule="evenodd" d="M8.0001 14.4C9.69748 14.4 11.3253 13.7257 12.5256 12.5255C13.7258 11.3253 14.4001 9.69739 14.4001 8.00001C14.4001 6.30262 13.7258 4.67476 12.5256 3.47452C11.3253 2.27429 9.69748 1.60001 8.0001 1.60001C6.30271 1.60001 4.67485 2.27429 3.47461 3.47452C2.27438 4.67476 1.6001 6.30262 1.6001 8.00001C1.6001 9.69739 2.27438 11.3253 3.47461 12.5255C4.67485 13.7257 6.30271 14.4 8.0001 14.4ZM5.6001 7.20001C5.81227 7.20001 6.01575 7.11572 6.16578 6.96569C6.31581 6.81566 6.4001 6.61218 6.4001 6.40001C6.4001 6.18783 6.31581 5.98435 6.16578 5.83432C6.01575 5.68429 5.81227 5.60001 5.6001 5.60001C5.38792 5.60001 5.18444 5.68429 5.03441 5.83432C4.88438 5.98435 4.8001 6.18783 4.8001 6.40001C4.8001 6.61218 4.88438 6.81566 5.03441 6.96569C5.18444 7.11572 5.38792 7.20001 5.6001 7.20001ZM11.2001 6.40001C11.2001 6.61218 11.1158 6.81566 10.9658 6.96569C10.8158 7.11572 10.6123 7.20001 10.4001 7.20001C10.1879 7.20001 9.98444 7.11572 9.83441 6.96569C9.68438 6.81566 9.6001 6.61218 9.6001 6.40001C9.6001 6.18783 9.68438 5.98435 9.83441 5.83432C9.98444 5.68429 10.1879 5.60001 10.4001 5.60001C10.6123 5.60001 10.8158 5.68429 10.9658 5.83432C11.1158 5.98435 11.2001 6.18783 11.2001 6.40001ZM5.1713 11.1032C5.2456 11.1776 5.33383 11.2366 5.43095 11.2769C5.52806 11.3171 5.63217 11.3378 5.7373 11.3378C5.84243 11.3378 5.94653 11.3171 6.04365 11.2769C6.14077 11.2366 6.229 11.1776 6.3033 11.1032C6.75336 10.6533 7.3637 10.4005 8.0001 10.4005C8.63649 10.4005 9.24683 10.6533 9.6969 11.1032C9.84701 11.2533 10.0506 11.3377 10.2629 11.3377C10.4752 11.3377 10.6788 11.2533 10.8289 11.1032C10.979 10.9531 11.0633 10.7495 11.0633 10.5372C11.0633 10.3249 10.979 10.1213 10.8289 9.97121C10.4574 9.59966 10.0164 9.30493 9.53108 9.10384C9.0457 8.90276 8.52547 8.79926 8.0001 8.79926C7.47472 8.79926 6.95449 8.90276 6.46912 9.10384C5.98375 9.30493 5.54275 9.59966 5.1713 9.97121C5.09692 10.0455 5.03791 10.1337 4.99765 10.2309C4.95739 10.328 4.93667 10.4321 4.93667 10.5372C4.93667 10.6423 4.95739 10.7464 4.99765 10.8436C5.03791 10.9407 5.09692 11.0289 5.1713 11.1032Z" fill="#09090B"/>
</svg>
