<svg width="16" height="16" viewBox="0 0 16 16" fill="none" xmlns="http://www.w3.org/2000/svg">
<path fill-rule="evenodd" clip-rule="evenodd" d="M8.0001 14.4C9.69748 14.4 11.3253 13.7257 12.5256 12.5255C13.7258 11.3253 14.4001 9.69739 14.4001 8.00001C14.4001 6.30262 13.7258 4.67476 12.5256 3.47452C11.3253 2.27429 9.69748 1.60001 8.0001 1.60001C6.30271 1.60001 4.67485 2.27429 3.47461 3.47452C2.27438 4.67476 1.6001 6.30262 1.6001 8.00001C1.6001 9.69739 2.27438 11.3253 3.47461 12.5255C4.67485 13.7257 6.30271 14.4 8.0001 14.4ZM5.6001 7.20001C5.81227 7.20001 6.01575 7.11572 6.16578 6.96569C6.31581 6.81566 6.4001 6.61218 6.4001 6.40001C6.4001 6.18783 6.31581 5.98435 6.16578 5.83432C6.01575 5.68429 5.81227 5.60001 5.6001 5.60001C5.38792 5.60001 5.18444 5.68429 5.03441 5.83432C4.88438 5.98435 4.8001 6.18783 4.8001 6.40001C4.8001 6.61218 4.88438 6.81566 5.03441 6.96569C5.18444 7.11572 5.38792 7.20001 5.6001 7.20001ZM11.2001 6.40001C11.2001 6.61218 11.1158 6.81566 10.9658 6.96569C10.8158 7.11572 10.6123 7.20001 10.4001 7.20001C10.1879 7.20001 9.98444 7.11572 9.83441 6.96569C9.68438 6.81566 9.6001 6.61218 9.6001 6.40001C9.6001 6.18783 9.68438 5.98435 9.83441 5.83432C9.98444 5.68429 10.1879 5.60001 10.4001 5.60001C10.6123 5.60001 10.8158 5.68429 10.9658 5.83432C11.1158 5.98435 11.2001 6.18783 11.2001 6.40001ZM10.8289 10.828C10.9032 10.7537 10.9621 10.6654 11.0023 10.5684C11.0424 10.4713 11.0631 10.3672 11.0631 10.2621C11.063 10.157 11.0423 10.053 11.002 9.95594C10.9618 9.85887 10.9028 9.77068 10.8285 9.69641C10.7542 9.62213 10.6659 9.56322 10.5688 9.52304C10.4718 9.48287 10.3677 9.46221 10.2626 9.46224C10.1575 9.46228 10.0535 9.48302 9.95643 9.52326C9.85936 9.56351 9.77117 9.62248 9.6969 9.69681C9.24683 10.1467 8.63649 10.3995 8.0001 10.3995C7.3637 10.3995 6.75336 10.1467 6.3033 9.69681C6.15329 9.54669 5.9498 9.46232 5.73758 9.46224C5.52536 9.46217 5.32181 9.5464 5.1717 9.69641C5.02159 9.84641 4.93721 10.0499 4.93714 10.2621C4.93706 10.4743 5.02129 10.6779 5.1713 10.828C5.54275 11.1996 5.98375 11.4943 6.46912 11.6954C6.95449 11.8965 7.47472 12 8.0001 12C8.52547 12 9.0457 11.8965 9.53108 11.6954C10.0164 11.4943 10.4574 11.1996 10.8289 10.828Z" fill="#09090B"/>
</svg>
