<svg width="16" height="16" viewBox="0 0 16 16" fill="none" xmlns="http://www.w3.org/2000/svg">
<path fill-rule="evenodd" clip-rule="evenodd" d="M3.2665 7.20001H4.8233C4.8945 5.96321 5.1297 4.82401 5.4929 3.90561C4.9081 4.26394 4.40683 4.74336 4.0228 5.31161C3.63877 5.87986 3.38089 6.52376 3.2665 7.20001ZM8.0001 1.60001C6.30271 1.60001 4.67485 2.27429 3.47461 3.47452C2.27438 4.67476 1.6001 6.30262 1.6001 8.00001C1.6001 9.69739 2.27438 11.3253 3.47461 12.5255C4.67485 13.7257 6.30271 14.4 8.0001 14.4C9.69748 14.4 11.3253 13.7257 12.5256 12.5255C13.7258 11.3253 14.4001 9.69739 14.4001 8.00001C14.4001 6.30262 13.7258 4.67476 12.5256 3.47452C11.3253 2.27429 9.69748 1.60001 8.0001 1.60001ZM8.0001 3.20001C7.9393 3.20001 7.8145 3.22561 7.6281 3.40961C7.4377 3.59681 7.2305 3.90801 7.0385 4.35521C6.7273 5.08081 6.5001 6.06881 6.4257 7.20001H9.5745C9.5001 6.06881 9.2729 5.08081 8.9617 4.35521C8.7697 3.90721 8.5617 3.59681 8.3721 3.40961C8.1857 3.22561 8.0609 3.20001 8.0001 3.20001ZM11.1769 7.20001C11.1057 5.96321 10.8705 4.82401 10.5073 3.90561C11.0921 4.26394 11.5934 4.74336 11.9774 5.31161C12.3614 5.87986 12.6193 6.52376 12.7337 7.20001H11.1769ZM9.5745 8.80001H6.4257C6.5001 9.93121 6.7273 10.9192 7.0385 11.6448C7.2305 12.0928 7.4385 12.4032 7.6281 12.5904C7.8145 12.7744 7.9393 12.8 8.0001 12.8C8.0609 12.8 8.1857 12.7744 8.3721 12.5904C8.5625 12.4032 8.7705 12.092 8.9617 11.6448C9.2729 10.9192 9.5001 9.93121 9.5745 8.80001ZM10.5073 12.0944C10.8705 11.1768 11.1057 10.0368 11.1769 8.80001H12.7337C12.6193 9.47625 12.3614 10.1202 11.9774 10.6884C11.5934 11.2567 11.0921 11.7361 10.5073 12.0944ZM5.4929 12.0944C5.1297 11.176 4.8945 10.0368 4.8241 8.80001H3.2665C3.38089 9.47625 3.63877 10.1202 4.0228 10.6884C4.40683 11.2567 4.9081 11.7361 5.4929 12.0944Z" fill="#09090B"/>
</svg>
