<svg width="16" height="16" viewBox="0 0 16 16" fill="none" xmlns="http://www.w3.org/2000/svg">
<path fill-rule="evenodd" clip-rule="evenodd" d="M8.0001 14.4C9.69748 14.4 11.3253 13.7257 12.5256 12.5255C13.7258 11.3253 14.4001 9.69739 14.4001 8.00001C14.4001 6.30262 13.7258 4.67476 12.5256 3.47452C11.3253 2.27429 9.69748 1.60001 8.0001 1.60001C6.30271 1.60001 4.67485 2.27429 3.47461 3.47452C2.27438 4.67476 1.6001 6.30262 1.6001 8.00001C1.6001 9.69739 2.27438 11.3253 3.47461 12.5255C4.67485 13.7257 6.30271 14.4 8.0001 14.4ZM3.4657 6.42161C3.76273 5.57098 4.29273 4.82089 4.9953 4.25681C5.2097 4.58401 5.5793 4.80001 6.0001 4.80001C6.31836 4.80001 6.62358 4.92643 6.84863 5.15148C7.07367 5.37652 7.2001 5.68175 7.2001 6.00001V6.40001C7.2001 6.82435 7.36867 7.23132 7.66873 7.53138C7.96879 7.83143 8.37575 8.00001 8.8001 8.00001C9.22444 8.00001 9.63141 7.83143 9.93147 7.53138C10.2315 7.23132 10.4001 6.82435 10.4001 6.40001C10.4 6.04194 10.52 5.69419 10.7408 5.41238C10.9617 5.13057 11.2708 4.931 11.6185 4.84561C12.3819 5.71894 12.8019 6.84002 12.8001 8.00001C12.8001 8.27201 12.7777 8.54001 12.7337 8.80001H12.0001C11.5758 8.80001 11.1688 8.96858 10.8687 9.26864C10.5687 9.56869 10.4001 9.97566 10.4001 10.4V12.1576C9.67073 12.5796 8.84275 12.8012 8.0001 12.8V11.2C8.0001 10.7757 7.83153 10.3687 7.53147 10.0686C7.23141 9.76858 6.82444 9.60001 6.4001 9.60001C5.97575 9.60001 5.56878 9.43144 5.26873 9.13138C4.96867 8.83132 4.8001 8.42435 4.8001 8.00001C4.80024 7.6216 4.66626 7.2554 4.42196 6.96643C4.17766 6.67746 3.83885 6.48442 3.4657 6.42161Z" fill="#09090B"/>
</svg>
