<svg width="16" height="16" viewBox="0 0 16 16" fill="none" xmlns="http://www.w3.org/2000/svg">
<g clip-path="url(#clip0_308_4790)">
<g clip-path="url(#clip1_308_4790)">
<path d="M9.33333 16H0V15.3333C0 13.3333 1.46667 11.4667 3.4 10.9333C2.4 9.6 1.86667 8 1.86667 6.33333C1.86667 4.26667 2.66667 2.33333 4.13333 0.866667L4.6 0.4L9.6 5.4L11.5333 3.46667C11.4667 3.13333 11.3333 2.73333 11.3333 2.33333C11.3333 1.06667 12.4 0 13.6667 0C14.9333 0 16 1.06667 16 2.33333C16 3.6 14.9333 4.66667 13.6667 4.66667C13.2667 4.66667 12.8667 4.53333 12.5333 4.4L10.6 6.33333L15.6 11.3333L15.1333 11.8C13.6667 13.2667 11.7333 14.0667 9.66667 14.0667C9.46667 14.0667 9.26667 14.0667 9.13333 14.0667C9.26667 14.4 9.33333 14.8667 9.33333 15.3333V16ZM1.4 14.6667H7.86667C7.8 14.4 7.66667 14.0667 7.4 13.7333C6.26667 13.4 5.26667 12.8667 4.4 12.0667C3.06667 12.2 1.73333 13.3333 1.4 14.6667ZM4.66667 2.33333C3.73333 3.46667 3.26667 4.86667 3.26667 6.33333C3.26667 8.06667 3.93333 9.66667 5.13333 10.8667C6.33333 12.0667 7.93333 12.7333 9.66667 12.7333C11.1333 12.7333 12.5333 12.2 13.6667 11.3333L4.66667 2.33333ZM13.6667 1.33333C13.1333 1.33333 12.6667 1.8 12.6667 2.33333C12.6667 2.86667 13.1333 3.33333 13.6667 3.33333C14.2 3.33333 14.6667 2.86667 14.6667 2.33333C14.6667 1.8 14.2 1.33333 13.6667 1.33333Z" fill="black"/>
</g>
</g>
<defs>
<clipPath id="clip0_308_4790">
<rect width="16" height="16" fill="white"/>
</clipPath>
<clipPath id="clip1_308_4790">
<rect width="16" height="16" fill="white"/>
</clipPath>
</defs>
</svg>
