<svg width="16" height="16" viewBox="0 0 16 16" fill="none" xmlns="http://www.w3.org/2000/svg">
<path fill-rule="evenodd" clip-rule="evenodd" d="M7.1999 2.40001C7.1999 2.18783 7.28419 1.98435 7.43422 1.83432C7.58425 1.68429 7.78773 1.60001 7.9999 1.60001C8.21208 1.60001 8.41556 1.68429 8.56559 1.83432C8.71562 1.98435 8.7999 2.18783 8.7999 2.40001V6.80001C8.7999 6.90609 8.84204 7.00783 8.91706 7.08285C8.99207 7.15786 9.09382 7.20001 9.1999 7.20001C9.30599 7.20001 9.40773 7.15786 9.48275 7.08285C9.55776 7.00783 9.5999 6.90609 9.5999 6.80001V3.20001C9.5999 2.98783 9.68419 2.78435 9.83422 2.63432C9.98425 2.48429 10.1877 2.40001 10.3999 2.40001C10.6121 2.40001 10.8156 2.48429 10.9656 2.63432C11.1156 2.78435 11.1999 2.98783 11.1999 3.20001V6.80001C11.1999 6.90609 11.242 7.00783 11.3171 7.08285C11.3921 7.15786 11.4938 7.20001 11.5999 7.20001C11.706 7.20001 11.8077 7.15786 11.8827 7.08285C11.9578 7.00783 11.9999 6.90609 11.9999 6.80001V4.80001C11.9999 4.58783 12.0842 4.38435 12.2342 4.23432C12.3842 4.08429 12.5877 4.00001 12.7999 4.00001C13.0121 4.00001 13.2156 4.08429 13.3656 4.23432C13.5156 4.38435 13.5999 4.58783 13.5999 4.80001V8.80001C13.5999 9.53541 13.4551 10.2636 13.1736 10.943C12.8922 11.6225 12.4797 12.2398 11.9597 12.7598C11.4397 13.2798 10.8224 13.6923 10.1429 13.9737C9.46351 14.2552 8.7353 14.4 7.9999 14.4C7.2645 14.4 6.5363 14.2552 5.85688 13.9737C5.17745 13.6923 4.56011 13.2798 4.0401 12.7598C3.5201 12.2398 3.1076 11.6225 2.82618 10.943C2.54475 10.2636 2.3999 9.53541 2.3999 8.80001V7.20001C2.3999 6.98783 2.48419 6.78435 2.63422 6.63432C2.78425 6.48429 2.98773 6.40001 3.1999 6.40001C3.41208 6.40001 3.61556 6.48429 3.76559 6.63432C3.91562 6.78435 3.9999 6.98783 3.9999 7.20001V9.20001C3.9999 9.30609 4.04205 9.40783 4.11706 9.48285C4.19207 9.55786 4.29382 9.60001 4.3999 9.60001C4.50599 9.60001 4.60773 9.55786 4.68274 9.48285C4.75776 9.40783 4.7999 9.30609 4.7999 9.20001V3.20001C4.7999 2.98783 4.88419 2.78435 5.03422 2.63432C5.18425 2.48429 5.38773 2.40001 5.5999 2.40001C5.81208 2.40001 6.01556 2.48429 6.16559 2.63432C6.31562 2.78435 6.3999 2.98783 6.3999 3.20001V6.80001C6.3999 6.90609 6.44204 7.00783 6.51706 7.08285C6.59207 7.15786 6.69382 7.20001 6.7999 7.20001C6.90599 7.20001 7.00773 7.15786 7.08275 7.08285C7.15776 7.00783 7.1999 6.90609 7.1999 6.80001V2.40001Z" fill="#09090B"/>
</svg>
