<svg width="16" height="16" viewBox="0 0 16 16" fill="none" xmlns="http://www.w3.org/2000/svg">
<path fill-rule="evenodd" clip-rule="evenodd" d="M7.3945 2.424C7.6003 2.47556 7.7772 2.60676 7.88627 2.78875C7.99534 2.97073 8.02765 3.18859 7.9761 3.3944L7.6241 4.8H9.9761L10.4241 3.0056C10.449 2.90304 10.494 2.80643 10.5564 2.72133C10.6188 2.63622 10.6974 2.56431 10.7878 2.50973C10.8781 2.45516 10.9783 2.41899 11.0827 2.40332C11.1871 2.38765 11.2935 2.39279 11.3959 2.41844C11.4983 2.44408 11.5946 2.48973 11.6792 2.55275C11.7639 2.61578 11.8352 2.69493 11.8891 2.78564C11.9431 2.87636 11.9785 2.97685 11.9934 3.08133C12.0084 3.18581 12.0025 3.29221 11.9761 3.3944L11.6241 4.8H13.6001C13.8123 4.8 14.0158 4.88428 14.1658 5.03431C14.3158 5.18434 14.4001 5.38782 14.4001 5.6C14.4001 5.81217 14.3158 6.01565 14.1658 6.16568C14.0158 6.31571 13.8123 6.4 13.6001 6.4H11.2241L10.4241 9.6H12.0001C12.2123 9.6 12.4158 9.68428 12.5658 9.83431C12.7158 9.98434 12.8001 10.1878 12.8001 10.4C12.8001 10.6122 12.7158 10.8157 12.5658 10.9657C12.4158 11.1157 12.2123 11.2 12.0001 11.2H10.0241L9.5761 12.9936C9.55211 13.0971 9.50775 13.1947 9.44563 13.2809C9.3835 13.367 9.30484 13.4399 9.21423 13.4953C9.12363 13.5508 9.0229 13.5876 8.91791 13.6037C8.81292 13.6198 8.70578 13.6148 8.60274 13.589C8.4997 13.5633 8.40282 13.5172 8.31776 13.4536C8.23269 13.39 8.16114 13.3101 8.10728 13.2186C8.05341 13.1271 8.01832 13.0257 8.00404 12.9205C7.98976 12.8152 7.99658 12.7082 8.0241 12.6056L8.3761 11.2H6.0241L5.5761 12.9936C5.55211 13.0971 5.50775 13.1947 5.44563 13.2809C5.3835 13.367 5.30484 13.4399 5.21423 13.4953C5.12363 13.5508 5.0229 13.5876 4.91791 13.6037C4.81292 13.6198 4.70578 13.6148 4.60274 13.589C4.4997 13.5633 4.40282 13.5172 4.31776 13.4536C4.23269 13.39 4.16114 13.3101 4.10728 13.2186C4.05341 13.1271 4.01832 13.0257 4.00404 12.9205C3.98976 12.8152 3.99658 12.7082 4.0241 12.6056L4.3761 11.2H2.4001C2.18792 11.2 1.98444 11.1157 1.83441 10.9657C1.68438 10.8157 1.6001 10.6122 1.6001 10.4C1.6001 10.1878 1.68438 9.98434 1.83441 9.83431C1.98444 9.68428 2.18792 9.6 2.4001 9.6H4.7761L5.5761 6.4H4.0001C3.78792 6.4 3.58444 6.31571 3.43441 6.16568C3.28438 6.01565 3.2001 5.81217 3.2001 5.6C3.2001 5.38782 3.28438 5.18434 3.43441 5.03431C3.58444 4.88428 3.78792 4.8 4.0001 4.8H5.9761L6.4241 3.0056C6.47566 2.79979 6.60686 2.6229 6.78885 2.51383C6.97083 2.40476 7.18869 2.37244 7.3945 2.424ZM7.2241 6.4L6.4241 9.6H8.7745L9.5745 6.4H7.2249H7.2241Z" fill="#09090B"/>
</svg>
