<svg width="16" height="16" viewBox="0 0 16 16" fill="none" xmlns="http://www.w3.org/2000/svg">
<path d="M6.96563 5.83441C6.81475 5.68868 6.61267 5.60804 6.40291 5.60987C6.19315 5.61169 5.9925 5.69583 5.84418 5.84415C5.69585 5.99248 5.61172 6.19313 5.60989 6.40289C5.60807 6.61264 5.68871 6.81472 5.83443 6.96561L7.43443 8.56561C7.58446 8.71558 7.7879 8.79984 8.00003 8.79984C8.21216 8.79984 8.41561 8.71558 8.56563 8.56561L10.1656 6.96561C10.3114 6.81472 10.392 6.61264 10.3902 6.40289C10.3883 6.19313 10.3042 5.99248 10.1559 5.84415C10.0076 5.69583 9.80691 5.61169 9.59715 5.60987C9.3874 5.60804 9.18531 5.68868 9.03443 5.83441L8.80003 6.06881V2.40001C8.80003 2.18783 8.71575 1.98435 8.56572 1.83432C8.41569 1.68429 8.21221 1.60001 8.00003 1.60001C7.78786 1.60001 7.58438 1.68429 7.43435 1.83432C7.28432 1.98435 7.20003 2.18783 7.20003 2.40001V6.06881L6.96563 5.83441Z" fill="#09090B"/>
<path d="M2.3999 3.99999C2.3999 3.57565 2.56847 3.16868 2.86853 2.86862C3.16859 2.56856 3.57556 2.39999 3.9999 2.39999H4.7999C5.01208 2.39999 5.21556 2.48428 5.36559 2.63431C5.51562 2.78434 5.5999 2.98782 5.5999 3.19999C5.5999 3.41217 5.51562 3.61565 5.36559 3.76568C5.21556 3.91571 5.01208 3.99999 4.7999 3.99999H3.9999V9.59999H5.5999L6.3999 11.2H9.5999L10.3999 9.59999H11.9999V3.99999H11.1999C10.9877 3.99999 10.7842 3.91571 10.6342 3.76568C10.4842 3.61565 10.3999 3.41217 10.3999 3.19999C10.3999 2.98782 10.4842 2.78434 10.6342 2.63431C10.7842 2.48428 10.9877 2.39999 11.1999 2.39999H11.9999C12.4242 2.39999 12.8312 2.56856 13.1313 2.86862C13.4313 3.16868 13.5999 3.57565 13.5999 3.99999V12C13.5999 12.4243 13.4313 12.8313 13.1313 13.1314C12.8312 13.4314 12.4242 13.6 11.9999 13.6H3.9999C3.57556 13.6 3.16859 13.4314 2.86853 13.1314C2.56847 12.8313 2.3999 12.4243 2.3999 12V3.99999Z" fill="#09090B"/>
</svg>
