<svg width="16" height="16" viewBox="0 0 16 16" fill="none" xmlns="http://www.w3.org/2000/svg">
<path fill-rule="evenodd" clip-rule="evenodd" d="M3.9999 2.39999C3.57556 2.39999 3.16859 2.56856 2.86853 2.86862C2.56847 3.16868 2.3999 3.57565 2.3999 3.99999V12C2.3999 12.4243 2.56847 12.8313 2.86853 13.1314C3.16859 13.4314 3.57556 13.6 3.9999 13.6H11.9999C12.4242 13.6 12.8312 13.4314 13.1313 13.1314C13.4313 12.8313 13.5999 12.4243 13.5999 12V3.99999C13.5999 3.57565 13.4313 3.16868 13.1313 2.86862C12.8312 2.56856 12.4242 2.39999 11.9999 2.39999H3.9999ZM3.9999 3.99999H11.9999V9.59999H10.3999L9.5999 11.2H6.3999L5.5999 9.59999H3.9999V3.99999Z" fill="#09090B"/>
</svg>
