<svg width="16" height="16" viewBox="0 0 16 16" fill="none" xmlns="http://www.w3.org/2000/svg">
<path d="M5.33341 2.66667H4.00008C3.64646 2.66667 3.30732 2.80714 3.05727 3.05719C2.80722 3.30724 2.66675 3.64638 2.66675 4V12C2.66675 12.3536 2.80722 12.6928 3.05727 12.9428C3.30732 13.1929 3.64646 13.3333 4.00008 13.3333H12.0001C12.3537 13.3333 12.6928 13.1929 12.9429 12.9428C13.1929 12.6928 13.3334 12.3536 13.3334 12V4C13.3334 3.64638 13.1929 3.30724 12.9429 3.05719C12.6928 2.80714 12.3537 2.66667 12.0001 2.66667H10.6667M8.00008 2V7.33333M8.00008 7.33333L10.0001 5.33333M8.00008 7.33333L6.00008 5.33333M2.66675 8.66667H4.39075C4.56754 8.6667 4.73709 8.73697 4.86208 8.862L6.47141 10.4713C6.59641 10.5964 6.76595 10.6666 6.94275 10.6667H9.05742C9.23421 10.6666 9.40375 10.5964 9.52875 10.4713L11.1381 8.862C11.2631 8.73697 11.4326 8.6667 11.6094 8.66667H13.3334" stroke="#09090B" stroke-width="1.5" stroke-linecap="round" stroke-linejoin="round"/>
</svg>
