<svg width="16" height="16" viewBox="0 0 16 16" fill="none" xmlns="http://www.w3.org/2000/svg">
<path fill-rule="evenodd" clip-rule="evenodd" d="M8.3969 1.70561C8.27605 1.63658 8.13928 1.60027 8.0001 1.60027C7.86092 1.60027 7.72415 1.63658 7.6033 1.70561L2.0033 4.90561C1.85023 4.99317 1.73039 5.12885 1.6624 5.29156C1.59441 5.45427 1.58209 5.63488 1.62734 5.80531C1.6726 5.97575 1.77289 6.12645 1.91264 6.234C2.05239 6.34155 2.22376 6.39991 2.4001 6.40001V12C2.18792 12 1.98444 12.0843 1.83441 12.2343C1.68438 12.3844 1.6001 12.5878 1.6001 12.8C1.6001 13.0122 1.68438 13.2157 1.83441 13.3657C1.98444 13.5157 2.18792 13.6 2.4001 13.6H13.6001C13.8123 13.6 14.0158 13.5157 14.1658 13.3657C14.3158 13.2157 14.4001 13.0122 14.4001 12.8C14.4001 12.5878 14.3158 12.3844 14.1658 12.2343C14.0158 12.0843 13.8123 12 13.6001 12V6.40001C13.7764 6.39991 13.9478 6.34155 14.0876 6.234C14.2273 6.12645 14.3276 5.97575 14.3729 5.80531C14.4181 5.63488 14.4058 5.45427 14.3378 5.29156C14.2698 5.12885 14.15 4.99317 13.9969 4.90561L8.3969 1.70561ZM4.8001 7.20001C4.58792 7.20001 4.38444 7.28429 4.23441 7.43432C4.08438 7.58435 4.0001 7.78783 4.0001 8.00001V10.4C4.0001 10.6122 4.08438 10.8157 4.23441 10.9657C4.38444 11.1157 4.58792 11.2 4.8001 11.2C5.01227 11.2 5.21575 11.1157 5.36578 10.9657C5.51581 10.8157 5.6001 10.6122 5.6001 10.4V8.00001C5.6001 7.78783 5.51581 7.58435 5.36578 7.43432C5.21575 7.28429 5.01227 7.20001 4.8001 7.20001ZM7.2001 8.00001C7.2001 7.78783 7.28438 7.58435 7.43441 7.43432C7.58444 7.28429 7.78792 7.20001 8.0001 7.20001C8.21227 7.20001 8.41575 7.28429 8.56578 7.43432C8.71581 7.58435 8.8001 7.78783 8.8001 8.00001V10.4C8.8001 10.6122 8.71581 10.8157 8.56578 10.9657C8.41575 11.1157 8.21227 11.2 8.0001 11.2C7.78792 11.2 7.58444 11.1157 7.43441 10.9657C7.28438 10.8157 7.2001 10.6122 7.2001 10.4V8.00001ZM11.2001 7.20001C10.9879 7.20001 10.7844 7.28429 10.6344 7.43432C10.4844 7.58435 10.4001 7.78783 10.4001 8.00001V10.4C10.4001 10.6122 10.4844 10.8157 10.6344 10.9657C10.7844 11.1157 10.9879 11.2 11.2001 11.2C11.4123 11.2 11.6158 11.1157 11.7658 10.9657C11.9158 10.8157 12.0001 10.6122 12.0001 10.4V8.00001C12.0001 7.78783 11.9158 7.58435 11.7658 7.43432C11.6158 7.28429 11.4123 7.20001 11.2001 7.20001Z" fill="#09090B"/>
</svg>
