<svg width="16" height="16" viewBox="0 0 16 16" fill="none" xmlns="http://www.w3.org/2000/svg">
<path d="M8.8001 2.40001C8.8001 2.18783 8.71581 1.98435 8.56578 1.83432C8.41575 1.68429 8.21227 1.60001 8.0001 1.60001C7.78792 1.60001 7.58444 1.68429 7.43441 1.83432C7.28438 1.98435 7.2001 2.18783 7.2001 2.40001V3.20001C7.2001 3.41218 7.28438 3.61566 7.43441 3.76569C7.58444 3.91572 7.78792 4.00001 8.0001 4.00001C8.21227 4.00001 8.41575 3.91572 8.56578 3.76569C8.71581 3.61566 8.8001 3.41218 8.8001 3.20001V2.40001ZM12.5257 4.60561C12.6714 4.45472 12.7521 4.25264 12.7502 4.04289C12.7484 3.83313 12.6643 3.63248 12.516 3.48415C12.3676 3.33582 12.167 3.25169 11.9572 3.24987C11.7475 3.24804 11.5454 3.32868 11.3945 3.47441L10.8289 4.04001C10.6832 4.19089 10.6025 4.39297 10.6044 4.60273C10.6062 4.81248 10.6903 5.01313 10.8386 5.16146C10.987 5.30979 11.1876 5.39392 11.3974 5.39575C11.6071 5.39757 11.8092 5.31693 11.9601 5.17121L12.5257 4.60561ZM14.4001 8.00001C14.4001 8.21218 14.3158 8.41566 14.1658 8.56569C14.0158 8.71572 13.8123 8.80001 13.6001 8.80001H12.8001C12.5879 8.80001 12.3844 8.71572 12.2344 8.56569C12.0844 8.41566 12.0001 8.21218 12.0001 8.00001C12.0001 7.78783 12.0844 7.58435 12.2344 7.43432C12.3844 7.28429 12.5879 7.20001 12.8001 7.20001H13.6001C13.8123 7.20001 14.0158 7.28429 14.1658 7.43432C14.3158 7.58435 14.4001 7.78783 14.4001 8.00001ZM4.0401 5.17121C4.1139 5.24761 4.20217 5.30856 4.29977 5.35049C4.39738 5.39241 4.50235 5.41448 4.60858 5.41541C4.7148 5.41633 4.82014 5.39609 4.91846 5.35586C5.01678 5.31564 5.1061 5.25624 5.18121 5.18112C5.25633 5.10601 5.31573 5.01669 5.35596 4.91837C5.39618 4.82005 5.41642 4.71471 5.4155 4.60848C5.41457 4.50226 5.39251 4.39729 5.35058 4.29968C5.30865 4.20208 5.24771 4.1138 5.1713 4.04001L4.6057 3.47441C4.45482 3.32868 4.25273 3.24804 4.04298 3.24987C3.83322 3.25169 3.63257 3.33582 3.48424 3.48415C3.33592 3.63248 3.25178 3.83313 3.24996 4.04289C3.24814 4.25264 3.32877 4.45472 3.4745 4.60561L4.0401 5.17121ZM4.0001 8.00001C4.0001 8.21218 3.91581 8.41566 3.76578 8.56569C3.61575 8.71572 3.41227 8.80001 3.2001 8.80001H2.4001C2.18792 8.80001 1.98444 8.71572 1.83441 8.56569C1.68438 8.41566 1.6001 8.21218 1.6001 8.00001C1.6001 7.78783 1.68438 7.58435 1.83441 7.43432C1.98444 7.28429 2.18792 7.20001 2.4001 7.20001H3.2001C3.41227 7.20001 3.61575 7.28429 3.76578 7.43432C3.91581 7.58435 4.0001 7.78783 4.0001 8.00001ZM6.4001 12.8V12H9.6001V12.8C9.6001 13.2244 9.43153 13.6313 9.13147 13.9314C8.83141 14.2314 8.42444 14.4 8.0001 14.4C7.57575 14.4 7.16879 14.2314 6.86873 13.9314C6.56867 13.6313 6.4001 13.2244 6.4001 12.8ZM9.6001 11.2C9.6121 10.928 9.7665 10.6832 9.9817 10.5128C10.5038 10.101 10.8847 9.53678 11.0714 8.89853C11.2581 8.26028 11.2413 7.57973 11.0234 6.95147C10.8054 6.3232 10.3972 5.77844 9.85538 5.3929C9.31356 5.00735 8.66509 4.80019 8.0001 4.80019C7.33511 4.80019 6.68664 5.00735 6.14482 5.3929C5.603 5.77844 5.19476 6.3232 4.97682 6.95147C4.75889 7.57973 4.7421 8.26028 4.92878 8.89853C5.11547 9.53678 5.49635 10.101 6.0185 10.5128C6.2345 10.6832 6.3881 10.928 6.3993 11.2H9.6009H9.6001Z" fill="#09090B"/>
</svg>
