<svg width="16" height="16" viewBox="0 0 16 16" fill="none" xmlns="http://www.w3.org/2000/svg">
<path fill-rule="evenodd" clip-rule="evenodd" d="M10.0689 3.66879C10.2165 3.51597 10.3931 3.39408 10.5883 3.31023C10.7835 3.22637 10.9934 3.18224 11.2059 3.18039C11.4183 3.17854 11.629 3.21903 11.8256 3.29948C12.0223 3.37993 12.2009 3.49873 12.3511 3.64896C12.5014 3.79919 12.6202 3.97783 12.7006 4.17446C12.7811 4.3711 12.8216 4.58179 12.8197 4.79423C12.8179 5.00668 12.7737 5.21663 12.6899 5.41184C12.606 5.60704 12.4841 5.7836 12.3313 5.93119L9.93131 8.33119C9.63127 8.63114 9.22438 8.79965 8.80011 8.79965C8.37585 8.79965 7.96896 8.63114 7.66891 8.33119C7.51803 8.18546 7.31595 8.10483 7.10619 8.10665C6.89644 8.10847 6.69579 8.19261 6.54746 8.34094C6.39913 8.48926 6.315 8.68991 6.31317 8.89967C6.31135 9.10943 6.39199 9.31151 6.53771 9.46239C7.1378 10.0623 7.95159 10.3993 8.80011 10.3993C9.64864 10.3993 10.4624 10.0623 11.0625 9.46239L13.4625 7.06239C14.0454 6.45886 14.368 5.65054 14.3607 4.81151C14.3534 3.97248 14.0168 3.16988 13.4235 2.57657C12.8302 1.98327 12.0276 1.64672 11.1886 1.63943C10.3496 1.63214 9.54124 1.95468 8.93771 2.53759L7.73771 3.73759C7.6613 3.81139 7.60036 3.89966 7.55843 3.99727C7.51651 4.09487 7.49444 4.19985 7.49351 4.30607C7.49259 4.41229 7.51283 4.51764 7.55306 4.61595C7.59328 4.71427 7.65268 4.80359 7.7278 4.87871C7.80291 4.95382 7.89223 5.01322 7.99055 5.05345C8.08887 5.09367 8.19421 5.11391 8.30043 5.11299C8.40666 5.11207 8.51163 5.09 8.60924 5.04807C8.70684 5.00615 8.79512 4.9452 8.86891 4.86879L10.0689 3.66879ZM6.06891 7.66879C6.36896 7.36884 6.77585 7.20033 7.20011 7.20033C7.62438 7.20033 8.03127 7.36884 8.33131 7.66879C8.40511 7.7452 8.49339 7.80614 8.59099 7.84807C8.68859 7.89 8.79357 7.91207 8.89979 7.91299C9.00602 7.91391 9.11136 7.89367 9.20968 7.85345C9.30799 7.81322 9.39732 7.75382 9.47243 7.67871C9.54754 7.60359 9.60695 7.51427 9.64717 7.41595C9.6874 7.31764 9.70764 7.21229 9.70671 7.10607C9.70579 6.99985 9.68372 6.89487 9.64179 6.79727C9.59987 6.69966 9.53892 6.61139 9.46251 6.53759C8.86242 5.93768 8.04864 5.60067 7.20011 5.60067C6.35159 5.60067 5.5378 5.93768 4.93771 6.53759L2.53771 8.93759C2.23208 9.23278 1.9883 9.58588 1.82059 9.9763C1.65288 10.3667 1.5646 10.7866 1.56091 11.2115C1.55722 11.6364 1.63819 12.0578 1.79908 12.451C1.95998 12.8443 2.19759 13.2016 2.49805 13.5021C2.79851 13.8025 3.15579 14.0401 3.54906 14.201C3.94233 14.3619 4.3637 14.4429 4.7886 14.4392C5.21349 14.4355 5.63339 14.3472 6.02381 14.1795C6.41422 14.0118 6.76732 13.768 7.06251 13.4624L8.26251 12.2624C8.33892 12.1886 8.39987 12.1003 8.44179 12.0027C8.48372 11.9051 8.50579 11.8001 8.50671 11.6939C8.50764 11.5877 8.4874 11.4823 8.44717 11.384C8.40695 11.2857 8.34754 11.1964 8.27243 11.1213C8.19731 11.0462 8.10799 10.9868 8.00968 10.9465C7.91136 10.9063 7.80602 10.8861 7.69979 10.887C7.59357 10.8879 7.48859 10.91 7.39099 10.9519C7.29339 10.9938 7.20511 11.0548 7.13131 11.1312L5.93131 12.3312C5.78372 12.484 5.60717 12.6059 5.41196 12.6898C5.21675 12.7736 5.0068 12.8177 4.79436 12.8196C4.58191 12.8214 4.37122 12.781 4.17459 12.7005C3.97795 12.6201 3.79931 12.5013 3.64908 12.351C3.49885 12.2008 3.38005 12.0222 3.2996 11.8255C3.21915 11.6289 3.17867 11.4182 3.18051 11.2057C3.18236 10.9933 3.2265 10.7833 3.31035 10.5881C3.39421 10.3929 3.5161 10.2164 3.66891 10.0688L6.06891 7.66879Z" fill="#09090B"/>
</svg>
