<svg width="16" height="16" viewBox="0 0 16 16" fill="none" xmlns="http://www.w3.org/2000/svg">
<path fill-rule="evenodd" clip-rule="evenodd" d="M5.5999 3.2C5.5999 2.56348 5.85276 1.95303 6.30285 1.50295C6.75293 1.05286 7.36338 0.800003 7.9999 0.800003C8.63642 0.800003 9.24687 1.05286 9.69696 1.50295C10.147 1.95303 10.3999 2.56348 10.3999 3.2V6.4C10.3999 7.03652 10.147 7.64697 9.69696 8.09706C9.24687 8.54715 8.63642 8.8 7.9999 8.8C7.36338 8.8 6.75293 8.54715 6.30285 8.09706C5.85276 7.64697 5.5999 7.03652 5.5999 6.4V3.2ZM8.7999 11.944C10.1329 11.7514 11.3518 11.085 12.2334 10.0668C13.1149 9.04858 13.6001 7.74681 13.5999 6.4C13.5999 6.18783 13.5156 5.98435 13.3656 5.83432C13.2156 5.68429 13.0121 5.6 12.7999 5.6C12.5877 5.6 12.3842 5.68429 12.2342 5.83432C12.0842 5.98435 11.9999 6.18783 11.9999 6.4C11.9999 7.46087 11.5785 8.47828 10.8283 9.22843C10.0782 9.97858 9.06077 10.4 7.9999 10.4C6.93904 10.4 5.92162 9.97858 5.17148 9.22843C4.42133 8.47828 3.9999 7.46087 3.9999 6.4C3.9999 6.18783 3.91562 5.98435 3.76559 5.83432C3.61556 5.68429 3.41208 5.6 3.1999 5.6C2.98773 5.6 2.78425 5.68429 2.63422 5.83432C2.48419 5.98435 2.3999 6.18783 2.3999 6.4C2.39972 7.74681 2.88486 9.04858 3.76643 10.0668C4.64799 11.085 5.86693 11.7514 7.1999 11.944V13.6H4.7999C4.58773 13.6 4.38425 13.6843 4.23422 13.8343C4.08419 13.9843 3.9999 14.1878 3.9999 14.4C3.9999 14.6122 4.08419 14.8157 4.23422 14.9657C4.38425 15.1157 4.58773 15.2 4.7999 15.2H11.1999C11.4121 15.2 11.6156 15.1157 11.7656 14.9657C11.9156 14.8157 11.9999 14.6122 11.9999 14.4C11.9999 14.1878 11.9156 13.9843 11.7656 13.8343C11.6156 13.6843 11.4121 13.6 11.1999 13.6H8.7999V11.944Z" fill="#09090B"/>
</svg>
