<svg width="16" height="16" viewBox="0 0 16 16" fill="none" xmlns="http://www.w3.org/2000/svg">
<path fill-rule="evenodd" clip-rule="evenodd" d="M6.3999 3.20001C5.76338 3.20001 5.15293 3.45286 4.70285 3.90295C4.25276 4.35304 3.9999 4.96349 3.9999 5.60001V8.80001C3.9999 9.86087 4.42133 10.8783 5.17148 11.6284C5.92162 12.3786 6.93904 12.8 7.9999 12.8C9.06077 12.8 10.0782 12.3786 10.8283 11.6284C11.5785 10.8783 11.9999 9.86087 11.9999 8.80001V5.60001C11.9999 5.38783 12.0842 5.18435 12.2342 5.03432C12.3842 4.88429 12.5877 4.80001 12.7999 4.80001C13.0121 4.80001 13.2156 4.88429 13.3656 5.03432C13.5156 5.18435 13.5999 5.38783 13.5999 5.60001V8.80001C13.5999 9.53541 13.4551 10.2636 13.1736 10.943C12.8922 11.6225 12.4797 12.2398 11.9597 12.7598C11.4397 13.2798 10.8224 13.6923 10.1429 13.9737C9.46351 14.2552 8.7353 14.4 7.9999 14.4C7.2645 14.4 6.5363 14.2552 5.85688 13.9737C5.17745 13.6923 4.56011 13.2798 4.0401 12.7598C3.5201 12.2398 3.1076 11.6225 2.82618 10.943C2.54475 10.2636 2.3999 9.53541 2.3999 8.80001V5.60001C2.3999 4.53914 2.82133 3.52172 3.57148 2.77158C4.32162 2.02143 5.33904 1.60001 6.3999 1.60001C7.46077 1.60001 8.47818 2.02143 9.22833 2.77158C9.97848 3.52172 10.3999 4.53914 10.3999 5.60001V8.80001C10.3999 9.43653 10.147 10.047 9.69696 10.4971C9.24687 10.9472 8.63642 11.2 7.9999 11.2C7.36338 11.2 6.75293 10.9472 6.30285 10.4971C5.85276 10.047 5.5999 9.43653 5.5999 8.80001V5.60001C5.5999 5.38783 5.68419 5.18435 5.83422 5.03432C5.98425 4.88429 6.18773 4.80001 6.3999 4.80001C6.61208 4.80001 6.81556 4.88429 6.96559 5.03432C7.11562 5.18435 7.1999 5.38783 7.1999 5.60001V8.80001C7.1999 9.01218 7.28419 9.21566 7.43422 9.36569C7.58425 9.51572 7.78773 9.60001 7.9999 9.60001C8.21208 9.60001 8.41556 9.51572 8.56559 9.36569C8.71562 9.21566 8.7999 9.01218 8.7999 8.80001V5.60001C8.7999 4.96349 8.54705 4.35304 8.09696 3.90295C7.64687 3.45286 7.03642 3.20001 6.3999 3.20001Z" fill="#09090B"/>
</svg>
