<svg width="16" height="16" viewBox="0 0 16 16" fill="none" xmlns="http://www.w3.org/2000/svg">
<path d="M11.5312 5.6L14.1656 2.9656C14.3114 2.81472 14.392 2.61264 14.3902 2.40288C14.3884 2.19312 14.3042 1.99247 14.1559 1.84415C14.0076 1.69582 13.8069 1.61169 13.5972 1.60986C13.3874 1.60804 13.1853 1.68868 13.0344 1.8344L10.4 4.4688V3.2C10.4 2.98783 10.3158 2.78435 10.1657 2.63432C10.0157 2.48429 9.81222 2.4 9.60005 2.4C9.38788 2.4 9.18439 2.48429 9.03436 2.63432C8.88433 2.78435 8.80005 2.98783 8.80005 3.2V6.4024C8.80006 6.5603 8.84699 6.71464 8.93487 6.84582C9.02275 6.977 9.14763 7.07912 9.29365 7.1392C9.39078 7.17947 9.49491 7.20013 9.60005 7.2H12.8C13.0122 7.2 13.2157 7.11572 13.3657 6.96569C13.5158 6.81566 13.6 6.61218 13.6 6.4C13.6 6.18783 13.5158 5.98435 13.3657 5.83432C13.2157 5.68429 13.0122 5.6 12.8 5.6H11.5312Z" fill="#09090B"/>
<path d="M1.6001 2.40001C1.6001 2.18783 1.68438 1.98435 1.83441 1.83432C1.98444 1.68429 2.18792 1.60001 2.4001 1.60001H4.1225C4.31186 1.60009 4.49506 1.66735 4.63949 1.78981C4.78393 1.91228 4.88024 2.08201 4.9113 2.26881L5.5033 5.81681C5.53158 5.98578 5.50488 6.15937 5.42711 6.31203C5.34934 6.46469 5.22462 6.58835 5.0713 6.66481L3.8329 7.28321C4.27698 8.38373 4.93836 9.38343 5.77752 10.2226C6.61667 11.0617 7.61638 11.7231 8.7169 12.1672L9.3361 10.9288C9.41252 10.7756 9.53605 10.651 9.68854 10.5733C9.84103 10.4955 10.0144 10.4687 10.1833 10.4968L13.7313 11.0888C13.9181 11.1199 14.0878 11.2162 14.2103 11.3606C14.3328 11.505 14.4 11.6882 14.4001 11.8776V13.6C14.4001 13.8122 14.3158 14.0157 14.1658 14.1657C14.0158 14.3157 13.8123 14.4 13.6001 14.4H12.0001C6.2561 14.4 1.6001 9.74401 1.6001 4.00001V2.40001Z" fill="#09090B"/>
</svg>
