<svg width="16" height="16" viewBox="0 0 16 16" fill="none" xmlns="http://www.w3.org/2000/svg">
<path d="M14.3392 2.09361C14.2992 1.99733 14.2408 1.90981 14.1672 1.83601L14.164 1.83281C14.0143 1.68352 13.8114 1.59979 13.6 1.60001H10.4C10.1878 1.60001 9.98433 1.68429 9.8343 1.83432C9.68427 1.98435 9.59998 2.18783 9.59998 2.40001C9.59998 2.61218 9.68427 2.81566 9.8343 2.96569C9.98433 3.11572 10.1878 3.20001 10.4 3.20001H11.6688L9.03438 5.83441C8.88866 5.98529 8.80802 6.18737 8.80984 6.39713C8.81167 6.60688 8.8958 6.80753 9.04413 6.95586C9.19246 7.10419 9.39311 7.18832 9.60286 7.19015C9.81262 7.19197 10.0147 7.11133 10.1656 6.96561L12.8 4.33121V5.60001C12.8 5.81218 12.8843 6.01566 13.0343 6.16569C13.1843 6.31572 13.3878 6.40001 13.6 6.40001C13.8122 6.40001 14.0156 6.31572 14.1657 6.16569C14.3157 6.01566 14.4 5.81218 14.4 5.60001V2.40001C14.4001 2.29486 14.3794 2.19073 14.3392 2.09361Z" fill="#09090B"/>
<path d="M1.6001 2.40001C1.6001 2.18783 1.68438 1.98435 1.83441 1.83432C1.98444 1.68429 2.18792 1.60001 2.4001 1.60001H4.1225C4.31186 1.60009 4.49506 1.66735 4.63949 1.78981C4.78393 1.91228 4.88024 2.08201 4.9113 2.26881L5.5033 5.81681C5.53158 5.98578 5.50488 6.15937 5.42711 6.31203C5.34934 6.46469 5.22462 6.58835 5.0713 6.66481L3.8329 7.28321C4.27698 8.38373 4.93836 9.38343 5.77752 10.2226C6.61667 11.0617 7.61638 11.7231 8.7169 12.1672L9.3361 10.9288C9.41252 10.7756 9.53605 10.651 9.68854 10.5733C9.84103 10.4955 10.0144 10.4687 10.1833 10.4968L13.7313 11.0888C13.9181 11.1199 14.0878 11.2162 14.2103 11.3606C14.3328 11.505 14.4 11.6882 14.4001 11.8776V13.6C14.4001 13.8122 14.3158 14.0157 14.1658 14.1657C14.0158 14.3157 13.8123 14.4 13.6001 14.4H12.0001C6.2561 14.4 1.6001 9.74401 1.6001 4.00001V2.40001Z" fill="#09090B"/>
</svg>
