<svg width="16" height="16" viewBox="0 0 16 16" fill="none" xmlns="http://www.w3.org/2000/svg">
<path d="M8.0001 2.80001C8.0001 2.48175 8.12653 2.17652 8.35157 1.95148C8.57661 1.72643 8.88184 1.60001 9.2001 1.60001C9.51836 1.60001 9.82358 1.72643 10.0486 1.95148C10.2737 2.17652 10.4001 2.48175 10.4001 2.80001V3.20001C10.4001 3.41218 10.4844 3.61566 10.6344 3.76569C10.7844 3.91572 10.9879 4.00001 11.2001 4.00001H13.6001C13.8123 4.00001 14.0158 4.08429 14.1658 4.23432C14.3158 4.38435 14.4001 4.58783 14.4001 4.80001V7.20001C14.4001 7.41218 14.3158 7.61566 14.1658 7.76569C14.0158 7.91572 13.8123 8.00001 13.6001 8.00001H13.2001C12.8818 8.00001 12.5766 8.12643 12.3516 8.35148C12.1265 8.57652 12.0001 8.88175 12.0001 9.20001C12.0001 9.51827 12.1265 9.82349 12.3516 10.0485C12.5766 10.2736 12.8818 10.4 13.2001 10.4H13.6001C13.8123 10.4 14.0158 10.4843 14.1658 10.6343C14.3158 10.7844 14.4001 10.9878 14.4001 11.2V13.6C14.4001 13.8122 14.3158 14.0157 14.1658 14.1657C14.0158 14.3157 13.8123 14.4 13.6001 14.4H11.2001C10.9879 14.4 10.7844 14.3157 10.6344 14.1657C10.4844 14.0157 10.4001 13.8122 10.4001 13.6V13.2C10.4001 12.8817 10.2737 12.5765 10.0486 12.3515C9.82358 12.1264 9.51836 12 9.2001 12C8.88184 12 8.57661 12.1264 8.35157 12.3515C8.12653 12.5765 8.0001 12.8817 8.0001 13.2V13.6C8.0001 13.8122 7.91581 14.0157 7.76578 14.1657C7.61575 14.3157 7.41227 14.4 7.2001 14.4H4.8001C4.58792 14.4 4.38444 14.3157 4.23441 14.1657C4.08438 14.0157 4.0001 13.8122 4.0001 13.6V11.2C4.0001 10.9878 3.91581 10.7844 3.76578 10.6343C3.61575 10.4843 3.41227 10.4 3.2001 10.4H2.8001C2.48184 10.4 2.17661 10.2736 1.95157 10.0485C1.72653 9.82349 1.6001 9.51827 1.6001 9.20001C1.6001 8.88175 1.72653 8.57652 1.95157 8.35148C2.17661 8.12643 2.48184 8.00001 2.8001 8.00001H3.2001C3.41227 8.00001 3.61575 7.91572 3.76578 7.76569C3.91581 7.61566 4.0001 7.41218 4.0001 7.20001V4.80001C4.0001 4.58783 4.08438 4.38435 4.23441 4.23432C4.38444 4.08429 4.58792 4.00001 4.8001 4.00001H7.2001C7.41227 4.00001 7.61575 3.91572 7.76578 3.76569C7.91581 3.61566 8.0001 3.41218 8.0001 3.20001V2.80001Z" fill="#09090B"/>
</svg>
