<svg width="16" height="16" viewBox="0 0 16 16" fill="none" xmlns="http://www.w3.org/2000/svg">
<path d="M7.33325 2.66667C7.33325 2.31305 7.47373 1.97391 7.72378 1.72386C7.97383 1.47381 8.31296 1.33333 8.66659 1.33333C9.02021 1.33333 9.35935 1.47381 9.60939 1.72386C9.85944 1.97391 9.99992 2.31305 9.99992 2.66667V3.33333C9.99992 3.51015 10.0702 3.67971 10.1952 3.80474C10.3202 3.92976 10.4898 4 10.6666 4H12.6666C12.8434 4 13.013 4.07024 13.138 4.19526C13.263 4.32029 13.3333 4.48986 13.3333 4.66667V6.66667C13.3333 6.84348 13.263 7.01305 13.138 7.13807C13.013 7.2631 12.8434 7.33333 12.6666 7.33333H11.9999C11.6463 7.33333 11.3072 7.47381 11.0571 7.72386C10.8071 7.97391 10.6666 8.31305 10.6666 8.66667C10.6666 9.02029 10.8071 9.35943 11.0571 9.60948C11.3072 9.85952 11.6463 10 11.9999 10H12.6666C12.8434 10 13.013 10.0702 13.138 10.1953C13.263 10.3203 13.3333 10.4899 13.3333 10.6667V12.6667C13.3333 12.8435 13.263 13.013 13.138 13.1381C13.013 13.2631 12.8434 13.3333 12.6666 13.3333H10.6666C10.4898 13.3333 10.3202 13.2631 10.1952 13.1381C10.0702 13.013 9.99992 12.8435 9.99992 12.6667V12C9.99992 11.6464 9.85944 11.3072 9.60939 11.0572C9.35935 10.8071 9.02021 10.6667 8.66659 10.6667C8.31296 10.6667 7.97383 10.8071 7.72378 11.0572C7.47373 11.3072 7.33325 11.6464 7.33325 12V12.6667C7.33325 12.8435 7.26301 13.013 7.13799 13.1381C7.01297 13.2631 6.8434 13.3333 6.66659 13.3333H4.66659C4.48977 13.3333 4.32021 13.2631 4.19518 13.1381C4.07016 13.013 3.99992 12.8435 3.99992 12.6667V10.6667C3.99992 10.4899 3.92968 10.3203 3.80466 10.1953C3.67963 10.0702 3.51006 10 3.33325 10H2.66659C2.31296 10 1.97382 9.85952 1.72378 9.60948C1.47373 9.35943 1.33325 9.02029 1.33325 8.66667C1.33325 8.31305 1.47373 7.97391 1.72378 7.72386C1.97382 7.47381 2.31296 7.33333 2.66659 7.33333H3.33325C3.51006 7.33333 3.67963 7.2631 3.80466 7.13807C3.92968 7.01305 3.99992 6.84348 3.99992 6.66667V4.66667C3.99992 4.48986 4.07016 4.32029 4.19518 4.19526C4.32021 4.07024 4.48977 4 4.66659 4H6.66659C6.8434 4 7.01297 3.92976 7.13799 3.80474C7.26301 3.67971 7.33325 3.51015 7.33325 3.33333V2.66667Z" stroke="#09090B" stroke-width="1.5" stroke-linecap="round" stroke-linejoin="round"/>
</svg>
