<svg width="16" height="16" viewBox="0 0 16 16" fill="none" xmlns="http://www.w3.org/2000/svg">
<path d="M8.00008 2.66667V3.33333M12.0001 10.6667H13.3334M9.33341 10.6667H8.00008V13.3333M8.00008 6V8M8.00008 8H8.00675M8.00008 8H10.6734M10.6667 13.3333H13.3334M2.66675 8H5.33341M13.3334 8H13.3401M3.33341 5.33333H4.66675C4.84356 5.33333 5.01313 5.26309 5.13815 5.13807C5.26318 5.01305 5.33341 4.84348 5.33341 4.66667V3.33333C5.33341 3.15652 5.26318 2.98695 5.13815 2.86193C5.01313 2.7369 4.84356 2.66667 4.66675 2.66667H3.33341C3.1566 2.66667 2.98703 2.7369 2.86201 2.86193C2.73699 2.98695 2.66675 3.15652 2.66675 3.33333V4.66667C2.66675 4.84348 2.73699 5.01305 2.86201 5.13807C2.98703 5.26309 3.1566 5.33333 3.33341 5.33333ZM11.3334 5.33333H12.6667C12.8436 5.33333 13.0131 5.26309 13.1382 5.13807C13.2632 5.01305 13.3334 4.84348 13.3334 4.66667V3.33333C13.3334 3.15652 13.2632 2.98695 13.1382 2.86193C13.0131 2.7369 12.8436 2.66667 12.6667 2.66667H11.3334C11.1566 2.66667 10.987 2.7369 10.862 2.86193C10.737 2.98695 10.6667 3.15652 10.6667 3.33333V4.66667C10.6667 4.84348 10.737 5.01305 10.862 5.13807C10.987 5.26309 11.1566 5.33333 11.3334 5.33333ZM3.33341 13.3333H4.66675C4.84356 13.3333 5.01313 13.2631 5.13815 13.1381C5.26318 13.013 5.33341 12.8435 5.33341 12.6667V11.3333C5.33341 11.1565 5.26318 10.987 5.13815 10.8619C5.01313 10.7369 4.84356 10.6667 4.66675 10.6667H3.33341C3.1566 10.6667 2.98703 10.7369 2.86201 10.8619C2.73699 10.987 2.66675 11.1565 2.66675 11.3333V12.6667C2.66675 12.8435 2.73699 13.013 2.86201 13.1381C2.98703 13.2631 3.1566 13.3333 3.33341 13.3333Z" stroke="#09090B" stroke-width="1.5" stroke-linecap="round" stroke-linejoin="round"/>
</svg>
