<svg width="16" height="16" viewBox="0 0 16 16" fill="none" xmlns="http://www.w3.org/2000/svg">
<path fill-rule="evenodd" clip-rule="evenodd" d="M2.3999 3.19999C2.3999 2.98782 2.48419 2.78434 2.63422 2.63431C2.78425 2.48428 2.98773 2.39999 3.1999 2.39999H5.5999C5.81208 2.39999 6.01556 2.48428 6.16559 2.63431C6.31562 2.78434 6.3999 2.98782 6.3999 3.19999V5.59999C6.3999 5.81217 6.31562 6.01565 6.16559 6.16568C6.01556 6.31571 5.81208 6.39999 5.5999 6.39999H3.1999C2.98773 6.39999 2.78425 6.31571 2.63422 6.16568C2.48419 6.01565 2.3999 5.81217 2.3999 5.59999V3.19999ZM3.9999 4.79999V3.99999H4.7999V4.79999H3.9999ZM2.3999 10.4C2.3999 10.1878 2.48419 9.98434 2.63422 9.83431C2.78425 9.68428 2.98773 9.59999 3.1999 9.59999H5.5999C5.81208 9.59999 6.01556 9.68428 6.16559 9.83431C6.31562 9.98434 6.3999 10.1878 6.3999 10.4V12.8C6.3999 13.0122 6.31562 13.2157 6.16559 13.3657C6.01556 13.5157 5.81208 13.6 5.5999 13.6H3.1999C2.98773 13.6 2.78425 13.5157 2.63422 13.3657C2.48419 13.2157 2.3999 13.0122 2.3999 12.8V10.4ZM3.9999 12V11.2H4.7999V12H3.9999ZM10.3999 2.39999C10.1877 2.39999 9.98425 2.48428 9.83422 2.63431C9.68419 2.78434 9.5999 2.98782 9.5999 3.19999V5.59999C9.5999 5.81217 9.68419 6.01565 9.83422 6.16568C9.98425 6.31571 10.1877 6.39999 10.3999 6.39999H12.7999C13.0121 6.39999 13.2156 6.31571 13.3656 6.16568C13.5156 6.01565 13.5999 5.81217 13.5999 5.59999V3.19999C13.5999 2.98782 13.5156 2.78434 13.3656 2.63431C13.2156 2.48428 13.0121 2.39999 12.7999 2.39999H10.3999ZM11.1999 3.99999V4.79999H11.9999V3.99999H11.1999Z" fill="#09090B"/>
<path d="M8.7999 3.19999C8.7999 2.98782 8.71562 2.78434 8.56559 2.63431C8.41556 2.48428 8.21208 2.39999 7.9999 2.39999C7.78773 2.39999 7.58425 2.48428 7.43422 2.63431C7.28419 2.78434 7.1999 2.98782 7.1999 3.19999V3.99999C7.1999 4.21217 7.28419 4.41565 7.43422 4.56568C7.58425 4.71571 7.78773 4.79999 7.9999 4.79999C8.21208 4.79999 8.41556 4.71571 8.56559 4.56568C8.71562 4.41565 8.7999 4.21217 8.7999 3.99999V3.19999ZM7.9999 5.59999C8.21208 5.59999 8.41556 5.68428 8.56559 5.83431C8.71562 5.98434 8.7999 6.18782 8.7999 6.39999V7.19999H10.3999C10.6121 7.19999 10.8156 7.28428 10.9656 7.43431C11.1156 7.58434 11.1999 7.78782 11.1999 7.99999C11.1999 8.21217 11.1156 8.41565 10.9656 8.56568C10.8156 8.71571 10.6121 8.79999 10.3999 8.79999H7.9999C7.78773 8.79999 7.58425 8.71571 7.43422 8.56568C7.28419 8.41565 7.1999 8.21217 7.1999 7.99999V6.39999C7.1999 6.18782 7.28419 5.98434 7.43422 5.83431C7.58425 5.68428 7.78773 5.59999 7.9999 5.59999ZM12.7999 7.19999C12.5877 7.19999 12.3842 7.28428 12.2342 7.43431C12.0842 7.58434 11.9999 7.78782 11.9999 7.99999C11.9999 8.21217 12.0842 8.41565 12.2342 8.56568C12.3842 8.71571 12.5877 8.79999 12.7999 8.79999C13.0121 8.79999 13.2156 8.71571 13.3656 8.56568C13.5156 8.41565 13.5999 8.21217 13.5999 7.99999C13.5999 7.78782 13.5156 7.58434 13.3656 7.43431C13.2156 7.28428 13.0121 7.19999 12.7999 7.19999ZM7.1999 10.4C7.1999 10.1878 7.28419 9.98434 7.43422 9.83431C7.58425 9.68428 7.78773 9.59999 7.9999 9.59999H8.7999C9.01208 9.59999 9.21556 9.68428 9.36559 9.83431C9.51562 9.98434 9.5999 10.1878 9.5999 10.4C9.5999 10.6122 9.51562 10.8156 9.36559 10.9657C9.21556 11.1157 9.01208 11.2 8.7999 11.2V12.8C8.7999 13.0122 8.71562 13.2157 8.56559 13.3657C8.41556 13.5157 8.21208 13.6 7.9999 13.6C7.78773 13.6 7.58425 13.5157 7.43422 13.3657C7.28419 13.2157 7.1999 13.0122 7.1999 12.8V10.4ZM5.5999 8.79999C5.81208 8.79999 6.01556 8.71571 6.16559 8.56568C6.31562 8.41565 6.3999 8.21217 6.3999 7.99999C6.3999 7.78782 6.31562 7.58434 6.16559 7.43431C6.01556 7.28428 5.81208 7.19999 5.5999 7.19999H3.1999C2.98773 7.19999 2.78425 7.28428 2.63422 7.43431C2.48419 7.58434 2.3999 7.78782 2.3999 7.99999C2.3999 8.21217 2.48419 8.41565 2.63422 8.56568C2.78425 8.71571 2.98773 8.79999 3.1999 8.79999H5.5999ZM13.5999 10.4C13.5999 10.6122 13.5156 10.8156 13.3656 10.9657C13.2156 11.1157 13.0121 11.2 12.7999 11.2H11.1999C10.9877 11.2 10.7842 11.1157 10.6342 10.9657C10.4842 10.8156 10.3999 10.6122 10.3999 10.4C10.3999 10.1878 10.4842 9.98434 10.6342 9.83431C10.7842 9.68428 10.9877 9.59999 11.1999 9.59999H12.7999C13.0121 9.59999 13.2156 9.68428 13.3656 9.83431C13.5156 9.98434 13.5999 10.1878 13.5999 10.4ZM12.7999 13.6C13.0121 13.6 13.2156 13.5157 13.3656 13.3657C13.5156 13.2157 13.5999 13.0122 13.5999 12.8C13.5999 12.5878 13.5156 12.3843 13.3656 12.2343C13.2156 12.0843 13.0121 12 12.7999 12H10.3999C10.1877 12 9.98425 12.0843 9.83422 12.2343C9.68419 12.3843 9.5999 12.5878 9.5999 12.8C9.5999 13.0122 9.68419 13.2157 9.83422 13.3657C9.98425 13.5157 10.1877 13.6 10.3999 13.6H12.7999Z" fill="#09090B"/>
</svg>
