<svg width="16" height="16" viewBox="0 0 16 16" fill="none" xmlns="http://www.w3.org/2000/svg">
<path fill-rule="evenodd" clip-rule="evenodd" d="M14.4001 8.00001C14.4001 9.69739 13.7258 11.3253 12.5256 12.5255C11.3253 13.7257 9.69748 14.4 8.0001 14.4C6.30271 14.4 4.67485 13.7257 3.47461 12.5255C2.27438 11.3253 1.6001 9.69739 1.6001 8.00001C1.6001 6.30262 2.27438 4.67476 3.47461 3.47452C4.67485 2.27429 6.30271 1.60001 8.0001 1.60001C9.69748 1.60001 11.3253 2.27429 12.5256 3.47452C13.7258 4.67476 14.4001 6.30262 14.4001 8.00001ZM8.0001 5.60001C7.85954 5.59987 7.72142 5.63677 7.59966 5.70699C7.47789 5.77721 7.37678 5.87828 7.3065 6.00001C7.25575 6.09431 7.18659 6.17746 7.10311 6.24453C7.01963 6.31161 6.92353 6.36124 6.82051 6.39049C6.71749 6.41973 6.60965 6.428 6.50338 6.41479C6.39711 6.40159 6.29457 6.36718 6.20185 6.31362C6.10912 6.26005 6.02809 6.18841 5.96356 6.10294C5.89904 6.01748 5.85233 5.91993 5.8262 5.81607C5.80007 5.71222 5.79506 5.60418 5.81147 5.49835C5.82787 5.39253 5.86536 5.29108 5.9217 5.20001C6.18587 4.7425 6.59362 4.38494 7.08172 4.18278C7.56981 3.98062 8.11097 3.94516 8.62127 4.08189C9.13157 4.21863 9.5825 4.51992 9.90412 4.93905C10.2257 5.35817 10.4001 5.8717 10.4001 6.40001C10.4002 6.8965 10.2465 7.38083 9.95991 7.78629C9.67336 8.19175 9.26816 8.4984 8.8001 8.66401V8.80001C8.8001 9.01218 8.71581 9.21566 8.56578 9.36569C8.41575 9.51572 8.21227 9.60001 8.0001 9.60001C7.78792 9.60001 7.58444 9.51572 7.43441 9.36569C7.28438 9.21566 7.2001 9.01218 7.2001 8.80001V8.00001C7.2001 7.78783 7.28438 7.58435 7.43441 7.43432C7.58444 7.28429 7.78792 7.20001 8.0001 7.20001C8.21227 7.20001 8.41575 7.11572 8.56578 6.96569C8.71581 6.81566 8.8001 6.61218 8.8001 6.40001C8.8001 6.18783 8.71581 5.98435 8.56578 5.83432C8.41575 5.68429 8.21227 5.60001 8.0001 5.60001ZM8.0001 12C8.21227 12 8.41575 11.9157 8.56578 11.7657C8.71581 11.6157 8.8001 11.4122 8.8001 11.2C8.8001 10.9878 8.71581 10.7844 8.56578 10.6343C8.41575 10.4843 8.21227 10.4 8.0001 10.4C7.78792 10.4 7.58444 10.4843 7.43441 10.6343C7.28438 10.7844 7.2001 10.9878 7.2001 11.2C7.2001 11.4122 7.28438 11.6157 7.43441 11.7657C7.58444 11.9157 7.78792 12 8.0001 12Z" fill="#09090B"/>
</svg>
