<svg width="16" height="16" viewBox="0 0 16 16" fill="none" xmlns="http://www.w3.org/2000/svg">
<path fill-rule="evenodd" clip-rule="evenodd" d="M3.1999 1.60001C3.41208 1.60001 3.61556 1.68429 3.76559 1.83432C3.91562 1.98435 3.9999 2.18783 3.9999 2.40001V4.08081C4.66553 3.40182 5.49305 2.90345 6.4045 2.63263C7.31595 2.36181 8.28133 2.32746 9.20973 2.53281C10.1381 2.73816 10.999 3.17645 11.7112 3.80641C12.4234 4.43636 12.9635 5.23724 13.2807 6.13361C13.3192 6.23341 13.3373 6.33992 13.3339 6.44684C13.3305 6.55375 13.3057 6.6589 13.2609 6.75605C13.2162 6.85321 13.1524 6.94041 13.0733 7.01249C12.9943 7.08457 12.9016 7.14007 12.8008 7.17571C12.6999 7.21134 12.5929 7.22639 12.4862 7.21996C12.3794 7.21353 12.275 7.18574 12.1791 7.13826C12.0833 7.09078 11.9979 7.02455 11.9281 6.94351C11.8583 6.86246 11.8055 6.76823 11.7727 6.66641C11.5312 5.98386 11.1091 5.37962 10.5512 4.91807C9.99343 4.45652 9.32084 4.15495 8.60515 4.04551C7.88946 3.93607 7.15749 4.02285 6.48723 4.2966C5.81697 4.57035 5.23354 5.02082 4.7991 5.60001H7.1999C7.41208 5.60001 7.61556 5.68429 7.76559 5.83432C7.91562 5.98435 7.9999 6.18783 7.9999 6.40001C7.9999 6.61218 7.91562 6.81566 7.76559 6.96569C7.61556 7.11572 7.41208 7.20001 7.1999 7.20001H3.1999C2.98773 7.20001 2.78425 7.11572 2.63422 6.96569C2.48419 6.81566 2.3999 6.61218 2.3999 6.40001V2.40001C2.3999 2.18783 2.48419 1.98435 2.63422 1.83432C2.78425 1.68429 2.98773 1.60001 3.1999 1.60001ZM3.2063 8.84561C3.30537 8.81061 3.41036 8.79548 3.51528 8.80107C3.6202 8.80666 3.72299 8.83286 3.81778 8.87817C3.91257 8.92349 3.99751 8.98703 4.06774 9.06518C4.13797 9.14332 4.19212 9.23453 4.2271 9.33361C4.46859 10.0162 4.89074 10.6204 5.44856 11.0819C6.00638 11.5435 6.67896 11.8451 7.39465 11.9545C8.11034 12.0639 8.84232 11.9772 9.51258 11.7034C10.1828 11.4297 10.7663 10.9792 11.2007 10.4H8.7999C8.58773 10.4 8.38425 10.3157 8.23422 10.1657C8.08419 10.0157 7.9999 9.81218 7.9999 9.60001C7.9999 9.38783 8.08419 9.18435 8.23422 9.03432C8.38425 8.88429 8.58773 8.80001 8.7999 8.80001H12.7999C13.0121 8.80001 13.2156 8.88429 13.3656 9.03432C13.5156 9.18435 13.5999 9.38783 13.5999 9.60001V13.6C13.5999 13.8122 13.5156 14.0157 13.3656 14.1657C13.2156 14.3157 13.0121 14.4 12.7999 14.4C12.5877 14.4 12.3842 14.3157 12.2342 14.1657C12.0842 14.0157 11.9999 13.8122 11.9999 13.6V11.9192C11.3343 12.5982 10.5068 13.0966 9.59531 13.3674C8.68386 13.6382 7.71847 13.6726 6.79008 13.4672C5.86168 13.2619 5.00084 12.8236 4.28863 12.1936C3.57642 11.5637 3.03629 10.7628 2.7191 9.86641C2.68411 9.76734 2.66898 9.66235 2.67456 9.55743C2.68015 9.45251 2.70635 9.34972 2.75167 9.25493C2.79698 9.16014 2.86053 9.0752 2.93867 9.00497C3.01682 8.93474 3.10723 8.88058 3.2063 8.84561Z" fill="#09090B"/>
</svg>
