<svg width="78" height="79" viewBox="0 0 78 79" fill="none" xmlns="http://www.w3.org/2000/svg">
<g clip-path="url(#clip0_335_6475)">
<g clip-path="url(#clip1_335_6475)">
<path d="M59.6557 35.609L58.9485 36.3161L59.6556 37.0232L76.4511 53.8187C76.8028 54.1704 76.9999 54.6466 76.9997 55.1431V55.1436C76.9997 55.6409 76.8023 56.1173 76.4507 56.4689L62.336 70.5832L63.0431 71.2903L62.336 70.5832C61.9702 70.949 61.4922 71.1318 61.0111 71.1318C60.5303 71.1318 60.0525 70.9492 59.6862 70.5832C59.6861 70.5831 59.686 70.5831 59.6859 70.583L42.8911 53.7881L42.184 53.081L41.4769 53.7881L37.0882 58.1768C36.7224 58.5426 36.2444 58.7254 35.7633 58.7254C35.2821 58.7254 34.8041 58.5426 34.4383 58.1768L33.7312 58.8839L34.4383 58.1768L20.3231 44.062C19.9711 43.7097 19.7739 43.2335 19.7739 42.7364C19.7739 42.2391 19.9713 41.7627 20.3229 41.4111C20.3229 41.4111 20.3229 41.4111 20.3229 41.4111L24.7115 37.0229L25.4187 36.3157L24.7115 35.6086L7.91606 18.8131C7.1843 18.0814 7.18412 16.8951 7.91618 16.1628L22.0304 2.04859C22.7616 1.31734 23.9478 1.31692 24.6803 2.04862C24.6803 2.04869 24.6804 2.04876 24.6805 2.04883L41.4773 18.8441L42.1844 19.5511L42.8915 18.8441L47.2796 14.4559C47.2796 14.4559 47.2797 14.4558 47.2797 14.4558C48.0116 13.7243 49.1979 13.7243 49.9297 14.4559L64.044 28.5698C64.0441 28.5699 64.0442 28.57 64.0443 28.5701C64.3961 28.9223 64.5932 29.3988 64.5932 29.8954C64.5932 30.3927 64.3959 30.8691 64.0443 31.2207C64.0443 31.2207 64.0443 31.2207 64.0443 31.2207L59.6557 35.609ZM12.5984 16.7811L11.8912 17.4882L12.5984 18.1953L27.3618 32.9587L28.0689 33.6658L28.776 32.9587L32.2488 29.4859L38.8266 22.9081L39.5337 22.201L38.8266 21.4939L24.0624 6.73122L23.3553 6.02419L22.6482 6.73126L12.5984 16.7811ZM35.0562 53.4945L35.7633 54.2016L36.4704 53.4945L47.9162 42.0491L47.9162 42.0491L54.976 34.9889L59.362 30.6029L60.0691 29.8958L59.362 29.1887L49.3114 19.1385L48.6043 18.4314L47.8972 19.1385L34.1618 32.8734L34.8689 33.5805L34.1618 32.8734L29.3919 37.6433L29.3919 37.6433L25.0052 42.0296L24.298 42.7368L25.0052 43.4439L35.0562 53.4945ZM60.3044 65.9009L61.0115 66.608L61.7186 65.901L71.7692 55.8507L72.4763 55.1436L71.7692 54.4365L57.0061 39.6735L56.299 38.9663L55.5919 39.6735L45.5413 49.7241L44.8342 50.4312L45.5413 51.1383L60.3044 65.9009Z" fill="#09090B" stroke="white" stroke-width="2"/>
<path d="M29.5952 75.6257V75.6255C29.5954 74.5907 28.7565 73.7518 27.7213 73.7518L29.5952 75.6257ZM29.5952 75.6257C29.5952 76.6607 28.7564 77.4996 27.7217 77.4996H27.7216H27.7216H27.7216H27.7216H27.7216H27.7216H27.7215H27.7215H27.7215H27.7215H27.7215H27.7214H27.7214H27.7214H27.7214H27.7214H27.7214H27.7213H27.7213H27.7213H27.7213H27.7213H27.7213H27.7212H27.7212H27.7212H27.7212H27.7212H27.7211H27.7211H27.7211H27.7211H27.7211H27.7211H27.721H27.721H27.721H27.721H27.721H27.721H27.721H27.7209H27.7209H27.7209H27.7209H27.7209H27.7209H27.7208H27.7208H27.7208H27.7208H27.7208H27.7208H27.7207H27.7207H27.7207H27.7207H27.7207H27.7207H27.7207H27.7206H27.7206H27.7206H27.7206H27.7206H27.7206H27.7205H27.7205H27.7205H27.7205H27.7205H27.7205H27.7204H27.7204H27.7204H27.7204H27.7204H27.7204H27.7203H27.7203H27.7203H27.7203H27.7203H27.7203H27.7203H27.7202H27.7202H27.7202H27.7202H27.7202H27.7202H27.7201H27.7201C20.581 77.4996 13.8744 74.7215 8.82648 69.6732C3.77849 64.6248 1 57.9178 1 50.7783C1 49.7434 1.83873 48.9044 2.8739 48.9044C3.90886 48.9044 4.7478 49.7431 4.7478 50.7783C4.7478 56.9128 7.13887 62.6854 11.4767 67.0233C15.8145 71.3611 21.5867 73.7522 27.7213 73.7518L29.5952 75.6257Z" fill="#09090B" stroke="white" stroke-width="2"/>
<path d="M19.1121 59.3875L19.1122 59.3876C21.1037 61.3787 23.756 62.4777 26.5725 62.4777C27.6075 62.4777 28.4464 63.3164 28.4464 64.3516C28.4464 65.3868 27.6075 66.2255 26.5725 66.2255C22.7514 66.2255 19.1639 64.7398 16.4623 62.0378L16.4622 62.0378C13.7601 59.3357 12.2742 55.7486 12.2745 51.928V51.9279C12.2745 50.893 13.1136 50.054 14.1484 50.054C15.1836 50.054 16.0223 50.893 16.0223 51.9279C16.0223 54.744 17.1209 57.3963 19.1121 59.3875Z" fill="#09090B" stroke="white" stroke-width="2"/>
</g>
</g>
<defs>
<clipPath id="clip0_335_6475">
<rect width="78" height="78" fill="white" transform="translate(0 0.5)"/>
</clipPath>
<clipPath id="clip1_335_6475">
<rect width="78" height="78" fill="white" transform="translate(0 0.5)"/>
</clipPath>
</defs>
</svg>
