<svg width="16" height="16" viewBox="0 0 16 16" fill="none" xmlns="http://www.w3.org/2000/svg">
<path fill-rule="evenodd" clip-rule="evenodd" d="M8.00011 1.60001C8.21228 1.60001 8.41577 1.68429 8.5658 1.83432C8.71583 1.98435 8.80011 2.18783 8.80011 2.40001V3.45841L11.9633 4.72401L13.2425 4.08401C13.4324 3.98916 13.6522 3.97364 13.8535 4.04086C14.0549 4.10807 14.2213 4.25251 14.3161 4.44241C14.411 4.6323 14.4265 4.85209 14.3593 5.05343C14.292 5.25477 14.1476 5.42116 13.9577 5.51601L12.9713 6.00881L14.3617 10.3448C14.4088 10.4919 14.4124 10.6495 14.3719 10.7985C14.3315 10.9476 14.2487 11.0817 14.1337 11.1848C13.5474 11.7105 12.7875 12.0008 12.0001 12C11.2127 12.0008 10.4528 11.7105 9.86651 11.1848C9.75148 11.0817 9.66873 10.9476 9.62828 10.7985C9.58782 10.6495 9.59137 10.4919 9.63851 10.3448L11.0105 6.06561L8.80011 5.18161V12.8H10.4001C10.6123 12.8 10.8158 12.8843 10.9658 13.0343C11.1158 13.1843 11.2001 13.3878 11.2001 13.6C11.2001 13.8122 11.1158 14.0157 10.9658 14.1657C10.8158 14.3157 10.6123 14.4 10.4001 14.4H5.60011C5.38794 14.4 5.18445 14.3157 5.03443 14.1657C4.8844 14.0157 4.80011 13.8122 4.80011 13.6C4.80011 13.3878 4.8844 13.1843 5.03443 13.0343C5.18445 12.8843 5.38794 12.8 5.60011 12.8H7.20011V5.18161L4.98971 6.06561L6.36171 10.3448C6.40885 10.4919 6.4124 10.6495 6.37195 10.7985C6.33149 10.9476 6.24875 11.0817 6.13371 11.1848C5.54744 11.7105 4.78753 12.0008 4.00011 12C3.21269 12.0008 2.45278 11.7105 1.86651 11.1848C1.75148 11.0817 1.66874 10.9476 1.62828 10.7985C1.58782 10.6495 1.59137 10.4919 1.63851 10.3448L3.02891 6.00881L2.04251 5.51521C1.85953 5.41653 1.72214 5.2505 1.65946 5.05229C1.59677 4.85407 1.61371 4.63924 1.70668 4.45329C1.79965 4.26735 1.96136 4.1249 2.15754 4.05612C2.35373 3.98733 2.56898 3.99762 2.75771 4.08481L4.03691 4.72401L7.20011 3.45841V2.40001C7.20011 2.18783 7.2844 1.98435 7.43443 1.83432C7.58446 1.68429 7.78794 1.60001 8.00011 1.60001ZM4.00011 8.21921L3.34571 10.2608C3.54571 10.3504 3.76651 10.4 4.00011 10.4C4.23371 10.4 4.45531 10.3504 4.65451 10.2608L4.00011 8.21921ZM12.0001 8.21921L11.3457 10.2608C11.5457 10.3504 11.7665 10.4 12.0001 10.4C12.2337 10.4 12.4553 10.3504 12.6545 10.2608L12.0001 8.21921Z" fill="#09090B"/>
</svg>
