<svg width="16" height="16" viewBox="0 0 16 16" fill="none" xmlns="http://www.w3.org/2000/svg">
<path d="M5.78922 8.89467C5.92389 8.62533 5.99989 8.32133 5.99989 8C5.99989 7.67867 5.92389 7.37467 5.78922 7.10533M5.78922 8.89467C5.58769 9.29759 5.25603 9.62068 4.84795 9.81157C4.43988 10.0025 3.97931 10.05 3.54085 9.94647C3.10239 9.84293 2.71174 9.59439 2.43217 9.24111C2.15259 8.88784 2.00049 8.45052 2.00049 8C2.00049 7.54948 2.15259 7.11216 2.43217 6.75889C2.71174 6.40561 3.10239 6.15707 3.54085 6.05353C3.97931 5.95 4.43988 5.99753 4.84795 6.18842C5.25603 6.37932 5.58769 6.70241 5.78922 7.10533M5.78922 8.89467L10.2106 11.1053M5.78922 7.10533L10.2106 4.89467M10.2106 11.1053C9.97328 11.5799 9.93423 12.1293 10.102 12.6326C10.2698 13.136 10.6307 13.5521 11.1052 13.7893C11.5798 14.0266 12.1292 14.0657 12.6325 13.8979C13.1359 13.7301 13.5519 13.3692 13.7892 12.8947C14.0265 12.4201 14.0655 11.8707 13.8978 11.3674C13.73 10.864 13.3691 10.4479 12.8946 10.2107C12.6596 10.0932 12.4038 10.0231 12.1417 10.0045C11.8797 9.98587 11.6165 10.019 11.3673 10.1021C10.8639 10.2699 10.4478 10.6308 10.2106 11.1053ZM10.2106 4.89467C10.328 5.1296 10.4907 5.33909 10.6891 5.51118C10.8876 5.68327 11.118 5.81459 11.3672 5.89764C11.6164 5.98069 11.8795 6.01383 12.1415 5.99519C12.4035 5.97655 12.6593 5.90649 12.8942 5.789C13.1292 5.67151 13.3387 5.5089 13.5107 5.31045C13.6828 5.11199 13.8141 4.88159 13.8972 4.63239C13.9802 4.38319 14.0134 4.12007 13.9948 3.85806C13.9761 3.59604 13.906 3.34027 13.7886 3.10533C13.5513 2.63086 13.1352 2.27008 12.6319 2.10236C12.1287 1.93464 11.5794 1.97372 11.1049 2.211C10.6304 2.44828 10.2696 2.86433 10.1019 3.36761C9.9342 3.8709 9.97328 4.42019 10.2106 4.89467Z" stroke="#09090B" stroke-width="1.5" stroke-linecap="round" stroke-linejoin="round"/>
</svg>
