<svg width="16" height="16" viewBox="0 0 16 16" fill="none" xmlns="http://www.w3.org/2000/svg">
<path d="M11.9999 6.39999C12.4872 6.40001 12.963 6.25167 13.364 5.97471C13.7649 5.69775 14.0721 5.30529 14.2446 4.84952C14.4171 4.39375 14.4467 3.89626 14.3296 3.42322C14.2125 2.95018 13.9542 2.524 13.589 2.20135C13.2237 1.87871 12.769 1.67488 12.2851 1.61699C11.8012 1.5591 11.3112 1.64987 10.8802 1.87725C10.4491 2.10463 10.0975 2.45783 9.87214 2.88989C9.64673 3.32195 9.55819 3.81239 9.61829 4.29599L5.66629 6.27199C5.32728 5.94508 4.89957 5.72513 4.43645 5.63955C3.97333 5.55397 3.49526 5.60654 3.0618 5.79071C2.62834 5.97489 2.25865 6.28252 1.99878 6.6753C1.73891 7.06808 1.60034 7.52863 1.60034 7.99959C1.60034 8.47056 1.73891 8.93111 1.99878 9.32389C2.25865 9.71666 2.62834 10.0243 3.0618 10.2085C3.49526 10.3926 3.97333 10.4452 4.43645 10.3596C4.89957 10.2741 5.32728 10.0541 5.66629 9.72719L9.61829 11.7032C9.54829 12.265 9.67914 12.8334 9.98772 13.3081C10.2963 13.7827 10.7627 14.133 11.3046 14.297C11.8464 14.461 12.4288 14.4282 12.9488 14.2044C13.4688 13.9805 13.893 13.5801 14.1463 13.0737C14.3996 12.5674 14.4657 11.9879 14.333 11.4375C14.2004 10.8871 13.8774 10.4014 13.4212 10.0661C12.9651 9.73082 12.405 9.5676 11.8402 9.60527C11.2753 9.64295 10.7419 9.8791 10.3343 10.272L6.38229 8.29599C6.40651 8.0994 6.40651 7.90058 6.38229 7.70399L10.3343 5.72799C10.7647 6.14399 11.3519 6.39999 11.9999 6.39999Z" fill="#09090B"/>
</svg>
