<svg width="16" height="16" viewBox="0 0 16 16" fill="none" xmlns="http://www.w3.org/2000/svg">
<path d="M2.4001 0.799988C2.18792 0.799988 1.98444 0.884273 1.83441 1.0343C1.68438 1.18433 1.6001 1.38781 1.6001 1.59999C1.6001 1.81216 1.68438 2.01564 1.83441 2.16567C1.98444 2.3157 2.18792 2.39999 2.4001 2.39999H3.3761L3.6201 3.37759C3.62252 3.38884 3.62519 3.40005 3.6281 3.41119L4.7145 7.75519L4.0001 8.46879C2.9921 9.47679 3.7057 11.2 5.1313 11.2H12.0001C12.2123 11.2 12.4158 11.1157 12.5658 10.9657C12.7158 10.8156 12.8001 10.6122 12.8001 10.4C12.8001 10.1878 12.7158 9.98433 12.5658 9.8343C12.4158 9.68427 12.2123 9.59999 12.0001 9.59999H5.1313L5.9313 8.79999H11.2001C11.3486 8.79991 11.4942 8.75848 11.6205 8.68035C11.7468 8.60221 11.8489 8.49045 11.9153 8.35759L14.3153 3.55759C14.3762 3.43565 14.405 3.30017 14.3989 3.16399C14.3927 3.02782 14.3519 2.89547 14.2803 2.7795C14.2086 2.66354 14.1085 2.5678 13.9895 2.50138C13.8704 2.43496 13.7364 2.40006 13.6001 2.39999H5.0241L4.7761 1.40559C4.73276 1.23259 4.63286 1.07903 4.49226 0.969312C4.35167 0.85959 4.17844 0.799992 4.0001 0.799988H2.4001ZM12.8001 13.2C12.8001 13.5182 12.6737 13.8235 12.4486 14.0485C12.2236 14.2736 11.9184 14.4 11.6001 14.4C11.2818 14.4 10.9766 14.2736 10.7516 14.0485C10.5265 13.8235 10.4001 13.5182 10.4001 13.2C10.4001 12.8817 10.5265 12.5765 10.7516 12.3515C10.9766 12.1264 11.2818 12 11.6001 12C11.9184 12 12.2236 12.1264 12.4486 12.3515C12.6737 12.5765 12.8001 12.8817 12.8001 13.2ZM5.2001 14.4C5.51836 14.4 5.82358 14.2736 6.04863 14.0485C6.27367 13.8235 6.4001 13.5182 6.4001 13.2C6.4001 12.8817 6.27367 12.5765 6.04863 12.3515C5.82358 12.1264 5.51836 12 5.2001 12C4.88184 12 4.57661 12.1264 4.35157 12.3515C4.12653 12.5765 4.0001 12.8817 4.0001 13.2C4.0001 13.5182 4.12653 13.8235 4.35157 14.0485C4.57661 14.2736 4.88184 14.4 5.2001 14.4Z" fill="#09090B"/>
</svg>
