<svg width="16" height="16" viewBox="0 0 16 16" fill="none" xmlns="http://www.w3.org/2000/svg">
<path d="M2.4001 2.39999C2.18792 2.39999 1.98444 2.48428 1.83441 2.63431C1.68438 2.78434 1.6001 2.98782 1.6001 3.19999C1.6001 3.41217 1.68438 3.61565 1.83441 3.76568C1.98444 3.91571 2.18792 3.99999 2.4001 3.99999H11.2001C11.4123 3.99999 11.6158 3.91571 11.7658 3.76568C11.9158 3.61565 12.0001 3.41217 12.0001 3.19999C12.0001 2.98782 11.9158 2.78434 11.7658 2.63431C11.6158 2.48428 11.4123 2.39999 11.2001 2.39999H2.4001ZM2.4001 5.59999C2.18792 5.59999 1.98444 5.68428 1.83441 5.83431C1.68438 5.98434 1.6001 6.18782 1.6001 6.39999C1.6001 6.61217 1.68438 6.81565 1.83441 6.96568C1.98444 7.11571 2.18792 7.19999 2.4001 7.19999H6.4001C6.61227 7.19999 6.81575 7.11571 6.96578 6.96568C7.11581 6.81565 7.2001 6.61217 7.2001 6.39999C7.2001 6.18782 7.11581 5.98434 6.96578 5.83431C6.81575 5.68428 6.61227 5.59999 6.4001 5.59999H2.4001ZM2.4001 8.79999C2.18792 8.79999 1.98444 8.88428 1.83441 9.03431C1.68438 9.18434 1.6001 9.38782 1.6001 9.59999C1.6001 9.81217 1.68438 10.0157 1.83441 10.1657C1.98444 10.3157 2.18792 10.4 2.4001 10.4H5.6001C5.81227 10.4 6.01575 10.3157 6.16578 10.1657C6.31581 10.0157 6.4001 9.81217 6.4001 9.59999C6.4001 9.38782 6.31581 9.18434 6.16578 9.03431C6.01575 8.88428 5.81227 8.79999 5.6001 8.79999H2.4001ZM10.4001 12.8C10.4001 13.0122 10.4844 13.2157 10.6344 13.3657C10.7844 13.5157 10.9879 13.6 11.2001 13.6C11.4123 13.6 11.6158 13.5157 11.7658 13.3657C11.9158 13.2157 12.0001 13.0122 12.0001 12.8V8.33119L13.0345 9.36559C13.1854 9.51132 13.3875 9.59196 13.5972 9.59013C13.807 9.58831 14.0076 9.50418 14.156 9.35585C14.3043 9.20752 14.3884 9.00687 14.3902 8.79711C14.3921 8.58736 14.3114 8.38528 14.1657 8.23439L11.7657 5.83439C11.6157 5.68442 11.4122 5.60016 11.2001 5.60016C10.988 5.60016 10.7845 5.68442 10.6345 5.83439L8.2345 8.23439C8.15809 8.30819 8.09714 8.39647 8.05522 8.49407C8.01329 8.59167 7.99122 8.69665 7.9903 8.80287C7.98937 8.9091 8.00962 9.01444 8.04984 9.11276C8.09007 9.21107 8.14947 9.3004 8.22458 9.37551C8.2997 9.45062 8.38902 9.51003 8.48733 9.55025C8.58565 9.59048 8.69099 9.61072 8.79722 9.60979C8.90344 9.60887 9.00842 9.5868 9.10602 9.54488C9.20362 9.50295 9.2919 9.442 9.3657 9.36559L10.4001 8.33119V12.8Z" fill="#09090B"/>
</svg>
