<svg width="16" height="16" viewBox="0 0 16 16" fill="none" xmlns="http://www.w3.org/2000/svg">
<path d="M2.4001 2.39999C2.18792 2.39999 1.98444 2.48428 1.83441 2.63431C1.68438 2.78434 1.6001 2.98782 1.6001 3.19999C1.6001 3.41217 1.68438 3.61565 1.83441 3.76568C1.98444 3.91571 2.18792 3.99999 2.4001 3.99999H11.2001C11.4123 3.99999 11.6158 3.91571 11.7658 3.76568C11.9158 3.61565 12.0001 3.41217 12.0001 3.19999C12.0001 2.98782 11.9158 2.78434 11.7658 2.63431C11.6158 2.48428 11.4123 2.39999 11.2001 2.39999H2.4001ZM2.4001 5.59999C2.18792 5.59999 1.98444 5.68428 1.83441 5.83431C1.68438 5.98434 1.6001 6.18782 1.6001 6.39999C1.6001 6.61217 1.68438 6.81565 1.83441 6.96568C1.98444 7.11571 2.18792 7.19999 2.4001 7.19999H8.0001C8.21227 7.19999 8.41575 7.11571 8.56578 6.96568C8.71581 6.81565 8.8001 6.61217 8.8001 6.39999C8.8001 6.18782 8.71581 5.98434 8.56578 5.83431C8.41575 5.68428 8.21227 5.59999 8.0001 5.59999H2.4001ZM2.4001 8.79999C2.18792 8.79999 1.98444 8.88428 1.83441 9.03431C1.68438 9.18434 1.6001 9.38782 1.6001 9.59999C1.6001 9.81217 1.68438 10.0157 1.83441 10.1657C1.98444 10.3157 2.18792 10.4 2.4001 10.4H5.6001C5.81227 10.4 6.01575 10.3157 6.16578 10.1657C6.31581 10.0157 6.4001 9.81217 6.4001 9.59999C6.4001 9.38782 6.31581 9.18434 6.16578 9.03431C6.01575 8.88428 5.81227 8.79999 5.6001 8.79999H2.4001ZM12.0001 6.39999C12.0001 6.18782 11.9158 5.98434 11.7658 5.83431C11.6158 5.68428 11.4123 5.59999 11.2001 5.59999C10.9879 5.59999 10.7844 5.68428 10.6344 5.83431C10.4844 5.98434 10.4001 6.18782 10.4001 6.39999V10.8688L9.3657 9.83439C9.21482 9.68867 9.01273 9.60803 8.80298 9.60986C8.59322 9.61168 8.39257 9.69581 8.24424 9.84414C8.09592 9.99247 8.01178 10.1931 8.00996 10.4029C8.00814 10.6126 8.08877 10.8147 8.2345 10.9656L10.6345 13.3656C10.7845 13.5156 10.988 13.5998 11.2001 13.5998C11.4122 13.5998 11.6157 13.5156 11.7657 13.3656L14.1657 10.9656C14.3114 10.8147 14.3921 10.6126 14.3902 10.4029C14.3884 10.1931 14.3043 9.99247 14.156 9.84414C14.0076 9.69581 13.807 9.61168 13.5972 9.60986C13.3875 9.60803 13.1854 9.68867 13.0345 9.83439L12.0001 10.8688V6.39999Z" fill="#09090B"/>
</svg>
