<svg width="16" height="16" viewBox="0 0 16 16" fill="none" xmlns="http://www.w3.org/2000/svg">
<path fill-rule="evenodd" clip-rule="evenodd" d="M8.0001 14.4C9.69748 14.4 11.3253 13.7257 12.5256 12.5255C13.7258 11.3253 14.4001 9.69739 14.4001 8.00001C14.4001 6.30262 13.7258 4.67476 12.5256 3.47452C11.3253 2.27429 9.69748 1.60001 8.0001 1.60001C6.30271 1.60001 4.67485 2.27429 3.47461 3.47452C2.27438 4.67476 1.6001 6.30262 1.6001 8.00001C1.6001 9.69739 2.27438 11.3253 3.47461 12.5255C4.67485 13.7257 6.30271 14.4 8.0001 14.4ZM6.4001 5.60001C6.18792 5.60001 5.98444 5.68429 5.83441 5.83432C5.68438 5.98435 5.6001 6.18783 5.6001 6.40001V9.60001C5.6001 9.81218 5.68438 10.0157 5.83441 10.1657C5.98444 10.3157 6.18792 10.4 6.4001 10.4H9.6001C9.81227 10.4 10.0158 10.3157 10.1658 10.1657C10.3158 10.0157 10.4001 9.81218 10.4001 9.60001V6.40001C10.4001 6.18783 10.3158 5.98435 10.1658 5.83432C10.0158 5.68429 9.81227 5.60001 9.6001 5.60001H6.4001Z" fill="#09090B"/>
</svg>
