<svg width="16" height="16" viewBox="0 0 16 16" fill="none" xmlns="http://www.w3.org/2000/svg">
<path fill-rule="evenodd" clip-rule="evenodd" d="M8.0001 1.60001C8.21227 1.60001 8.41575 1.68429 8.56578 1.83432C8.71581 1.98435 8.8001 2.18783 8.8001 2.40001V3.20001C8.8001 3.41218 8.71581 3.61566 8.56578 3.76569C8.41575 3.91572 8.21227 4.00001 8.0001 4.00001C7.78792 4.00001 7.58444 3.91572 7.43441 3.76569C7.28438 3.61566 7.2001 3.41218 7.2001 3.20001V2.40001C7.2001 2.18783 7.28438 1.98435 7.43441 1.83432C7.58444 1.68429 7.78792 1.60001 8.0001 1.60001ZM11.2001 8.00001C11.2001 8.8487 10.863 9.66263 10.2628 10.2627C9.66272 10.8629 8.84879 11.2 8.0001 11.2C7.1514 11.2 6.33747 10.8629 5.73736 10.2627C5.13724 9.66263 4.8001 8.8487 4.8001 8.00001C4.8001 7.15131 5.13724 6.33738 5.73736 5.73726C6.33747 5.13715 7.1514 4.80001 8.0001 4.80001C8.84879 4.80001 9.66272 5.13715 10.2628 5.73726C10.863 6.33738 11.2001 7.15131 11.2001 8.00001ZM10.8289 11.96L11.3945 12.5256C11.5454 12.6713 11.7475 12.752 11.9572 12.7501C12.167 12.7483 12.3676 12.6642 12.516 12.5159C12.6643 12.3675 12.7484 12.1669 12.7502 11.9571C12.7521 11.7474 12.6714 11.5453 12.5257 11.3944L11.9601 10.8288C11.8092 10.6831 11.6071 10.6024 11.3974 10.6043C11.1876 10.6061 10.987 10.6902 10.8386 10.8386C10.6903 10.9869 10.6062 11.1875 10.6044 11.3973C10.6025 11.607 10.6832 11.8091 10.8289 11.96ZM12.5249 3.47441C12.6749 3.62443 12.7591 3.82787 12.7591 4.04001C12.7591 4.25214 12.6749 4.45558 12.5249 4.60561L11.9601 5.17121C11.8863 5.24761 11.798 5.30856 11.7004 5.35049C11.6028 5.39241 11.4978 5.41448 11.3916 5.41541C11.2854 5.41633 11.1801 5.39609 11.0817 5.35586C10.9834 5.31564 10.8941 5.25624 10.819 5.18112C10.7439 5.10601 10.6845 5.01669 10.6442 4.91837C10.604 4.82005 10.5838 4.71471 10.5847 4.60848C10.5856 4.50226 10.6077 4.39729 10.6496 4.29968C10.6915 4.20208 10.7525 4.1138 10.8289 4.04001L11.3945 3.47441C11.5445 3.32443 11.748 3.24018 11.9601 3.24018C12.1722 3.24018 12.3749 3.32443 12.5249 3.47441ZM13.6001 8.80001C13.8123 8.80001 14.0158 8.71572 14.1658 8.56569C14.3158 8.41566 14.4001 8.21218 14.4001 8.00001C14.4001 7.78783 14.3158 7.58435 14.1658 7.43432C14.0158 7.28429 13.8123 7.20001 13.6001 7.20001H12.8001C12.5879 7.20001 12.3844 7.28429 12.2344 7.43432C12.0844 7.58435 12.0001 7.78783 12.0001 8.00001C12.0001 8.21218 12.0844 8.41566 12.2344 8.56569C12.3844 8.71572 12.5879 8.80001 12.8001 8.80001H13.6001ZM8.0001 12C8.21227 12 8.41575 12.0843 8.56578 12.2343C8.71581 12.3843 8.8001 12.5878 8.8001 12.8V13.6C8.8001 13.8122 8.71581 14.0157 8.56578 14.1657C8.41575 14.3157 8.21227 14.4 8.0001 14.4C7.78792 14.4 7.58444 14.3157 7.43441 14.1657C7.28438 14.0157 7.2001 13.8122 7.2001 13.6V12.8C7.2001 12.5878 7.28438 12.3843 7.43441 12.2343C7.58444 12.0843 7.78792 12 8.0001 12ZM4.0401 5.17121C4.11437 5.24553 4.20256 5.30451 4.29963 5.34475C4.39669 5.385 4.50074 5.40573 4.60581 5.40577C4.71089 5.40581 4.81495 5.38515 4.91205 5.34497C5.00914 5.30479 5.09737 5.24588 5.1717 5.17161C5.24603 5.09733 5.305 5.00914 5.34524 4.91208C5.38549 4.81501 5.40622 4.71097 5.40626 4.60589C5.4063 4.50081 5.38564 4.39675 5.34546 4.29966C5.30528 4.20256 5.24637 4.11433 5.1721 4.04001L4.6057 3.47441C4.45482 3.32868 4.25273 3.24804 4.04298 3.24987C3.83322 3.25169 3.63257 3.33582 3.48424 3.48415C3.33592 3.63248 3.25178 3.83313 3.24996 4.04289C3.24814 4.25264 3.32877 4.45472 3.4745 4.60561L4.0401 5.17121ZM5.1713 11.96L4.6057 12.5256C4.45482 12.6713 4.25273 12.752 4.04298 12.7501C3.83322 12.7483 3.63257 12.6642 3.48424 12.5159C3.33592 12.3675 3.25178 12.1669 3.24996 11.9571C3.24814 11.7474 3.32877 11.5453 3.4745 11.3944L4.0401 10.8288C4.19098 10.6831 4.39306 10.6024 4.60282 10.6043C4.81258 10.6061 5.01323 10.6902 5.16155 10.8386C5.30988 10.9869 5.39401 11.1875 5.39584 11.3973C5.39766 11.607 5.31702 11.8091 5.1713 11.96ZM3.2001 8.80001C3.41227 8.80001 3.61575 8.71572 3.76578 8.56569C3.91581 8.41566 4.0001 8.21218 4.0001 8.00001C4.0001 7.78783 3.91581 7.58435 3.76578 7.43432C3.61575 7.28429 3.41227 7.20001 3.2001 7.20001H2.4001C2.18792 7.20001 1.98444 7.28429 1.83441 7.43432C1.68438 7.58435 1.6001 7.78783 1.6001 8.00001C1.6001 8.21218 1.68438 8.41566 1.83441 8.56569C1.98444 8.71572 2.18792 8.80001 2.4001 8.80001H3.2001Z" fill="#09090B"/>
</svg>
