<svg width="16" height="16" viewBox="0 0 16 16" fill="none" xmlns="http://www.w3.org/2000/svg">
<path fill-rule="evenodd" clip-rule="evenodd" d="M14.4001 8.00001C14.4001 9.69739 13.7258 11.3253 12.5256 12.5255C11.3253 13.7257 9.69748 14.4 8.0001 14.4C6.30271 14.4 4.67485 13.7257 3.47461 12.5255C2.27438 11.3253 1.6001 9.69739 1.6001 8.00001C1.6001 6.30262 2.27438 4.67476 3.47461 3.47452C4.67485 2.27429 6.30271 1.60001 8.0001 1.60001C9.69748 1.60001 11.3253 2.27429 12.5256 3.47452C13.7258 4.67476 14.4001 6.30262 14.4001 8.00001ZM12.8001 8.00001C12.8001 8.79441 12.6073 9.54321 12.2657 10.2032L11.0465 8.98321C11.229 8.41816 11.2507 7.81344 11.1089 7.23681L12.3585 5.98721C12.6417 6.59921 12.8001 7.28001 12.8001 8.00001ZM8.6681 11.1304L9.9321 12.3944C9.3233 12.6625 8.66529 12.8006 8.0001 12.8C7.30504 12.8009 6.61815 12.6502 5.9873 12.3584L7.2369 11.1088C7.70623 11.2238 8.1955 11.2312 8.6681 11.1304ZM4.9265 8.89361C4.76907 8.35153 4.75775 7.77747 4.8937 7.22961L4.8297 7.29361L3.6057 6.06721C3.33754 6.67625 3.1994 7.33454 3.2001 8.00001C3.2001 8.76321 3.3785 9.48481 3.6953 10.1256L4.9265 8.89361ZM5.7969 3.73361C6.47788 3.38162 7.23353 3.19861 8.0001 3.20001C8.7633 3.20001 9.4849 3.37841 10.1257 3.69521L8.8937 4.92721C8.27951 4.74831 7.62581 4.7575 7.0169 4.95361L5.7969 3.73441V3.73361ZM9.6001 8.00001C9.6001 8.42435 9.43153 8.83132 9.13147 9.13138C8.83141 9.43144 8.42444 9.60001 8.0001 9.60001C7.57575 9.60001 7.16879 9.43144 6.86873 9.13138C6.56867 8.83132 6.4001 8.42435 6.4001 8.00001C6.4001 7.57566 6.56867 7.16869 6.86873 6.86864C7.16879 6.56858 7.57575 6.40001 8.0001 6.40001C8.42444 6.40001 8.83141 6.56858 9.13147 6.86864C9.43153 7.16869 9.6001 7.57566 9.6001 8.00001Z" fill="#09090B"/>
</svg>
