<svg width="16" height="16" viewBox="0 0 16 16" fill="none" xmlns="http://www.w3.org/2000/svg">
<path d="M4.00003 9.60001C4.00003 9.81218 4.08432 10.0157 4.23435 10.1657C4.38438 10.3157 4.58786 10.4 4.80003 10.4C5.01221 10.4 5.21569 10.3157 5.36572 10.1657C5.51575 10.0157 5.60003 9.81218 5.60003 9.60001V5.13121L6.63443 6.16561C6.78531 6.31133 6.9874 6.39197 7.19715 6.39015C7.40691 6.38832 7.60756 6.30419 7.75589 6.15586C7.90421 6.00753 7.98835 5.80688 7.99017 5.59713C7.99199 5.38737 7.91136 5.18529 7.76563 5.03441L5.36563 2.63441C5.21561 2.48443 5.01216 2.40018 4.80003 2.40018C4.5879 2.40018 4.38445 2.48443 4.23443 2.63441L1.83443 5.03441C1.68871 5.18529 1.60807 5.38737 1.60989 5.59713C1.61172 5.80688 1.69585 6.00753 1.84418 6.15586C1.9925 6.30419 2.19315 6.38832 2.40291 6.39015C2.61267 6.39197 2.81475 6.31133 2.96563 6.16561L4.00003 5.13121V9.60001ZM12 6.40001C12 6.18783 11.9157 5.98435 11.7657 5.83432C11.6157 5.68429 11.4122 5.60001 11.2 5.60001C10.9879 5.60001 10.7844 5.68429 10.6343 5.83432C10.4843 5.98435 10.4 6.18783 10.4 6.40001V10.8688L9.36563 9.83441C9.21475 9.68868 9.01267 9.60804 8.80291 9.60987C8.59315 9.61169 8.3925 9.69583 8.24418 9.84415C8.09585 9.99248 8.01172 10.1931 8.00989 10.4029C8.00807 10.6126 8.08871 10.8147 8.23443 10.9656L10.6344 13.3656C10.7845 13.5156 10.9879 13.5998 11.2 13.5998C11.4122 13.5998 11.6156 13.5156 11.7656 13.3656L14.1656 10.9656C14.3114 10.8147 14.392 10.6126 14.3902 10.4029C14.3883 10.1931 14.3042 9.99248 14.1559 9.84415C14.0076 9.69583 13.8069 9.61169 13.5972 9.60987C13.3874 9.60804 13.1853 9.68868 13.0344 9.83441L12 10.8688V6.40001Z" fill="#09090B"/>
</svg>
