<svg width="16" height="16" viewBox="0 0 16 16" fill="none" xmlns="http://www.w3.org/2000/svg">
<path d="M6.39998 4.00001C6.1878 4.00001 5.98432 4.0843 5.83429 4.23432C5.68426 4.38435 5.59998 4.58784 5.59998 4.80001C5.59998 5.01218 5.68426 5.21567 5.83429 5.3657C5.98432 5.51572 6.1878 5.60001 6.39998 5.60001H10.8688L9.83438 6.63441C9.68865 6.78529 9.60801 6.98737 9.60984 7.19713C9.61166 7.40689 9.69579 7.60754 9.84412 7.75586C9.99245 7.90419 10.1931 7.98833 10.4029 7.99015C10.6126 7.99197 10.8147 7.91134 10.9656 7.76561L13.3656 5.36561C13.5156 5.21559 13.5998 5.01214 13.5998 4.80001C13.5998 4.58788 13.5156 4.38443 13.3656 4.23441L10.9656 1.83441C10.8918 1.758 10.8035 1.69706 10.7059 1.65513C10.6083 1.6132 10.5033 1.59113 10.3971 1.59021C10.2909 1.58929 10.1855 1.60953 10.0872 1.64975C9.9889 1.68998 9.89957 1.74938 9.82446 1.82449C9.74935 1.89961 9.68994 1.98893 9.64972 2.08725C9.60949 2.18556 9.58925 2.29091 9.59018 2.39713C9.5911 2.50335 9.61317 2.60833 9.65509 2.70593C9.69702 2.80354 9.75797 2.89181 9.83438 2.96561L10.8688 4.00001H6.39998ZM9.59998 12C9.81215 12 10.0156 11.9157 10.1657 11.7657C10.3157 11.6157 10.4 11.4122 10.4 11.2C10.4 10.9878 10.3157 10.7844 10.1657 10.6343C10.0156 10.4843 9.81215 10.4 9.59998 10.4H5.13118L6.16558 9.36561C6.24198 9.29181 6.30293 9.20354 6.34486 9.10593C6.38678 9.00833 6.40885 8.90335 6.40978 8.79713C6.4107 8.69091 6.39046 8.58556 6.35023 8.48725C6.31001 8.38893 6.25061 8.29961 6.17549 8.22449C6.10038 8.14938 6.01106 8.08998 5.91274 8.04975C5.81442 8.00953 5.70908 7.98929 5.60285 7.99021C5.49663 7.99113 5.39166 8.0132 5.29405 8.05513C5.19645 8.09706 5.10817 8.158 5.03438 8.23441L2.63438 10.6344C2.4844 10.7844 2.40015 10.9879 2.40015 11.2C2.40015 11.4121 2.4844 11.6156 2.63438 11.7656L5.03438 14.1656C5.18526 14.3113 5.38734 14.392 5.5971 14.3902C5.80685 14.3883 6.0075 14.3042 6.15583 14.1559C6.30416 14.0075 6.38829 13.8069 6.39012 13.5971C6.39194 13.3874 6.3113 13.1853 6.16558 13.0344L5.13118 12H9.59998Z" fill="#09090B"/>
</svg>
