<svg width="16" height="16" viewBox="0 0 16 16" fill="none" xmlns="http://www.w3.org/2000/svg">
<path d="M2.3999 3.19999C2.3999 2.98782 2.48419 2.78434 2.63422 2.63431C2.78425 2.48428 2.98773 2.39999 3.1999 2.39999H12.7999C13.0121 2.39999 13.2156 2.48428 13.3656 2.63431C13.5156 2.78434 13.5999 2.98782 13.5999 3.19999V4.79999C13.5999 5.01217 13.5156 5.21565 13.3656 5.36568C13.2156 5.51571 13.0121 5.59999 12.7999 5.59999H3.1999C2.98773 5.59999 2.78425 5.51571 2.63422 5.36568C2.48419 5.21565 2.3999 5.01217 2.3999 4.79999V3.19999ZM2.3999 7.99999C2.3999 7.78782 2.48419 7.58434 2.63422 7.43431C2.78425 7.28428 2.98773 7.19999 3.1999 7.19999H7.9999C8.21208 7.19999 8.41556 7.28428 8.56559 7.43431C8.71562 7.58434 8.7999 7.78782 8.7999 7.99999V12.8C8.7999 13.0122 8.71562 13.2157 8.56559 13.3657C8.41556 13.5157 8.21208 13.6 7.9999 13.6H3.1999C2.98773 13.6 2.78425 13.5157 2.63422 13.3657C2.48419 13.2157 2.3999 13.0122 2.3999 12.8V7.99999ZM11.1999 7.19999C10.9877 7.19999 10.7842 7.28428 10.6342 7.43431C10.4842 7.58434 10.3999 7.78782 10.3999 7.99999V12.8C10.3999 13.0122 10.4842 13.2157 10.6342 13.3657C10.7842 13.5157 10.9877 13.6 11.1999 13.6H12.7999C13.0121 13.6 13.2156 13.5157 13.3656 13.3657C13.5156 13.2157 13.5999 13.0122 13.5999 12.8V7.99999C13.5999 7.78782 13.5156 7.58434 13.3656 7.43431C13.2156 7.28428 13.0121 7.19999 12.7999 7.19999H11.1999Z" fill="#09090B"/>
</svg>
