<svg width="16" height="16" viewBox="0 0 16 16" fill="none" xmlns="http://www.w3.org/2000/svg">
<path fill-rule="evenodd" clip-rule="evenodd" d="M1.6001 3.99999C1.6001 3.57565 1.76867 3.16868 2.06873 2.86862C2.36878 2.56856 2.77575 2.39999 3.2001 2.39999H12.8001C13.2244 2.39999 13.6314 2.56856 13.9315 2.86862C14.2315 3.16868 14.4001 3.57565 14.4001 3.99999V12C14.4001 12.4243 14.2315 12.8313 13.9315 13.1314C13.6314 13.4314 13.2244 13.6 12.8001 13.6H3.2001C2.77575 13.6 2.36878 13.4314 2.06873 13.1314C1.76867 12.8313 1.6001 12.4243 1.6001 12V3.99999ZM4.2345 5.03439C4.38452 4.88442 4.58797 4.80016 4.8001 4.80016C5.01223 4.80016 5.21568 4.88442 5.3657 5.03439L7.7657 7.43439C7.91567 7.58442 7.99993 7.78786 7.99993 7.99999C7.99993 8.21213 7.91567 8.41557 7.7657 8.56559L5.3657 10.9656C5.21482 11.1113 5.01273 11.192 4.80298 11.1901C4.59322 11.1883 4.39257 11.1042 4.24424 10.9558C4.09592 10.8075 4.01178 10.6069 4.00996 10.3971C4.00814 10.1874 4.08877 9.98528 4.2345 9.83439L6.0689 7.99999L4.2345 6.16559C4.08452 6.01557 4.00027 5.81213 4.00027 5.59999C4.00027 5.38786 4.08452 5.18442 4.2345 5.03439ZM8.8001 9.59999C8.58792 9.59999 8.38444 9.68428 8.23441 9.83431C8.08438 9.98434 8.0001 10.1878 8.0001 10.4C8.0001 10.6122 8.08438 10.8156 8.23441 10.9657C8.38444 11.1157 8.58792 11.2 8.8001 11.2H11.2001C11.4123 11.2 11.6158 11.1157 11.7658 10.9657C11.9158 10.8156 12.0001 10.6122 12.0001 10.4C12.0001 10.1878 11.9158 9.98434 11.7658 9.83431C11.6158 9.68428 11.4123 9.59999 11.2001 9.59999H8.8001Z" fill="#09090B"/>
</svg>
