<svg width="16" height="16" viewBox="0 0 16 16" fill="none" xmlns="http://www.w3.org/2000/svg">
<path d="M5.33333 6L7.33333 8L5.33333 10M8.66667 10H10.6667M3.33333 13.3333H12.6667C13.0203 13.3333 13.3594 13.1929 13.6095 12.9428C13.8595 12.6928 14 12.3536 14 12V4C14 3.64638 13.8595 3.30724 13.6095 3.05719C13.3594 2.80714 13.0203 2.66666 12.6667 2.66666H3.33333C2.97971 2.66666 2.64057 2.80714 2.39052 3.05719C2.14048 3.30724 2 3.64638 2 4V12C2 12.3536 2.14048 12.6928 2.39052 12.9428C2.64057 13.1929 2.97971 13.3333 3.33333 13.3333Z" stroke="#09090B" stroke-width="1.5" stroke-linecap="round" stroke-linejoin="round"/>
</svg>
