<svg width="16" height="16" viewBox="0 0 16 16" fill="none" xmlns="http://www.w3.org/2000/svg">
<path d="M1.6001 8.40001C1.6001 8.24242 1.63114 8.08638 1.69144 7.94079C1.75175 7.7952 1.84014 7.66291 1.95157 7.55148C2.063 7.44005 2.19529 7.35166 2.34088 7.29135C2.48647 7.23104 2.64251 7.20001 2.8001 7.20001C2.95768 7.20001 3.11373 7.23104 3.25932 7.29135C3.40491 7.35166 3.5372 7.44005 3.64863 7.55148C3.76006 7.66291 3.84845 7.7952 3.90875 7.94079C3.96906 8.08638 4.0001 8.24242 4.0001 8.40001V13.2C4.0001 13.5183 3.87367 13.8235 3.64863 14.0485C3.42358 14.2736 3.11836 14.4 2.8001 14.4C2.48184 14.4 2.17661 14.2736 1.95157 14.0485C1.72653 13.8235 1.6001 13.5183 1.6001 13.2V8.40001ZM4.8001 8.26641V12.6104C4.79996 12.9077 4.88267 13.1992 5.03896 13.4522C5.19525 13.7051 5.41893 13.9095 5.6849 14.0424L5.7249 14.0624C6.16881 14.2843 6.65823 14.3998 7.1545 14.4H11.4873C11.8573 14.4002 12.216 14.272 12.5021 14.0375C12.7883 13.8029 12.9844 13.4765 13.0569 13.1136L14.0169 8.31361C14.0633 8.0815 14.0576 7.842 14.0003 7.61236C13.9429 7.38272 13.8353 7.16866 13.6853 6.98561C13.5352 6.80257 13.3464 6.6551 13.1325 6.55384C12.9185 6.45257 12.6848 6.40003 12.4481 6.40001H9.6001V3.20001C9.6001 2.77566 9.43153 2.36869 9.13147 2.06864C8.83141 1.76858 8.42444 1.60001 8.0001 1.60001C7.78792 1.60001 7.58444 1.68429 7.43441 1.83432C7.28438 1.98435 7.2001 2.18783 7.2001 2.40001V2.93361C7.2001 3.62599 6.97553 4.2997 6.5601 4.85361L5.4401 6.34641C5.02467 6.90031 4.8001 7.57402 4.8001 8.26641Z" fill="#09090B"/>
</svg>
