<svg width="16" height="16" viewBox="0 0 16 16" fill="none" xmlns="http://www.w3.org/2000/svg">
<path fill-rule="evenodd" clip-rule="evenodd" d="M5.6001 1.60001C5.81227 1.60001 6.01575 1.68429 6.16578 1.83432C6.31581 1.98435 6.4001 2.18783 6.4001 2.40001V3.20001H8.8001C9.01227 3.20001 9.21575 3.28429 9.36578 3.43432C9.51581 3.58435 9.6001 3.78783 9.6001 4.00001C9.6001 4.21218 9.51581 4.41566 9.36578 4.56569C9.21575 4.71572 9.01227 4.80001 8.8001 4.80001H7.6625C7.37728 6.13103 6.91334 7.41735 6.2833 8.62401C6.5153 8.90721 6.7601 9.18081 7.0145 9.44481C7.08746 9.52045 7.14481 9.60972 7.18327 9.70752C7.22173 9.80533 7.24055 9.90975 7.23866 10.0148C7.23677 10.1199 7.21419 10.2236 7.17223 10.3199C7.13027 10.4163 7.06974 10.5034 6.9941 10.5764C6.91846 10.6494 6.82919 10.7067 6.73138 10.7452C6.63357 10.7836 6.52915 10.8025 6.42407 10.8006C6.31899 10.7987 6.21532 10.7761 6.11896 10.7341C6.02261 10.6922 5.93546 10.6316 5.8625 10.556C5.7121 10.3992 5.5641 10.2392 5.4193 10.076C4.71222 11.1265 3.87729 12.0851 2.9337 12.9296C2.77528 13.0688 2.56831 13.1398 2.3578 13.1272C2.14729 13.1146 1.95027 13.0194 1.8096 12.8623C1.66893 12.7052 1.59599 12.4989 1.60665 12.2882C1.6173 12.0776 1.71069 11.8797 1.8665 11.7376C2.83951 10.8668 3.68275 9.86116 4.3705 8.75121C3.92363 8.11747 3.52594 7.45046 3.1809 6.75601C3.13027 6.66159 3.09912 6.55797 3.08929 6.45129C3.07947 6.34461 3.09117 6.23704 3.12371 6.13497C3.15624 6.03289 3.20895 5.9384 3.2787 5.85708C3.34845 5.77576 3.43382 5.70928 3.52975 5.66159C3.62568 5.61389 3.73021 5.58595 3.83715 5.57942C3.94408 5.57288 4.05124 5.5879 4.15226 5.62356C4.25328 5.65923 4.34611 5.71482 4.42524 5.78705C4.50436 5.85927 4.56818 5.94665 4.6129 6.04401C4.8001 6.42001 5.0041 6.78641 5.2241 7.14161C5.5577 6.39441 5.8257 5.61121 6.0217 4.80001H2.4001C2.18792 4.80001 1.98444 4.71572 1.83441 4.56569C1.68438 4.41566 1.6001 4.21218 1.6001 4.00001C1.6001 3.78783 1.68438 3.58435 1.83441 3.43432C1.98444 3.28429 2.18792 3.20001 2.4001 3.20001H4.8001V2.40001C4.8001 2.18783 4.88438 1.98435 5.03441 1.83432C5.18444 1.68429 5.38792 1.60001 5.6001 1.60001ZM10.4001 6.40001C10.5486 6.40009 10.6942 6.44151 10.8205 6.51965C10.9468 6.59778 11.0489 6.70954 11.1153 6.84241L13.5081 11.628C13.5137 11.6377 13.519 11.6476 13.5241 11.6576L14.3161 13.2416C14.411 13.4315 14.4267 13.6513 14.3595 13.8527C14.2924 14.0542 14.148 14.2207 13.9581 14.3156C13.7682 14.4106 13.5484 14.4262 13.347 14.359C13.1455 14.2919 12.979 14.1475 12.8841 13.9576L12.3065 12.8H8.4953L7.9161 13.9576C7.87117 14.0549 7.80716 14.1421 7.72787 14.2142C7.64858 14.2862 7.55563 14.3416 7.45452 14.3771C7.35342 14.4125 7.24622 14.4273 7.1393 14.4205C7.03237 14.4138 6.9279 14.3856 6.83207 14.3377C6.73624 14.2897 6.65102 14.2231 6.58145 14.1416C6.51188 14.0601 6.45938 13.9655 6.42708 13.8633C6.39477 13.7612 6.38331 13.6536 6.39338 13.5469C6.40345 13.4403 6.43485 13.3367 6.4857 13.2424L7.2777 11.6584L7.2929 11.628L9.6849 6.84241C9.75129 6.70954 9.85336 6.59778 9.97968 6.51965C10.106 6.44151 10.2516 6.40009 10.4001 6.40001ZM9.2945 11.2H11.5057L10.4001 8.98881L9.2945 11.2Z" fill="#09090B"/>
</svg>
