<svg width="16" height="16" viewBox="0 0 16 16" fill="none" xmlns="http://www.w3.org/2000/svg">
<path fill-rule="evenodd" clip-rule="evenodd" d="M7.1999 1.60001C7.05137 1.60009 6.9058 1.64151 6.77948 1.71965C6.65316 1.79778 6.5511 1.90954 6.4847 2.04241L5.9055 3.20001H3.1999C2.98773 3.20001 2.78425 3.28429 2.63422 3.43432C2.48419 3.58435 2.3999 3.78783 2.3999 4.00001C2.3999 4.21218 2.48419 4.41566 2.63422 4.56569C2.78425 4.71572 2.98773 4.80001 3.1999 4.80001V12.8C3.1999 13.2244 3.36847 13.6313 3.66853 13.9314C3.96859 14.2314 4.37556 14.4 4.7999 14.4H11.1999C11.6242 14.4 12.0312 14.2314 12.3313 13.9314C12.6313 13.6313 12.7999 13.2244 12.7999 12.8V4.80001C13.0121 4.80001 13.2156 4.71572 13.3656 4.56569C13.5156 4.41566 13.5999 4.21218 13.5999 4.00001C13.5999 3.78783 13.5156 3.58435 13.3656 3.43432C13.2156 3.28429 13.0121 3.20001 12.7999 3.20001H10.0943L9.5151 2.04241C9.44871 1.90954 9.34664 1.79778 9.22032 1.71965C9.09401 1.64151 8.94843 1.60009 8.7999 1.60001H7.1999ZM5.5999 6.40001C5.5999 6.18783 5.68419 5.98435 5.83422 5.83432C5.98425 5.68429 6.18773 5.60001 6.3999 5.60001C6.61208 5.60001 6.81556 5.68429 6.96559 5.83432C7.11562 5.98435 7.1999 6.18783 7.1999 6.40001V11.2C7.1999 11.4122 7.11562 11.6157 6.96559 11.7657C6.81556 11.9157 6.61208 12 6.3999 12C6.18773 12 5.98425 11.9157 5.83422 11.7657C5.68419 11.6157 5.5999 11.4122 5.5999 11.2V6.40001ZM9.5999 5.60001C9.38773 5.60001 9.18425 5.68429 9.03422 5.83432C8.88419 5.98435 8.7999 6.18783 8.7999 6.40001V11.2C8.7999 11.4122 8.88419 11.6157 9.03422 11.7657C9.18425 11.9157 9.38773 12 9.5999 12C9.81208 12 10.0156 11.9157 10.1656 11.7657C10.3156 11.6157 10.3999 11.4122 10.3999 11.2V6.40001C10.3999 6.18783 10.3156 5.98435 10.1656 5.83432C10.0156 5.68429 9.81208 5.60001 9.5999 5.60001Z" fill="#09090B"/>
</svg>
