<svg width="16" height="16" viewBox="0 0 16 16" fill="none" xmlns="http://www.w3.org/2000/svg">
<path d="M10.4 4.79999C10.4 5.43651 10.1472 6.04696 9.69711 6.49705C9.24702 6.94714 8.63657 7.19999 8.00005 7.19999C7.36353 7.19999 6.75308 6.94714 6.30299 6.49705C5.85291 6.04696 5.60005 5.43651 5.60005 4.79999C5.60005 4.16347 5.85291 3.55303 6.30299 3.10294C6.75308 2.65285 7.36353 2.39999 8.00005 2.39999C8.63657 2.39999 9.24702 2.65285 9.69711 3.10294C10.1472 3.55303 10.4 4.16347 10.4 4.79999ZM14.4 6.39999C14.4 6.82434 14.2315 7.23131 13.9314 7.53136C13.6314 7.83142 13.2244 7.99999 12.8 7.99999C12.3757 7.99999 11.9687 7.83142 11.6687 7.53136C11.3686 7.23131 11.2 6.82434 11.2 6.39999C11.2 5.97565 11.3686 5.56868 11.6687 5.26862C11.9687 4.96856 12.3757 4.79999 12.8 4.79999C13.2244 4.79999 13.6314 4.96856 13.9314 5.26862C14.2315 5.56868 14.4 5.97565 14.4 6.39999ZM11.2 12C11.2 11.1513 10.8629 10.3374 10.2628 9.73725C9.66267 9.13714 8.84874 8.79999 8.00005 8.79999C7.15136 8.79999 6.33742 9.13714 5.73731 9.73725C5.13719 10.3374 4.80005 11.1513 4.80005 12V14.4H11.2V12ZM4.80005 6.39999C4.80005 6.82434 4.63148 7.23131 4.33142 7.53136C4.03136 7.83142 3.6244 7.99999 3.20005 7.99999C2.7757 7.99999 2.36874 7.83142 2.06868 7.53136C1.76862 7.23131 1.60005 6.82434 1.60005 6.39999C1.60005 5.97565 1.76862 5.56868 2.06868 5.26862C2.36874 4.96856 2.7757 4.79999 3.20005 4.79999C3.6244 4.79999 4.03136 4.96856 4.33142 5.26862C4.63148 5.56868 4.80005 5.97565 4.80005 6.39999ZM12.8 14.4V12C12.8012 11.1866 12.5947 10.3864 12.2 9.67519C12.5547 9.58443 12.9255 9.57587 13.2839 9.65017C13.6424 9.72447 13.9792 9.87967 14.2686 10.1039C14.558 10.3282 14.7923 10.6156 14.9538 10.9442C15.1152 11.2728 15.1994 11.6339 15.2 12V14.4H12.8ZM3.80005 9.67519C3.40545 10.3864 3.19893 11.1866 3.20005 12V14.4H0.800049V12C0.799895 11.6336 0.88362 11.2721 1.04481 10.9431C1.20599 10.6141 1.44036 10.3263 1.72996 10.1019C2.01955 9.87751 2.35667 9.72238 2.7155 9.64841C3.07432 9.57444 3.44531 9.5836 3.80005 9.67519Z" fill="#09090B"/>
</svg>
