<svg width="16" height="16" viewBox="0 0 16 16" fill="none" xmlns="http://www.w3.org/2000/svg">
<path d="M11.3333 13.3333H14.6666V12C14.6666 11.5844 14.537 11.179 14.296 10.8404C14.055 10.5018 13.7145 10.2467 13.3218 10.1105C12.929 9.97434 12.5037 9.96392 12.1048 10.0807C11.7059 10.1974 11.3532 10.4356 11.0959 10.762M11.3333 13.3333H4.66659M11.3333 13.3333V12C11.3333 11.5627 11.2493 11.1447 11.0959 10.762M11.0959 10.762C10.8483 10.1433 10.4211 9.61297 9.86925 9.23941C9.31741 8.86585 8.66631 8.6662 7.99992 8.6662C7.33353 8.6662 6.68243 8.86585 6.13059 9.23941C5.57875 9.61297 5.15149 10.1433 4.90392 10.762M4.66659 13.3333H1.33325V12C1.33328 11.5844 1.46281 11.179 1.70383 10.8404C1.94484 10.5018 2.28538 10.2467 2.67809 10.1105C3.0708 9.97434 3.49617 9.96392 3.89508 10.0807C4.29398 10.1974 4.6466 10.4356 4.90392 10.762M4.66659 13.3333V12C4.66659 11.5627 4.75059 11.1447 4.90392 10.762M9.99992 4.66666C9.99992 5.1971 9.7892 5.70581 9.41413 6.08088C9.03906 6.45595 8.53035 6.66666 7.99992 6.66666C7.46949 6.66666 6.96078 6.45595 6.5857 6.08088C6.21063 5.70581 5.99992 5.1971 5.99992 4.66666C5.99992 4.13623 6.21063 3.62752 6.5857 3.25245C6.96078 2.87738 7.46949 2.66666 7.99992 2.66666C8.53035 2.66666 9.03906 2.87738 9.41413 3.25245C9.7892 3.62752 9.99992 4.13623 9.99992 4.66666ZM13.9999 6.66666C13.9999 7.02029 13.8594 7.35942 13.6094 7.60947C13.3593 7.85952 13.0202 8 12.6666 8C12.313 8 11.9738 7.85952 11.7238 7.60947C11.4737 7.35942 11.3333 7.02029 11.3333 6.66666C11.3333 6.31304 11.4737 5.9739 11.7238 5.72386C11.9738 5.47381 12.313 5.33333 12.6666 5.33333C13.0202 5.33333 13.3593 5.47381 13.6094 5.72386C13.8594 5.9739 13.9999 6.31304 13.9999 6.66666ZM4.66659 6.66666C4.66659 7.02029 4.52611 7.35942 4.27606 7.60947C4.02601 7.85952 3.68687 8 3.33325 8C2.97963 8 2.64049 7.85952 2.39044 7.60947C2.14039 7.35942 1.99992 7.02029 1.99992 6.66666C1.99992 6.31304 2.14039 5.9739 2.39044 5.72386C2.64049 5.47381 2.97963 5.33333 3.33325 5.33333C3.68687 5.33333 4.02601 5.47381 4.27606 5.72386C4.52611 5.9739 4.66659 6.31304 4.66659 6.66666Z" stroke="#09090B" stroke-width="1.5" stroke-linecap="round" stroke-linejoin="round"/>
</svg>
