<svg width="16" height="16" viewBox="0 0 16 16" fill="none" xmlns="http://www.w3.org/2000/svg">
<path d="M14 8H10M8.66667 4.66667C8.66667 5.37391 8.38572 6.05219 7.88562 6.55229C7.38552 7.05238 6.70724 7.33333 6 7.33333C5.29276 7.33333 4.61448 7.05238 4.11438 6.55229C3.61428 6.05219 3.33333 5.37391 3.33333 4.66667C3.33333 3.95942 3.61428 3.28115 4.11438 2.78105C4.61448 2.28095 5.29276 2 6 2C6.70724 2 7.38552 2.28095 7.88562 2.78105C8.38572 3.28115 8.66667 3.95942 8.66667 4.66667ZM6 9.33333C4.93913 9.33333 3.92172 9.75476 3.17157 10.5049C2.42143 11.2551 2 12.2725 2 13.3333V14H10V13.3333C10 12.2725 9.57857 11.2551 8.82843 10.5049C8.07828 9.75476 7.06087 9.33333 6 9.33333Z" stroke="#09090B" stroke-width="1.5" stroke-linecap="round" stroke-linejoin="round"/>
</svg>
