<svg width="16" height="16" viewBox="0 0 16 16" fill="none" xmlns="http://www.w3.org/2000/svg">
<path d="M7.20005 4.79999C7.20005 5.43651 6.94719 6.04696 6.49711 6.49705C6.04702 6.94714 5.43657 7.19999 4.80005 7.19999C4.16353 7.19999 3.55308 6.94714 3.10299 6.49705C2.65291 6.04696 2.40005 5.43651 2.40005 4.79999C2.40005 4.16347 2.65291 3.55303 3.10299 3.10294C3.55308 2.65285 4.16353 2.39999 4.80005 2.39999C5.43657 2.39999 6.04702 2.65285 6.49711 3.10294C6.94719 3.55303 7.20005 4.16347 7.20005 4.79999ZM13.6 4.79999C13.6 5.11517 13.538 5.42725 13.4174 5.71843C13.2967 6.00962 13.12 6.27419 12.8971 6.49705C12.6742 6.71991 12.4097 6.89669 12.1185 7.0173C11.8273 7.13792 11.5152 7.19999 11.2 7.19999C10.8849 7.19999 10.5728 7.13792 10.2816 7.0173C9.99043 6.89669 9.72585 6.71991 9.50299 6.49705C9.28013 6.27419 9.10335 6.00962 8.98274 5.71843C8.86213 5.42725 8.80005 5.11517 8.80005 4.79999C8.80005 4.16347 9.05291 3.55303 9.50299 3.10294C9.95308 2.65285 10.5635 2.39999 11.2 2.39999C11.8366 2.39999 12.447 2.65285 12.8971 3.10294C13.3472 3.55303 13.6 4.16347 13.6 4.79999ZM10.344 13.6C10.3808 13.3384 10.4 13.072 10.4 12.8C10.4019 11.5431 9.97904 10.3224 9.20005 9.33599C9.80812 8.98493 10.4979 8.8001 11.2 8.8001C11.9022 8.80009 12.5919 8.98491 13.2 9.33597C13.8081 9.68703 14.313 10.192 14.6641 10.8C15.0152 11.4081 15.2 12.0979 15.2 12.8V13.6H10.344ZM4.80005 8.79999C5.86091 8.79999 6.87833 9.22142 7.62848 9.97157C8.37862 10.7217 8.80005 11.7391 8.80005 12.8V13.6H0.800049V12.8C0.800049 11.7391 1.22148 10.7217 1.97162 9.97157C2.72177 9.22142 3.73918 8.79999 4.80005 8.79999Z" fill="#09090B"/>
</svg>
