<svg width="16" height="16" viewBox="0 0 16 16" fill="none" xmlns="http://www.w3.org/2000/svg">
<path d="M6.4001 7.19999C7.03662 7.19999 7.64707 6.94714 8.09715 6.49705C8.54724 6.04696 8.8001 5.43651 8.8001 4.79999C8.8001 4.16347 8.54724 3.55303 8.09715 3.10294C7.64707 2.65285 7.03662 2.39999 6.4001 2.39999C5.76358 2.39999 5.15313 2.65285 4.70304 3.10294C4.25295 3.55303 4.0001 4.16347 4.0001 4.79999C4.0001 5.43651 4.25295 6.04696 4.70304 6.49705C5.15313 6.94714 5.76358 7.19999 6.4001 7.19999ZM6.4001 8.79999C7.67314 8.79999 8.89404 9.30571 9.79421 10.2059C10.6944 11.1061 11.2001 12.327 11.2001 13.6H1.6001C1.6001 12.327 2.10581 11.1061 3.00599 10.2059C3.90616 9.30571 5.12706 8.79999 6.4001 8.79999ZM12.8001 5.59999C12.8001 5.38782 12.7158 5.18434 12.5658 5.03431C12.4158 4.88428 12.2123 4.79999 12.0001 4.79999C11.7879 4.79999 11.5844 4.88428 11.4344 5.03431C11.2844 5.18434 11.2001 5.38782 11.2001 5.59999V6.39999H10.4001C10.1879 6.39999 9.98444 6.48428 9.83441 6.63431C9.68438 6.78434 9.6001 6.98782 9.6001 7.19999C9.6001 7.41217 9.68438 7.61565 9.83441 7.76568C9.98444 7.91571 10.1879 7.99999 10.4001 7.99999H11.2001V8.79999C11.2001 9.01217 11.2844 9.21565 11.4344 9.36568C11.5844 9.51571 11.7879 9.59999 12.0001 9.59999C12.2123 9.59999 12.4158 9.51571 12.5658 9.36568C12.7158 9.21565 12.8001 9.01217 12.8001 8.79999V7.99999H13.6001C13.8123 7.99999 14.0158 7.91571 14.1658 7.76568C14.3158 7.61565 14.4001 7.41217 14.4001 7.19999C14.4001 6.98782 14.3158 6.78434 14.1658 6.63431C14.0158 6.48428 13.8123 6.39999 13.6001 6.39999H12.8001V5.59999Z" fill="#09090B"/>
</svg>
