<svg width="16" height="16" viewBox="0 0 16 16" fill="none" xmlns="http://www.w3.org/2000/svg">
<path d="M3.9999 2.39999C3.57556 2.39999 3.16859 2.56856 2.86853 2.86862C2.56847 3.16868 2.3999 3.57565 2.3999 3.99999V5.59999C2.3999 6.02434 2.56847 6.43131 2.86853 6.73136C3.16859 7.03142 3.57556 7.19999 3.9999 7.19999H5.5999C6.02425 7.19999 6.43121 7.03142 6.73127 6.73136C7.03133 6.43131 7.1999 6.02434 7.1999 5.59999V3.99999C7.1999 3.57565 7.03133 3.16868 6.73127 2.86862C6.43121 2.56856 6.02425 2.39999 5.5999 2.39999H3.9999ZM3.9999 8.79999C3.57556 8.79999 3.16859 8.96857 2.86853 9.26862C2.56847 9.56868 2.3999 9.97565 2.3999 10.4V12C2.3999 12.4243 2.56847 12.8313 2.86853 13.1314C3.16859 13.4314 3.57556 13.6 3.9999 13.6H5.5999C6.02425 13.6 6.43121 13.4314 6.73127 13.1314C7.03133 12.8313 7.1999 12.4243 7.1999 12V10.4C7.1999 9.97565 7.03133 9.56868 6.73127 9.26862C6.43121 8.96857 6.02425 8.79999 5.5999 8.79999H3.9999ZM8.7999 3.99999C8.7999 3.57565 8.96847 3.16868 9.26853 2.86862C9.56859 2.56856 9.97556 2.39999 10.3999 2.39999H11.9999C12.4242 2.39999 12.8312 2.56856 13.1313 2.86862C13.4313 3.16868 13.5999 3.57565 13.5999 3.99999V5.59999C13.5999 6.02434 13.4313 6.43131 13.1313 6.73136C12.8312 7.03142 12.4242 7.19999 11.9999 7.19999H10.3999C9.97556 7.19999 9.56859 7.03142 9.26853 6.73136C8.96847 6.43131 8.7999 6.02434 8.7999 5.59999V3.99999ZM11.1999 8.79999C11.4121 8.79999 11.6156 8.88428 11.7656 9.03431C11.9156 9.18434 11.9999 9.38782 11.9999 9.59999V10.4H12.7999C13.0121 10.4 13.2156 10.4843 13.3656 10.6343C13.5156 10.7843 13.5999 10.9878 13.5999 11.2C13.5999 11.4122 13.5156 11.6157 13.3656 11.7657C13.2156 11.9157 13.0121 12 12.7999 12H11.9999V12.8C11.9999 13.0122 11.9156 13.2157 11.7656 13.3657C11.6156 13.5157 11.4121 13.6 11.1999 13.6C10.9877 13.6 10.7842 13.5157 10.6342 13.3657C10.4842 13.2157 10.3999 13.0122 10.3999 12.8V12H9.5999C9.38773 12 9.18425 11.9157 9.03422 11.7657C8.88419 11.6157 8.7999 11.4122 8.7999 11.2C8.7999 10.9878 8.88419 10.7843 9.03422 10.6343C9.18425 10.4843 9.38773 10.4 9.5999 10.4H10.3999V9.59999C10.3999 9.38782 10.4842 9.18434 10.6342 9.03431C10.7842 8.88428 10.9877 8.79999 11.1999 8.79999Z" fill="#09090B"/>
</svg>
