<svg width="16" height="16" viewBox="0 0 16 16" fill="none" xmlns="http://www.w3.org/2000/svg">
<path d="M11.3334 9.33334V13.3333M9.33341 11.3333H13.3334M4.00008 6.66667H5.33341C5.68704 6.66667 6.02618 6.5262 6.27622 6.27615C6.52627 6.0261 6.66675 5.68696 6.66675 5.33334V4.00001C6.66675 3.64638 6.52627 3.30724 6.27622 3.0572C6.02618 2.80715 5.68704 2.66667 5.33341 2.66667H4.00008C3.64646 2.66667 3.30732 2.80715 3.05727 3.0572C2.80722 3.30724 2.66675 3.64638 2.66675 4.00001V5.33334C2.66675 5.68696 2.80722 6.0261 3.05727 6.27615C3.30732 6.5262 3.64646 6.66667 4.00008 6.66667ZM10.6667 6.66667H12.0001C12.3537 6.66667 12.6928 6.5262 12.9429 6.27615C13.1929 6.0261 13.3334 5.68696 13.3334 5.33334V4.00001C13.3334 3.64638 13.1929 3.30724 12.9429 3.0572C12.6928 2.80715 12.3537 2.66667 12.0001 2.66667H10.6667C10.3131 2.66667 9.97399 2.80715 9.72394 3.0572C9.47389 3.30724 9.33341 3.64638 9.33341 4.00001V5.33334C9.33341 5.68696 9.47389 6.0261 9.72394 6.27615C9.97399 6.5262 10.3131 6.66667 10.6667 6.66667ZM4.00008 13.3333H5.33341C5.68704 13.3333 6.02618 13.1929 6.27622 12.9428C6.52627 12.6928 6.66675 12.3536 6.66675 12V10.6667C6.66675 10.313 6.52627 9.97391 6.27622 9.72386C6.02618 9.47381 5.68704 9.33334 5.33341 9.33334H4.00008C3.64646 9.33334 3.30732 9.47381 3.05727 9.72386C2.80722 9.97391 2.66675 10.313 2.66675 10.6667V12C2.66675 12.3536 2.80722 12.6928 3.05727 12.9428C3.30732 13.1929 3.64646 13.3333 4.00008 13.3333Z" stroke="#09090B" stroke-width="1.5" stroke-linecap="round" stroke-linejoin="round"/>
</svg>
