<svg width="16" height="16" viewBox="0 0 16 16" fill="none" xmlns="http://www.w3.org/2000/svg">
<path fill-rule="evenodd" clip-rule="evenodd" d="M2.3999 3.19999C2.3999 2.98782 2.48419 2.78434 2.63422 2.63431C2.78425 2.48428 2.98773 2.39999 3.1999 2.39999H12.7999C13.0121 2.39999 13.2156 2.48428 13.3656 2.63431C13.5156 2.78434 13.5999 2.98782 13.5999 3.19999C13.5999 3.41217 13.5156 3.61565 13.3656 3.76568C13.2156 3.91571 13.0121 3.99999 12.7999 3.99999H3.1999C2.98773 3.99999 2.78425 3.91571 2.63422 3.76568C2.48419 3.61565 2.3999 3.41217 2.3999 3.19999ZM2.3999 6.39999C2.3999 6.18782 2.48419 5.98434 2.63422 5.83431C2.78425 5.68428 2.98773 5.59999 3.1999 5.59999H12.7999C13.0121 5.59999 13.2156 5.68428 13.3656 5.83431C13.5156 5.98434 13.5999 6.18782 13.5999 6.39999C13.5999 6.61217 13.5156 6.81565 13.3656 6.96568C13.2156 7.11571 13.0121 7.19999 12.7999 7.19999H3.1999C2.98773 7.19999 2.78425 7.11571 2.63422 6.96568C2.48419 6.81565 2.3999 6.61217 2.3999 6.39999ZM2.3999 9.59999C2.3999 9.38782 2.48419 9.18434 2.63422 9.03431C2.78425 8.88428 2.98773 8.79999 3.1999 8.79999H12.7999C13.0121 8.79999 13.2156 8.88428 13.3656 9.03431C13.5156 9.18434 13.5999 9.38782 13.5999 9.59999C13.5999 9.81217 13.5156 10.0157 13.3656 10.1657C13.2156 10.3157 13.0121 10.4 12.7999 10.4H3.1999C2.98773 10.4 2.78425 10.3157 2.63422 10.1657C2.48419 10.0157 2.3999 9.81217 2.3999 9.59999ZM2.3999 12.8C2.3999 12.5878 2.48419 12.3843 2.63422 12.2343C2.78425 12.0843 2.98773 12 3.1999 12H12.7999C13.0121 12 13.2156 12.0843 13.3656 12.2343C13.5156 12.3843 13.5999 12.5878 13.5999 12.8C13.5999 13.0122 13.5156 13.2157 13.3656 13.3657C13.2156 13.5157 13.0121 13.6 12.7999 13.6H3.1999C2.98773 13.6 2.78425 13.5157 2.63422 13.3657C2.48419 13.2157 2.3999 13.0122 2.3999 12.8Z" fill="#09090B"/>
</svg>
