<svg width="16" height="16" viewBox="0 0 16 16" fill="none" xmlns="http://www.w3.org/2000/svg">
<path d="M2.66675 4.00001C2.66675 3.64638 2.80722 3.30724 3.05727 3.0572C3.30732 2.80715 3.64646 2.66667 4.00008 2.66667H5.33341C5.68704 2.66667 6.02618 2.80715 6.27622 3.0572C6.52627 3.30724 6.66675 3.64638 6.66675 4.00001V5.33334C6.66675 5.68696 6.52627 6.0261 6.27622 6.27615C6.02618 6.5262 5.68704 6.66667 5.33341 6.66667H4.00008C3.64646 6.66667 3.30732 6.5262 3.05727 6.27615C2.80722 6.0261 2.66675 5.68696 2.66675 5.33334V4.00001ZM9.33341 4.00001C9.33341 3.64638 9.47389 3.30724 9.72394 3.0572C9.97399 2.80715 10.3131 2.66667 10.6667 2.66667H12.0001C12.3537 2.66667 12.6928 2.80715 12.9429 3.0572C13.1929 3.30724 13.3334 3.64638 13.3334 4.00001V5.33334C13.3334 5.68696 13.1929 6.0261 12.9429 6.27615C12.6928 6.5262 12.3537 6.66667 12.0001 6.66667H10.6667C10.3131 6.66667 9.97399 6.5262 9.72394 6.27615C9.47389 6.0261 9.33341 5.68696 9.33341 5.33334V4.00001ZM2.66675 10.6667C2.66675 10.313 2.80722 9.97391 3.05727 9.72386C3.30732 9.47381 3.64646 9.33334 4.00008 9.33334H5.33341C5.68704 9.33334 6.02618 9.47381 6.27622 9.72386C6.52627 9.97391 6.66675 10.313 6.66675 10.6667V12C6.66675 12.3536 6.52627 12.6928 6.27622 12.9428C6.02618 13.1929 5.68704 13.3333 5.33341 13.3333H4.00008C3.64646 13.3333 3.30732 13.1929 3.05727 12.9428C2.80722 12.6928 2.66675 12.3536 2.66675 12V10.6667ZM9.33341 10.6667C9.33341 10.313 9.47389 9.97391 9.72394 9.72386C9.97399 9.47381 10.3131 9.33334 10.6667 9.33334H12.0001C12.3537 9.33334 12.6928 9.47381 12.9429 9.72386C13.1929 9.97391 13.3334 10.313 13.3334 10.6667V12C13.3334 12.3536 13.1929 12.6928 12.9429 12.9428C12.6928 13.1929 12.3537 13.3333 12.0001 13.3333H10.6667C10.3131 13.3333 9.97399 13.1929 9.72394 12.9428C9.47389 12.6928 9.33341 12.3536 9.33341 12V10.6667Z" stroke="#09090B" stroke-width="1.5" stroke-linecap="round" stroke-linejoin="round"/>
</svg>
