<svg width="16" height="16" viewBox="0 0 16 16" fill="none" xmlns="http://www.w3.org/2000/svg">
<path d="M3.9999 2.39999C3.57556 2.39999 3.16859 2.56856 2.86853 2.86862C2.56847 3.16868 2.3999 3.57565 2.3999 3.99999V5.59999C2.3999 6.02434 2.56847 6.43131 2.86853 6.73136C3.16859 7.03142 3.57556 7.19999 3.9999 7.19999H5.5999C6.02425 7.19999 6.43121 7.03142 6.73127 6.73136C7.03133 6.43131 7.1999 6.02434 7.1999 5.59999V3.99999C7.1999 3.57565 7.03133 3.16868 6.73127 2.86862C6.43121 2.56856 6.02425 2.39999 5.5999 2.39999H3.9999ZM3.9999 8.79999C3.57556 8.79999 3.16859 8.96857 2.86853 9.26862C2.56847 9.56868 2.3999 9.97565 2.3999 10.4V12C2.3999 12.4243 2.56847 12.8313 2.86853 13.1314C3.16859 13.4314 3.57556 13.6 3.9999 13.6H5.5999C6.02425 13.6 6.43121 13.4314 6.73127 13.1314C7.03133 12.8313 7.1999 12.4243 7.1999 12V10.4C7.1999 9.97565 7.03133 9.56868 6.73127 9.26862C6.43121 8.96857 6.02425 8.79999 5.5999 8.79999H3.9999ZM8.7999 3.99999C8.7999 3.57565 8.96847 3.16868 9.26853 2.86862C9.56859 2.56856 9.97556 2.39999 10.3999 2.39999H11.9999C12.4242 2.39999 12.8312 2.56856 13.1313 2.86862C13.4313 3.16868 13.5999 3.57565 13.5999 3.99999V5.59999C13.5999 6.02434 13.4313 6.43131 13.1313 6.73136C12.8312 7.03142 12.4242 7.19999 11.9999 7.19999H10.3999C9.97556 7.19999 9.56859 7.03142 9.26853 6.73136C8.96847 6.43131 8.7999 6.02434 8.7999 5.59999V3.99999ZM8.7999 10.4C8.7999 9.97565 8.96847 9.56868 9.26853 9.26862C9.56859 8.96857 9.97556 8.79999 10.3999 8.79999H11.9999C12.4242 8.79999 12.8312 8.96857 13.1313 9.26862C13.4313 9.56868 13.5999 9.97565 13.5999 10.4V12C13.5999 12.4243 13.4313 12.8313 13.1313 13.1314C12.8312 13.4314 12.4242 13.6 11.9999 13.6H10.3999C9.97556 13.6 9.56859 13.4314 9.26853 13.1314C8.96847 12.8313 8.7999 12.4243 8.7999 12V10.4Z" fill="#09090B"/>
</svg>
