<svg width="16" height="16" viewBox="0 0 16 16" fill="none" xmlns="http://www.w3.org/2000/svg">
<path fill-rule="evenodd" clip-rule="evenodd" d="M7.50645 2.46081C7.6526 2.5214 7.7775 2.62397 7.86536 2.75555C7.95322 2.88712 8.00009 3.04179 8.00005 3.20001V12.8C8.00002 12.9582 7.95308 13.1128 7.86517 13.2444C7.77726 13.3759 7.65233 13.4784 7.50617 13.5389C7.36001 13.5995 7.19919 13.6153 7.04402 13.5845C6.88886 13.5536 6.74633 13.4775 6.63445 13.3656L3.66885 10.4H1.60005C1.38788 10.4 1.18439 10.3157 1.03436 10.1657C0.884334 10.0157 0.800049 9.81218 0.800049 9.60001V6.40001C0.800049 6.18783 0.884334 5.98435 1.03436 5.83432C1.18439 5.68429 1.38788 5.60001 1.60005 5.60001H3.66885L6.63445 2.63441C6.74633 2.52246 6.88889 2.44621 7.04411 2.41531C7.19933 2.38441 7.36023 2.40024 7.50645 2.46081ZM11.7256 2.34321C11.8757 2.19323 12.0791 2.10898 12.2912 2.10898C12.5034 2.10898 12.7068 2.19323 12.8568 2.34321C13.6007 3.08533 14.1906 3.96709 14.5928 4.93785C14.9949 5.90862 15.2013 6.94926 15.2 8.00001C15.2013 9.05076 14.9949 10.0914 14.5928 11.0622C14.1906 12.0329 13.6007 12.9147 12.8568 13.6568C12.706 13.8025 12.5039 13.8832 12.2941 13.8813C12.0844 13.8795 11.8837 13.7954 11.7354 13.6471C11.5871 13.4987 11.5029 13.2981 11.5011 13.0883C11.4993 12.8786 11.5799 12.6765 11.7256 12.5256C12.321 11.9321 12.793 11.2266 13.1147 10.45C13.4364 9.67329 13.6013 8.84067 13.6 8.00001C13.6 6.23201 12.8848 4.63361 11.7256 3.47441C11.5757 3.32439 11.4914 3.12094 11.4914 2.90881C11.4914 2.69668 11.5757 2.49323 11.7256 2.34321ZM9.46245 4.60561C9.53675 4.53123 9.62498 4.47222 9.7221 4.43196C9.81921 4.3917 9.92332 4.37098 10.0284 4.37098C10.1336 4.37098 10.2377 4.3917 10.3348 4.43196C10.4319 4.47222 10.5202 4.53123 10.5944 4.60561C11.0408 5.05094 11.3947 5.58006 11.6359 6.16258C11.8771 6.74509 12.0009 7.36952 12 8.00001C12.0008 8.63048 11.877 9.2549 11.6358 9.83741C11.3946 10.4199 11.0407 10.949 10.5944 11.3944C10.4443 11.5445 10.2407 11.6289 10.0284 11.6289C9.81616 11.6289 9.61256 11.5445 9.46245 11.3944C9.31234 11.2443 9.228 11.0407 9.228 10.8284C9.228 10.6161 9.31234 10.4125 9.46245 10.2624C9.76019 9.96575 9.99631 9.61313 10.1572 9.22486C10.3181 8.83658 10.4007 8.42031 10.4 8.00001C10.4007 7.5797 10.3182 7.16342 10.1573 6.77513C9.99636 6.38685 9.76022 6.03424 9.46245 5.73761C9.38807 5.66331 9.32906 5.57508 9.2888 5.47796C9.24854 5.38084 9.22782 5.27674 9.22782 5.17161C9.22782 5.06647 9.24854 4.96237 9.2888 4.86526C9.32906 4.76814 9.38807 4.67991 9.46245 4.60561Z" fill="#09090B"/>
</svg>
