<svg width="16" height="16" viewBox="0 0 16 16" fill="none" xmlns="http://www.w3.org/2000/svg">
<path d="M3.724 10H2.66667C2.48986 10 2.32029 9.92976 2.19526 9.80474C2.07024 9.67971 2 9.51014 2 9.33333V6.66667C2 6.48986 2.07024 6.32029 2.19526 6.19526C2.32029 6.07024 2.48986 6 2.66667 6H3.724L6.862 2.862C7.282 2.442 8 2.73933 8 3.33333V12.6667C8 13.2607 7.282 13.558 6.862 13.138L3.724 10Z" stroke="#09090B" stroke-width="1.5" stroke-linecap="round" stroke-linejoin="round"/>
<path d="M11.3333 9.33334L12.6666 8.00001M12.6666 8.00001L13.9999 6.66667M12.6666 8.00001L11.3333 6.66667M12.6666 8.00001L13.9999 9.33334" stroke="#09090B" stroke-width="1.5" stroke-linecap="round" stroke-linejoin="round"/>
</svg>
