<svg width="16" height="16" viewBox="0 0 16 16" fill="none" xmlns="http://www.w3.org/2000/svg">
<path fill-rule="evenodd" clip-rule="evenodd" d="M7.50645 2.4608C7.6526 2.52139 7.7775 2.62396 7.86536 2.75554C7.95322 2.88711 8.00009 3.04178 8.00005 3.19999V12.8C8.00002 12.9582 7.95308 13.1128 7.86517 13.2444C7.77726 13.3759 7.65233 13.4784 7.50617 13.5389C7.36001 13.5995 7.19919 13.6153 7.04402 13.5845C6.88886 13.5536 6.74633 13.4774 6.63445 13.3656L3.66885 10.4H1.60005C1.38788 10.4 1.18439 10.3157 1.03436 10.1657C0.884334 10.0157 0.800049 9.81217 0.800049 9.6V6.39999C0.800049 6.18782 0.884334 5.98434 1.03436 5.83431C1.18439 5.68428 1.38788 5.59999 1.60005 5.59999H3.66885L6.63445 2.6344C6.74633 2.52245 6.88889 2.4462 7.04411 2.4153C7.19933 2.3844 7.36023 2.40023 7.50645 2.4608ZM9.83445 5.83439C9.98447 5.68442 10.1879 5.60017 10.4 5.60017C10.6122 5.60017 10.8156 5.68442 10.9656 5.83439L12 6.86879L13.0344 5.83439C13.1082 5.75799 13.1965 5.69704 13.2941 5.65511C13.3917 5.61319 13.4967 5.59112 13.6029 5.59019C13.7092 5.58927 13.8145 5.60951 13.9128 5.64974C14.0111 5.68996 14.1005 5.74936 14.1756 5.82448C14.2507 5.89959 14.3101 5.98891 14.3503 6.08723C14.3905 6.18555 14.4108 6.29089 14.4099 6.39712C14.4089 6.50334 14.3869 6.60831 14.3449 6.70592C14.303 6.80352 14.2421 6.8918 14.1656 6.96559L13.1312 7.99999L14.1656 9.0344C14.3114 9.18528 14.392 9.38736 14.3902 9.59712C14.3884 9.80687 14.3042 10.0075 14.1559 10.1558C14.0076 10.3042 13.8069 10.3883 13.5972 10.3901C13.3874 10.392 13.1853 10.3113 13.0344 10.1656L12 9.13119L10.9656 10.1656C10.8148 10.3113 10.6127 10.392 10.4029 10.3901C10.1932 10.3883 9.99252 10.3042 9.84419 10.1558C9.69587 10.0075 9.61173 9.80687 9.60991 9.59712C9.60809 9.38736 9.68872 9.18528 9.83445 9.0344L10.8688 7.99999L9.83445 6.96559C9.68447 6.81557 9.60022 6.61213 9.60022 6.39999C9.60022 6.18786 9.68447 5.98442 9.83445 5.83439Z" fill="#09090B"/>
</svg>
