<svg width="16" height="16" viewBox="0 0 16 16" fill="none" xmlns="http://www.w3.org/2000/svg">
<path fill-rule="evenodd" clip-rule="evenodd" d="M6.4001 3.20001C5.5514 3.20001 4.73747 3.53715 4.13736 4.13727C3.53724 4.73738 3.2001 5.55132 3.2001 6.40001C3.2001 7.2487 3.53724 8.06263 4.13736 8.66275C4.73747 9.26287 5.5514 9.60001 6.4001 9.60001C7.24879 9.60001 8.06272 9.26287 8.66284 8.66275C9.26296 8.06263 9.6001 7.2487 9.6001 6.40001C9.6001 5.55132 9.26296 4.73738 8.66284 4.13727C8.06272 3.53715 7.24879 3.20001 6.4001 3.20001ZM1.6001 6.40001C1.6 5.64457 1.77821 4.89978 2.12023 4.2262C2.46226 3.55263 2.95844 2.96929 3.56841 2.52363C4.17839 2.07797 4.88495 1.78258 5.63061 1.66148C6.37628 1.54037 7.14 1.59698 7.85967 1.82669C8.57933 2.0564 9.23462 2.45273 9.77223 2.98345C10.3098 3.51416 10.7146 4.16428 10.9536 4.88091C11.1926 5.59755 11.259 6.36048 11.1476 7.10765C11.0361 7.85482 10.7498 8.56513 10.3121 9.18081L14.1657 13.0344C14.3114 13.1853 14.3921 13.3874 14.3902 13.5971C14.3884 13.8069 14.3043 14.0075 14.156 14.1559C14.0076 14.3042 13.807 14.3883 13.5972 14.3901C13.3875 14.392 13.1854 14.3113 13.0345 14.1656L9.1817 10.3128C8.46359 10.8234 7.61878 11.1265 6.73984 11.1889C5.8609 11.2513 4.98176 11.0705 4.19874 10.6664C3.41572 10.2623 2.75905 9.65043 2.30068 8.89789C1.84231 8.14535 1.59993 7.28116 1.6001 6.40001Z" fill="#09090B"/>
<path fill-rule="evenodd" clip-rule="evenodd" d="M4 6.40001C4 6.18783 4.08429 5.98435 4.23431 5.83432C4.38434 5.68429 4.58783 5.60001 4.8 5.60001H8C8.21217 5.60001 8.41566 5.68429 8.56568 5.83432C8.71571 5.98435 8.8 6.18783 8.8 6.40001C8.8 6.61218 8.71571 6.81566 8.56568 6.96569C8.41566 7.11572 8.21217 7.20001 8 7.20001H4.8C4.58783 7.20001 4.38434 7.11572 4.23431 6.96569C4.08429 6.81566 4 6.61218 4 6.40001Z" fill="#09090B"/>
</svg>
